<svg xmlns="http://www.w3.org/2000/svg" width="60.143" height="371.573" viewBox="0 0 60.143 371.573">
  <g id="wind-energy-2029621" transform="translate(-382.14 -419.08)">
    <g id="Group_1" data-name="Group 1">
      <g id="Path_4" data-name="Path 4" transform="translate(-1)" fill="#0c0b0b" stroke-linejoin="round">
        <path d="M 441.2830200195313 788.6529541015625 L 439.2830200195313 788.6529541015625 L 387.1400146484375 788.6529541015625 L 385.1400146484375 788.6529541015625 L 385.1400146484375 786.6529541015625 L 385.1400146484375 423.0800170898438 L 385.1400146484375 416.0053405761719 L 388.8440246582031 422.0328979492188 L 440.9870300292969 506.8858947753906 L 441.2830200195313 507.3676147460938 L 441.2830200195313 507.9330139160156 L 441.2830200195313 786.6529541015625 L 441.2830200195313 788.6529541015625 Z" stroke="none"/>
        <path d="M 387.1400146484375 423.0799560546875 L 387.1400146484375 786.6529541015625 L 439.2830200195313 786.6529541015625 L 439.2830200195313 507.9329833984375 L 387.1400146484375 423.0799560546875 M 387.1400451660156 419.07958984375 C 388.5043334960938 419.07958984375 389.8070983886719 419.7800903320313 390.5479736328125 420.9857177734375 L 442.6909790039063 505.8387451171875 C 443.0780639648438 506.4686889648438 443.2830200195313 507.193603515625 443.2830200195313 507.9329833984375 L 443.2830200195313 786.6529541015625 C 443.2830200195313 788.862060546875 441.4921569824219 790.6529541015625 439.2830200195313 790.6529541015625 L 387.1400146484375 790.6529541015625 C 384.9308776855469 790.6529541015625 383.1400146484375 788.862060546875 383.1400146484375 786.6529541015625 L 383.1400146484375 423.0799560546875 C 383.1400146484375 421.2899169921875 384.3293151855469 419.7177734375 386.0518798828125 419.2308349609375 C 386.4126892089844 419.1287841796875 386.7785339355469 419.07958984375 387.1400451660156 419.07958984375 Z" stroke="none" fill="#0c0b0b"/>
      </g>
    </g>
  </g>
</svg>
