<svg id="weather-img" xmlns="http://www.w3.org/2000/svg" width="1101.083" height="790.447" viewBox="0 0 1101.083 790.447">
  <path id="Path_1" data-name="Path 1" d="M758.6,141.21c-43.78,30.47-100.57,28.5-150.34,12.65s-95.48-44.09-144-64.16A470.28,470.28,0,0,0,337.8,56.92c-61.8-7-130.81,1.53-173.87,50.8-47.95,54.87-44.27,153.82,7.59,204.19,26.38,25.62,60.93,38.19,91,58.19s58,53.22,55.45,91.83c-2.38,35.74-30,63.16-58.57,80.37-22.08,13.3-49.29,27.82-51.95,55.37-2.57,26.65,20.3,47.54,42.14,59.41,71.25,38.75,159,38.38,230-1,25.32-14,48.6-32.71,75.15-43.65,69.73-28.73,146.56.19,220.39,10.76a443.071,443.071,0,0,0,187.44-13.56c36.57-10.74,73.27-27.15,98.95-57.73,18.52-22,30.06-49.95,40.9-77.5q17.32-44.08,33.31-88.78c6.39-17.89,12.69-36.12,14.34-55.26,3-34.69-9.62-69-26.79-98.24-40.77-69.49-109.45-118.36-183.78-130.77s-153.09,11.83-210.77,64.88" transform="translate(-49.43 -54.784)" fill="#009688" opacity="0.1"/>
  <ellipse id="Ellipse_1" data-name="Ellipse 1" cx="176" cy="29.99" rx="176" ry="29.99" transform="translate(0 667.426)" fill="#009688" opacity="0.1"/>
  <rect id="Rectangle_1" data-name="Rectangle 1" width="796.46" height="377.59" rx="30.34" transform="translate(226.43 183.966)" fill="#009688"/>
  <g id="Group_1" data-name="Group 1" transform="translate(0 -0.014)" opacity="0.2">
    <path id="Path_2" data-name="Path 2" d="M439.1,547.7H310.29a27.94,27.94,0,0,1-27.94-27.94V335.35a27.93,27.93,0,0,1,27.94-27.94H439.1Z" transform="translate(-49.43 -54.77)" fill="#fff" opacity="0.2"/>
  </g>
  <g id="Group_2" data-name="Group 2" transform="translate(0 -0.014)" opacity="0.2">
    <path id="Path_3" data-name="Path 3" d="M1037.87,547.7H909.07V307.41h128.8a27.93,27.93,0,0,1,27.94,27.94V519.76A27.94,27.94,0,0,1,1037.87,547.7Z" transform="translate(-49.43 -54.77)" fill="#fff" opacity="0.2"/>
  </g>
  <g id="Group_3" data-name="Group 3" transform="translate(0 -0.014)" opacity="0.2">
    <rect id="Rectangle_2" data-name="Rectangle 2" width="156.74" height="240.29" transform="translate(702.9 252.63)" fill="#fff" opacity="0.2"/>
  </g>
  <g id="Group_4" data-name="Group 4" transform="translate(0 -0.014)" opacity="0.2">
    <rect id="Rectangle_3" data-name="Rectangle 3" width="156.74" height="240.29" transform="translate(546.16 252.63)" fill="#fff" opacity="0.2"/>
  </g>
  <g id="Group_5" data-name="Group 5" transform="translate(0 -0.014)" opacity="0.2">
    <rect id="Rectangle_4" data-name="Rectangle 4" width="156.74" height="240.29" transform="translate(389.42 252.63)" fill="#009688" opacity="0.2"/>
  </g>
  <path id="Path_4" data-name="Path 4" d="M527.94,413.82a2.27,2.27,0,0,1-2.27-2.27V405a2.27,2.27,0,1,1,4.54,0v6.57a2.27,2.27,0,0,1-2.27,2.25Z" transform="translate(-49.43 -54.784)" fill="#fff"/>
  <path id="Path_5" data-name="Path 5" d="M516.44,418.58a2.26,2.26,0,0,1-1.6-.66l-4.64-4.65a2.27,2.27,0,1,1,3.2-3.21l4.65,4.65a2.27,2.27,0,0,1-1.61,3.87Z" transform="translate(-49.43 -54.784)" fill="#fff"/>
  <path id="Path_6" data-name="Path 6" d="M544.09,446.22a2.28,2.28,0,0,1-1.61-.66l-4.64-4.65a2.27,2.27,0,1,1,3.21-3.2l4.64,4.64a2.27,2.27,0,0,1-1.6,3.87Z" transform="translate(-49.43 -54.784)" fill="#fff"/>
  <path id="Path_7" data-name="Path 7" d="M550.77,430.08H544.2a2.27,2.27,0,1,1,0-4.54h6.57a2.27,2.27,0,1,1,0,4.54Z" transform="translate(-49.43 -54.784)" fill="#fff"/>
  <path id="Path_8" data-name="Path 8" d="M539.44,418.58a2.27,2.27,0,0,1-1.6-3.87l4.64-4.65a2.27,2.27,0,1,1,3.21,3.21l-4.64,4.65A2.3,2.3,0,0,1,539.44,418.58Z" transform="translate(-49.43 -54.784)" fill="#fff"/>
  <path id="Path_9" data-name="Path 9" d="M540,427.81a12,12,0,0,0-21.77-7A16.87,16.87,0,0,0,494,429.89a11.287,11.287,0,1,0-1.27,22.5H523a13.308,13.308,0,0,0,3-.35,13.05,13.05,0,0,0,9.79-15.19,12,12,0,0,0,4.21-9.04Zm-15,19.81a8.079,8.079,0,0,1-2,.23H492.68a6.75,6.75,0,0,1-1.55-13.31,6.861,6.861,0,0,1,1.56-.19,6.6,6.6,0,0,1,2.15.36,2.29,2.29,0,0,0,1.86-.18,2.26,2.26,0,0,0,1.09-1.51,12.34,12.34,0,0,1,22.89-3.45.31.31,0,0,1,.05.1,2.3,2.3,0,0,0,2.07,1.19h.25a8.46,8.46,0,0,1,7.24,4,8.78,8.78,0,0,1,1,2.5,9.19,9.19,0,0,1,.23,1.87A8.51,8.51,0,0,1,525,447.62Zm6.08-18.54a13.2,13.2,0,0,0-7-2.73,16.787,16.787,0,0,0-2.25-2.78A7.469,7.469,0,1,1,534,432.231a13.081,13.081,0,0,0-2.921-3.151Z" transform="translate(-49.43 -54.784)" fill="#fff"/>
  <g id="Group_6" data-name="Group 6" transform="translate(0 -0.014)" opacity="0.5">
    <path id="Path_10" data-name="Path 10" d="M707.44,425a13,13,0,0,0-11.69-10,16.87,16.87,0,0,0-27.63-1A16.87,16.87,0,0,0,653,425.26a11.29,11.29,0,1,0-1.29,22.51H682a13.286,13.286,0,0,0,3-.35,13.05,13.05,0,0,0,8.38-6.34h1.34a13.309,13.309,0,0,0,3-.35A13.06,13.06,0,0,0,707.44,425Zm-19.77,16a8.5,8.5,0,0,1-3.67,2,8.761,8.761,0,0,1-2,.23H651.66a6.75,6.75,0,0,1-1.55-13.32,6.87,6.87,0,0,1,3,0,5.932,5.932,0,0,1,.72.21,2.29,2.29,0,0,0,3-1.7,12.37,12.37,0,0,1,12.08-9.83,11.809,11.809,0,0,1,1.69.12,12.34,12.34,0,0,1,9.17,6.36,2.24,2.24,0,0,0,2.06,1.19H682a8.5,8.5,0,0,1,5.63,14.85Zm9-4.77a8.177,8.177,0,0,1-1.77.23,12.859,12.859,0,0,0-.23-4.81,13,13,0,0,0-11.69-10,16.88,16.88,0,0,0-9.32-7,12.32,12.32,0,0,1,18.74,3.62,2.26,2.26,0,0,0,2.07,1.19h.25a8.5,8.5,0,0,1,2,16.77Z" transform="translate(-49.43 -54.77)" fill="#fff"/>
  </g>
  <g id="Group_7" data-name="Group 7" transform="translate(0 -0.014)" opacity="0.5">
    <path id="Path_11" data-name="Path 11" d="M998,446.46l-1.46-.85,1.46-.84a1.149,1.149,0,0,0-1.13-2l-1.47.85V442a1.14,1.14,0,1,0-2.27,0v1.67l-1.45-.84a1.149,1.149,0,1,0-1.13,2l1.45.83-1.45.84a1.138,1.138,0,0,0,.59,2.12,1,1,0,0,0,.56-.16l1.45-.83v1.69a1.14,1.14,0,0,0,2.27,0v-1.69l1.47.84a1,1,0,0,0,.56.16,1.16,1.16,0,0,0,1-.57,1.14,1.14,0,0,0-.45-1.6Z" transform="translate(-49.43 -54.77)" fill="#fff"/>
    <path id="Path_12" data-name="Path 12" d="M991.17,437l-1.46-.84,1.46-.85a1.134,1.134,0,0,0-1.14-1.96l-1.46.85v-1.68a1.14,1.14,0,0,0-2.27,0v1.67l-1.45-.83a1.149,1.149,0,0,0-1.13,2l1.45.84-1.45.83a1.136,1.136,0,0,0,1.13,1.97l1.45-.84v1.7a1.14,1.14,0,0,0,2.27,0v-1.7L990,439a1.18,1.18,0,0,0,.57.15,1.14,1.14,0,0,0,.57-2.12Z" transform="translate(-49.43 -54.77)" fill="#fff"/>
    <path id="Path_13" data-name="Path 13" d="M984.36,446.46l-1.46-.85,1.46-.84a1.149,1.149,0,0,0-1.13-2l-1.47.85V442a1.14,1.14,0,1,0-2.27,0v1.67l-1.44-.84a1.151,1.151,0,1,0-1.14,2l1.45.83-1.45.84a1.138,1.138,0,0,0,.59,2.12,1.1,1.1,0,0,0,.57-.16l1.44-.83v1.69a1.14,1.14,0,0,0,2.27,0v-1.69l1.47.84a1,1,0,0,0,.56.16,1.14,1.14,0,0,0,.57-2.12Z" transform="translate(-49.43 -54.77)" fill="#fff"/>
    <path id="Path_14" data-name="Path 14" d="M1014.44,422.4a13.05,13.05,0,0,0-11.69-10,16.88,16.88,0,0,0-30.08,3.53,11.29,11.29,0,1,0-1.29,22.51H975a2.27,2.27,0,0,0,0-4.54h-3.65a6.753,6.753,0,0,1-1.56-13.32,6.84,6.84,0,0,1,3.72.17,2.27,2.27,0,0,0,3-1.69,12.34,12.34,0,0,1,22.94-3.35,2.26,2.26,0,0,0,2.06,1.19h.26a8.5,8.5,0,0,1,2,16.77,8.74,8.74,0,0,1-2,.23h-1.89a2.27,2.27,0,1,0,0,4.54h1.89a13,13,0,0,0,12.69-16.05Z" transform="translate(-49.43 -54.77)" fill="#fff"/>
  </g>
  <g id="Group_8" data-name="Group 8" transform="translate(0 -0.014)" opacity="0.5">
    <path id="Path_15" data-name="Path 15" d="M848,436.1a13.29,13.29,0,0,1-3,.35h-5.17a2.27,2.27,0,0,1,0-4.54H845a8.759,8.759,0,0,0,2-.23,8.5,8.5,0,0,0-2-16.77h-.26a2.24,2.24,0,0,1-2.06-1.19,12.35,12.35,0,0,0-23,3.35,2.26,2.26,0,0,1-3,1.69,6.75,6.75,0,1,0-2.16,13.15h7.6a2.27,2.27,0,1,1,0,4.54h-7.6a11.291,11.291,0,1,1,1.29-22.51A16.87,16.87,0,0,1,846,410.41a13,13,0,0,1,2,25.69Z" transform="translate(-49.43 -54.77)" fill="#fff"/>
    <path id="Path_16" data-name="Path 16" d="M782.21,381.09h3.2l-6.85,16.54,1.64-11.92h-3.05l2.41-13.21h6.23Z" fill="#fff"/>
  </g>
  <g id="Group_9" data-name="Group 9" transform="translate(0 -0.014)" opacity="0.5">
    <path id="Path_17" data-name="Path 17" d="M360.72,413.56a2.27,2.27,0,0,1-2.26-2.27v-6.57a2.27,2.27,0,1,1,4.53,0v6.57A2.27,2.27,0,0,1,360.72,413.56Z" transform="translate(-49.43 -54.77)" fill="#fff"/>
    <path id="Path_18" data-name="Path 18" d="M344.46,429.82h-6.57a2.27,2.27,0,0,1,0-4.54h6.57a2.27,2.27,0,0,1,0,4.54Z" transform="translate(-49.43 -54.77)" fill="#fff"/>
    <path id="Path_19" data-name="Path 19" d="M360.72,452.65a2.27,2.27,0,0,1-2.26-2.27v-6.57a2.27,2.27,0,0,1,4.53,0v6.57A2.27,2.27,0,0,1,360.72,452.65Z" transform="translate(-49.43 -54.77)" fill="#fff"/>
    <path id="Path_20" data-name="Path 20" d="M383.55,429.82H377a2.27,2.27,0,0,1,0-4.54h6.56a2.27,2.27,0,1,1,0,4.54Z" transform="translate(-49.43 -54.77)" fill="#fff"/>
    <path id="Path_21" data-name="Path 21" d="M360.72,439.56a12,12,0,1,1,12-12A12,12,0,0,1,360.72,439.56Zm0-19.48a7.47,7.47,0,1,0,7.48,7.47,7.47,7.47,0,0,0-7.48-7.47Z" transform="translate(-49.43 -54.77)" fill="#fff"/>
    <path id="Path_22" data-name="Path 22" d="M349.23,418.32a2.26,2.26,0,0,1-1.61-.66l-2.32-2.32a2.27,2.27,0,1,1,3.21-3.21l2.32,2.32a2.27,2.27,0,0,1-1.6,3.87Z" transform="translate(-49.43 -54.77)" fill="#fff"/>
    <path id="Path_23" data-name="Path 23" d="M346.9,443.64a2.27,2.27,0,0,1-1.6-3.87l2.32-2.32a2.27,2.27,0,1,1,3.21,3.21L348.51,443A2.3,2.3,0,0,1,346.9,443.64Z" transform="translate(-49.43 -54.77)" fill="#fff"/>
    <path id="Path_24" data-name="Path 24" d="M374.55,443.64a2.28,2.28,0,0,1-1.61-.66l-2.32-2.32a2.27,2.27,0,1,1,3.21-3.21l2.32,2.32a2.27,2.27,0,0,1-1.6,3.87Z" transform="translate(-49.43 -54.77)" fill="#fff"/>
    <path id="Path_25" data-name="Path 25" d="M372.22,418.32a2.27,2.27,0,0,1-1.6-3.87l2.32-2.32a2.27,2.27,0,1,1,3.21,3.21l-2.32,2.32a2.28,2.28,0,0,1-1.61.66Z" transform="translate(-49.43 -54.77)" fill="#fff"/>
  </g>
  <rect id="Rectangle_5" data-name="Rectangle 5" width="91.54" height="28" rx="14" transform="translate(265.53 263.086)" fill="#f6f7f9"/>
  <rect id="Rectangle_6" data-name="Rectangle 6" width="91.54" height="28" rx="14" transform="translate(422.14 263.086)" fill="#f6f7f9"/>
  <rect id="Rectangle_7" data-name="Rectangle 7" width="91.54" height="28" rx="14" transform="translate(578.76 263.086)" fill="#f6f7f9"/>
  <rect id="Rectangle_8" data-name="Rectangle 8" width="91.54" height="28" rx="14" transform="translate(735.38 263.086)" fill="#f6f7f9"/>
  <rect id="Rectangle_9" data-name="Rectangle 9" width="91.54" height="28" rx="14" transform="translate(892 263.086)" fill="#f6f7f9"/>
  <ellipse id="Ellipse_4" data-name="Ellipse 4" cx="79.78" cy="12.24" rx="79.78" ry="12.24" transform="translate(728.84 648.557)" fill="#009688" opacity="0.1"/>
  <ellipse id="Ellipse_5" data-name="Ellipse 5" cx="39.46" cy="6.06" rx="39.46" ry="6.06" transform="translate(349.96 778.327)" fill="#009688" opacity="0.1"/>
  <ellipse id="Ellipse_6" data-name="Ellipse 6" cx="39.46" cy="6.06" rx="39.46" ry="6.06" transform="translate(601.64 747.057)" fill="#009688" opacity="0.1"/>
  <ellipse id="Ellipse_7" data-name="Ellipse 7" cx="39.46" cy="6.06" rx="39.46" ry="6.06" transform="translate(419.85 703.317)" fill="#009688" opacity="0.1"/>
  <ellipse id="Ellipse_8" data-name="Ellipse 8" cx="39.46" cy="6.06" rx="39.46" ry="6.06" transform="translate(538.05 666.986)" fill="#009688" opacity="0.1"/>
  <path id="Path_74" data-name="Path 74" d="M1061.5,659s6.64,8.69-3.07,21.8S1040.72,705,1044,713.13c0,0,14.64-24.35,26.57-24.69S1074.61,673.62,1061.5,659Z" transform="translate(-49.43 -54.784)" fill="#009688"/>
  <path id="Path_75" data-name="Path 75" d="M1061.5,659a10.93,10.93,0,0,1,1.36,2.73c11.63,13.66,17.83,26.42,6.64,26.74-10.41.29-22.91,18.92-25.9,23.62a10.322,10.322,0,0,0,.36,1.07s14.64-24.35,26.57-24.69S1074.61,673.62,1061.5,659Z" transform="translate(-49.43 -54.784)" opacity="0.1"/>
  <path id="Path_76" data-name="Path 76" d="M1073.85,670c0,3.06-.35,5.54-.77,5.54s-.77-2.48-.77-5.54.43-1.61.86-1.61S1073.85,667,1073.85,670Z" transform="translate(-49.43 -54.784)" fill="#ffd037"/>
  <path id="Path_77" data-name="Path 77" d="M1078.08,673.69c-2.68,1.47-5,2.35-5.22,2s1.81-1.86,4.49-3.32,1.63-.4,1.83,0S1080.77,672.23,1078.08,673.69Z" transform="translate(-49.43 -54.784)" fill="#ffd037"/>
  <path id="Path_78" data-name="Path 78" d="M1026.41,659s-6.64,8.69,3.07,21.8,17.71,24.2,14.52,32.33c0,0-14.65-24.35-26.57-24.69S1013.3,673.62,1026.41,659Z" transform="translate(-49.43 -54.784)" fill="#009688"/>
  <path id="Path_79" data-name="Path 79" d="M1026.41,659a10.737,10.737,0,0,0-1.35,2.73c-11.63,13.66-17.83,26.42-6.65,26.74,10.41.29,22.91,18.92,25.9,23.62a10.29,10.29,0,0,1-.35,1.07s-14.65-24.35-26.57-24.69S1013.3,673.62,1026.41,659Z" transform="translate(-49.43 -54.784)" opacity="0.1"/>
  <path id="Path_80" data-name="Path 80" d="M1014.07,670c0,3.06.34,5.54.76,5.54s.77-2.48.77-5.54-.43-1.61-.85-1.61S1014.07,667,1014.07,670Z" transform="translate(-49.43 -54.784)" fill="#ffd037"/>
  <path id="Path_81" data-name="Path 81" d="M1009.83,673.69c2.68,1.47,5,2.35,5.23,2s-1.81-1.86-4.5-3.32-1.62-.4-1.82,0S1007.15,672.23,1009.83,673.69Z" transform="translate(-49.43 -54.784)" fill="#ffd037"/>
  <ellipse id="Ellipse_9" data-name="Ellipse 9" cx="69.45" cy="10.66" rx="69.45" ry="10.66" transform="translate(925.08 703.476)" fill="#009688" opacity="0.1"/>
  <path id="Path_82" data-name="Path 82" d="M1079.7,701.43l-.33,2.71-.47,3.83-.19,1.6-.47,3.83-.2,1.6-.46,3.83-5.32,43.56c-.47,3.89-6.83,6.92-14.5,6.92h-27.61c-7.67,0-14-3-14.49-6.92l-5.32-43.56-.47-3.83-.19-1.6-.48-3.83L1009,708l-.46-3.83-.34-2.71c-.26-2.2,3.17-4.06,7.51-4.06h56.48C1076.53,697.37,1080,699.23,1079.7,701.43Z" transform="translate(-49.43 -54.784)" fill="#65617d"/>
  <path id="Path_83" data-name="Path 83" d="M1029.94,649.37l-.47,3.82H959.58l-.46-3.82Z" transform="translate(0 -0.014)" fill="#9d9cb5"/>
  <path id="Path_84" data-name="Path 84" d="M1029.28,654.79l-.46,3.84H960.25l-.47-3.84Z" transform="translate(0 -0.014)" fill="#9d9cb5"/>
  <path id="Path_85" data-name="Path 85" d="M1028.61,660.22l-.46,3.83H960.91l-.46-3.83Z" transform="translate(0 -0.014)" fill="#9d9cb5"/>
</svg>
