<svg xmlns="http://www.w3.org/2000/svg" xmlns:xlink="http://www.w3.org/1999/xlink" width="550" height="550" viewBox="0 0 550 550">
  <defs>
    <clipPath id="clip-Web_1920_1">
      <rect width="550" height="550"/>
    </clipPath>
  </defs>
  <g id="Web_1920_1" data-name="Web 1920 – 1" clip-path="url(#clip-Web_1920_1)">
    <rect width="550" height="550" fill="#fff"/>
    <g id="Group_1" data-name="Group 1" transform="translate(-134.558 96.355)">
      <rect id="Rectangle_1" data-name="Rectangle 1" width="500" height="500" transform="translate(147.558 -63.355)" fill="#fff" opacity="0.97"/>
      <g id="Group_2" data-name="Group 2" transform="translate(163 -35)">
        <path id="Path_2" data-name="Path 2" d="M367.7,335.91s-17.425,20.456-.758,52.528c-103.79,1.01-200.01-14.142-201.78-25.759S288.652,334.9,367.7,335.91Z" transform="translate(-165.144 -151.391)" fill="#333" fill-rule="evenodd"/>
        <path id="Path_3" data-name="Path 3" d="M439.42,362.18a26.012,26.012,0,1,1-26.011-26.264A26.138,26.138,0,0,1,439.42,362.18Z" transform="translate(-167.443 -151.391)" fill="#333"/>
        <path id="Path_5" data-name="Path 5" d="M413.19,414.8s26.424,4.882,45.888-25.575c52.707,89.421,87.627,180.35,78.445,187.68s-85.735-93.119-124.33-162.11Z" transform="translate(-168.473 -153.995)" fill="#333" fill-rule="evenodd"/>
        <path id="Path_6" data-name="Path 6" d="M459.48,337.81s-9.016-25.314-45.126-26.9c50.973-90.42,112.16-166.2,123.11-161.93s-37.623,120.86-77.984,188.83Z" transform="translate(-168.473 -148.812)" fill="#333" fill-rule="evenodd"/>
      </g>
    </g>
  </g>
</svg>
