<svg xmlns="http://www.w3.org/2000/svg" width="380.6" height="575.461" viewBox="0 0 380.6 575.461">
  <g id="wind-energy-2029621" transform="translate(-57.702 -148.812)">
    <path id="Path_1" data-name="Path 1" d="M539.452,470.12c-11.471-8.059-21.723-28.891-25.485-51.786-4.19-25.5.754-72.885,10.379-99.467,13.021-35.96,42.118-63.367,73.548-69.278,37.615-7.074,61.53,14.25,109.761,97.876,12.868,22.31,26.257,43.546,34.488,54.7,28.987,39.279,51.863,44.42,82.7,18.585,24.776-20.759,38.439-49.481,43.929-92.35,2.35-18.348,2.693-33.99,1.229-55.995-.555-8.34-.674-15.527-.266-15.971,2.457-2.671,6.591,20.691,7.747,43.768,1.857,37.1-4.053,73.049-16.505,100.41-11.955,26.266-33.786,50.17-55.141,60.377-12.1,5.784-21.116,6.131-34.5,1.331-23.615-8.471-38.694-25.632-79.195-90.132-12.371-19.7-26.671-41.577-31.78-48.616-25.985-35.8-45.716-43.7-76.193-30.47-25.838,11.212-45.043,42.035-49.859,80.018-4.456,35.151,2.319,60.646,19.2,72.242,13.956,9.588,32.608.164,39.08-19.746,7.584-23.331,5.121-49.723-5.871-62.922-8.684-10.427-24.236-9.53-31.114,1.795-5.673,9.34-6.041,27.8-.729,36.559,3.191,5.259,9.634,6.74,14.2,3.265,3.931-2.991,5.142-1.232,2.537,3.685-6.094,11.507-18.293,9.128-24.2-4.719-4.563-10.7-5.507-18.7-3.8-32.236,1.23-9.753,1.953-12.41,4.794-17.611,6.748-12.357,15.605-18.046,27.87-17.9,19,.226,34.356,25.13,36.091,58.535,1.091,21.011-2.115,41.46-8.828,56.3-4.225,9.34-16.887,23.445-24.171,26.926-9.722,4.646-27.7,1.42-39.915-7.165Zm209.1,51.4c-28.906-18.589-46.472-43.991-73.767-106.68-23.53-54.043-35.867-71.757-58.368-83.806-3.3-1.765-6.125-3.84-6.288-4.611-1.337-6.351,14.919-3,26.342,5.423,16.59,12.241,27.785,28.828,53.126,78.717,20.494,40.346,30.882,56.737,44.738,70.585,28.361,28.347,63.944,30.957,92.707,6.8,21.6-18.14,42.981-53.854,59.049-98.631,2.21-6.158,4.806-12.053,5.769-13.1,1.6-1.739,1.6-1.195.044,6.267-.939,4.494-2.739,13.2-4,19.35-4.035,19.674-15.232,48.452-27.123,69.713-26.9,48.1-60.64,67.084-98.182,55.258-6.279-1.978-12.6-4.358-14.05-5.289ZM762.1,392.23c-17.617-12.6-32.549-32.429-59.144-78.545-22.953-39.8-34.806-57.145-49.226-72.034-23.746-24.519-48.927-26.644-78.631-6.636-8.969,6.041-13.3,9.683-29.015,24.4-4.235,3.965-8.1,7.064-8.584,6.887-5.236-1.906,19.7-32.615,37.945-46.726,32.183-24.894,62.153-20.9,91.355,12.178,12.592,14.265,22,28.7,47.422,72.748,33.308,57.715,46.31,73.682,66,81.049,12.371,4.629,21.3,4.019,34.771-2.377,10.116-4.8,11.3-4.98,10.873-1.617-.542,4.232-14.451,13.952-24.523,17.137a44.483,44.483,0,0,1-39.237-6.458Z" transform="translate(-454.766)" fill="none"/>
    <g id="Group_1" data-name="Group 1" transform="translate(60.395 148.812)">
      <path id="Path_2" data-name="Path 2" d="M367.7,335.91s-17.425,20.456-.758,52.528c-103.79,1.01-200.01-14.142-201.78-25.759S288.652,334.9,367.7,335.91Z" transform="translate(-165.144 -168.75)" fill="#333" fill-rule="evenodd"/>
      <path id="Path_3" data-name="Path 3" d="M439.42,362.18a26.012,26.012,0,1,1-26.011-26.264A26.138,26.138,0,0,1,439.42,362.18Z" transform="translate(-165.144 -168.753)" fill="#333"/>
      <path id="Path_4" data-name="Path 4" d="M387.14,423.08l52.143,84.853v278.72H387.14Z" transform="translate(-165.144 -211.192)" fill="#333"/>
      <path id="Path_5" data-name="Path 5" d="M413.19,414.8s26.424,4.882,45.888-25.575c52.707,89.421,87.627,180.35,78.445,187.68s-85.735-93.119-124.33-162.11Z" transform="translate(-165.144 -182.155)" fill="#333" fill-rule="evenodd"/>
      <path id="Path_6" data-name="Path 6" d="M459.48,337.81s-9.016-25.314-45.126-26.9c50.973-90.42,112.16-166.2,123.11-161.93s-37.623,120.86-77.984,188.83Z" transform="translate(-165.144 -148.812)" fill="#333" fill-rule="evenodd"/>
      <path id="Path_7" data-name="Path 7" d="M387.14,423.08l52.143,84.853v278.72H387.14Z" transform="translate(-165.144 -211.192)" fill="#fff"/>
    </g>
  </g>
</svg>
