<svg xmlns="http://www.w3.org/2000/svg" xmlns:xlink="http://www.w3.org/1999/xlink" width="182.109" height="234.541" viewBox="0 0 182.109 234.541">
  <defs>
    <linearGradient id="linear-gradient" x1="-3.582" y1="-0.369" x2="-3.579" y2="-0.369" gradientUnits="objectBoundingBox">
      <stop offset="0" stop-color="#212121" stop-opacity="0.616"/>
      <stop offset="1" stop-color="#4d4d4d" stop-opacity="0"/>
    </linearGradient>
  </defs>
  <g id="Group_72" data-name="Group 72" transform="translate(-142.549 -47.898)">
    <path id="Path_92" data-name="Path 92" d="M142.552,206.4V65.036A17.136,17.136,0,0,1,159.689,47.9H254l70.657,70.657V220.733h-182.1V206.4Z" fill="#0692c1" fill-rule="evenodd"/>
    <g id="Group_67" data-name="Group 67" transform="translate(0 36.348)">
      <path id="Path_93" data-name="Path 93" d="M324.649,184.384v47.8c0,7.681-7.671,13.907-17.135,13.907H159.685c-9.464,0-17.136-6.225-17.136-13.907v-47.8h182.1Z" fill="#0a729b" fill-rule="evenodd"/>
    </g>
    <g id="Group_68" data-name="Group 68" transform="translate(0.738)">
      <path id="Path_94" data-name="Path 94" d="M253.222,47.9h.032l70.666,70.666v59.087a.989.989,0,0,1-1.26-.1c-3.346-3.346-66.255-61.924-66.255-66.656,0-20.81-3.144-62.5-3.183-63Z" fill-rule="evenodd" fill="url(#linear-gradient)"/>
    </g>
    <g id="Group_69" data-name="Group 69" transform="translate(0.738)">
      <path id="Path_95" data-name="Path 95" d="M253.222,47.9h.032l70.666,70.666H271.062a17.842,17.842,0,0,1-17.84-17.84V47.9Z" fill="#0a729b" fill-rule="evenodd"/>
    </g>
    <g id="Group_70" data-name="Group 70" transform="translate(0 10.033)">
      <path id="Path_96" data-name="Path 96" d="M218.838,224.16v10.45a14.381,14.381,0,0,0-3.919-3.2,8.933,8.933,0,0,0-4.182-1.017,8.582,8.582,0,0,0-6.675,2.816,10.521,10.521,0,0,0-2.552,7.347,9.844,9.844,0,0,0,2.6,7,8.676,8.676,0,0,0,6.627,2.78,8.908,8.908,0,0,0,4.182-1.019,14.171,14.171,0,0,0,3.919-3.224v10.475a23.046,23.046,0,0,1-4.53,1.654,19.114,19.114,0,0,1-4.553.551,19.584,19.584,0,0,1-5.309-.684,15.129,15.129,0,0,1-4.47-2.073,17.627,17.627,0,0,1-5.992-6.638,19.394,19.394,0,0,1-2.061-9.012,19.716,19.716,0,0,1,1.306-7.322,17.9,17.9,0,0,1,3.943-5.981,16.4,16.4,0,0,1,5.62-3.834,18.342,18.342,0,0,1,6.962-1.27,19.093,19.093,0,0,1,4.553.551,22.874,22.874,0,0,1,4.53,1.653Z" fill="#fff"/>
      <path id="Path_97" data-name="Path 97" d="M225.788,246.539a17.363,17.363,0,0,0,4.207,3.62,8.192,8.192,0,0,0,4.134,1.2,4.753,4.753,0,0,0,3.151-1.031,3.259,3.259,0,0,0,1.235-2.612,3.412,3.412,0,0,0-1.067-2.7q-1.067-.948-4.83-1.955-5.151-1.39-7.285-3.618a8.474,8.474,0,0,1-2.133-6.112,10.773,10.773,0,0,1,3.367-8.208,12.214,12.214,0,0,1,8.735-3.176,19.063,19.063,0,0,1,5.5.779,17.8,17.8,0,0,1,4.925,2.36l-2.995,6.878a12.645,12.645,0,0,0-3.344-2.1,8.839,8.839,0,0,0-3.391-.707,4.49,4.49,0,0,0-2.8.827,2.566,2.566,0,0,0-1.078,2.123,2.607,2.607,0,0,0,.947,2.109,10.258,10.258,0,0,0,3.654,1.509l.433.12q5.848,1.583,7.693,3.475a8.588,8.588,0,0,1,1.892,3.1,11.824,11.824,0,0,1,.648,4.014,11.642,11.642,0,0,1-3.665,8.975q-3.67,3.391-9.78,3.391a17.262,17.262,0,0,1-6.674-1.246,18.926,18.926,0,0,1-5.788-3.905l4.314-7.12Z" fill="#fff"/>
      <path id="Path_98" data-name="Path 98" d="M254.309,246.539a17.319,17.319,0,0,0,4.2,3.62,8.2,8.2,0,0,0,4.134,1.2,4.749,4.749,0,0,0,3.151-1.031,3.253,3.253,0,0,0,1.235-2.612,3.418,3.418,0,0,0-1.065-2.7q-1.067-.948-4.83-1.955-5.155-1.39-7.285-3.618a8.472,8.472,0,0,1-2.134-6.112,10.78,10.78,0,0,1,3.366-8.208,12.22,12.22,0,0,1,8.737-3.176,19.085,19.085,0,0,1,5.5.779,17.8,17.8,0,0,1,4.925,2.36l-3,6.878a12.573,12.573,0,0,0-3.344-2.1,8.839,8.839,0,0,0-3.391-.707,4.483,4.483,0,0,0-2.8.827,2.56,2.56,0,0,0-1.078,2.123,2.612,2.612,0,0,0,.945,2.109,10.274,10.274,0,0,0,3.656,1.509l.43.12q5.848,1.583,7.693,3.475a8.561,8.561,0,0,1,1.894,3.1,11.879,11.879,0,0,1,.648,4.014,11.644,11.644,0,0,1-3.668,8.975q-3.666,3.391-9.777,3.391a17.274,17.274,0,0,1-6.676-1.246,18.96,18.96,0,0,1-5.788-3.905l4.316-7.12Z" fill="#fff"/>
    </g>
    <g id="Group_71" data-name="Group 71" transform="translate(-301.293 115.923)">
      <path id="Path_99" data-name="Path 99" d="M515.521,11.3v9.717q-.279,0-.843-.04c-.374-.027-.642-.04-.8-.04q-3.935,0-5.3,1.423t-1.365,5.873v9.621q0,5.626-1.855,8.037t-6.648,3.416q4.833.964,6.669,3.315t1.834,8.017v9.7q0,4.41,1.345,5.812t5.24,1.4c.188,0,.474-.013.863-.04s.677-.04.863-.04v9.717q-.6,0-1.689.04t-1.611.04A44.9,44.9,0,0,1,505,86.792a16.275,16.275,0,0,1-4.809-1.485,7.1,7.1,0,0,1-3.319-3.552q-.944-2.268-.945-7.726V63.766q0-5.332-1.987-7.517t-6.767-2.185c-.108,0-.335.014-.683.04s-.6.04-.763.04V44.428c.162,0,.4.013.724.04s.562.04.722.04q4.739,0,6.745-2.225t2.009-7.557V24.545q0-5.459.965-7.766a7.216,7.216,0,0,1,3.3-3.592A16.312,16.312,0,0,1,505.04,11.7a45.736,45.736,0,0,1,7.264-.482q.48,0,1.548.04t1.669.04Z" fill="#fff"/>
      <path id="Path_100" data-name="Path 100" d="M530.551,38.525A7.7,7.7,0,0,1,532.9,32.8a8.371,8.371,0,0,1,11.524-.02,7.752,7.752,0,0,1,2.31,5.742,7.917,7.917,0,0,1-2.329,5.8,8.169,8.169,0,0,1-11.485-.02A7.869,7.869,0,0,1,530.551,38.525Zm.882,18.752h14.978L534,82.453H522.88Z" fill="#fff"/>
      <path id="Path_101" data-name="Path 101" d="M554.274,11.3q.6,0,1.667-.04t1.544-.04a45.172,45.172,0,0,1,7.229.482,16.8,16.8,0,0,1,4.859,1.485,7.3,7.3,0,0,1,3.311,3.592q.986,2.308.984,7.766V34.728q0,5.372,1.977,7.577t6.773,2.2c.16,0,.4-.014.724-.04s.564-.04.727-.04v9.717q-.243,0-.727-.04c-.322-.027-.564-.04-.724-.04q-4.8,0-6.773,2.205t-1.977,7.5V74.028q0,5.5-.984,7.807a7.107,7.107,0,0,1-3.311,3.552,14.987,14.987,0,0,1-4.559,1.425,44.609,44.609,0,0,1-7.128.461c-.374,0-.964-.013-1.767-.04s-1.419-.04-1.847-.04V77.475c.24,0,.549.013.923.04s.642.04.8.04q3.9,0,5.242-1.383t1.345-5.833v-9.7q0-5.626,1.847-8t6.626-3.335q-4.82-1-6.645-3.375t-1.827-8.077V28.233q0-4.449-1.345-5.873t-5.08-1.423c-.188,0-.489.013-.9.04s-.744.04-.984.04V11.3Z" fill="#fff"/>
    </g>
  </g>
</svg>
