<svg xmlns="http://www.w3.org/2000/svg" width="1015.434" height="660.405" viewBox="0 0 1015.434 660.405">
  <g id="dual-screen-1745705" transform="translate(296.98 64.867)">
    <path id="Path_136" data-name="Path 136" d="M0,0H1015.434V660.4H0Z" transform="translate(-296.98 -64.867)" fill="none"/>
    <path id="Path_1" data-name="Path 1" d="M-77.17,439.68H-8.806V546.96c-21.427-1.21-43.706,2.173-68.364,0Z" transform="translate(-1.582 -20.435)" fill="#4d4d4d" fill-rule="evenodd"/>
    <path id="Path_2" data-name="Path 2" d="M-77.17,439.68H-8.806V496.2c-21.427-.638-43.706,1.145-68.364,0Z" transform="translate(-1.582 -16.525)" fill="#333" fill-rule="evenodd"/>
    <rect id="Rectangle_2" data-name="Rectangle 2" width="453.18" height="346.4" transform="translate(-216.38 466.19) rotate(-90)" fill="#c5e1a5"/>
    <rect id="Rectangle_3" data-name="Rectangle 3" width="453.18" height="273.66" transform="translate(-180.01 466.19) rotate(-90)" fill="#fff"/>
    <g id="Group_1" data-name="Group 1" transform="translate(50.712 21.965)">
      <circle id="Ellipse_1" data-name="Ellipse 1" cx="4.719" cy="4.719" r="4.719" transform="translate(26.743)" fill="#7986cb"/>
      <circle id="Ellipse_2" data-name="Ellipse 2" cx="4.719" cy="4.719" r="4.719" transform="translate(13.214)" fill="#7986cb"/>
      <circle id="Ellipse_3" data-name="Ellipse 3" cx="4.719" cy="4.719" r="4.719" fill="#7986cb"/>
    </g>
    <path id="Path_3" data-name="Path 3" d="M-229.27,491.076H143.391V6.43H-229.27Zm19.259-23.774V26.642h332.6V468.035Z" fill="#4d4d4d" fill-rule="evenodd"/>
    <path id="Path_4" data-name="Path 4" d="M-147.71,553.66H61.74c1.136,0,2.475-.367,2.051-.756l-10.251-9.38c-.424-.388-4.759-.756-5.895-.756h-181.26c-1.136,0-5.47.367-5.9.756l-10.251,9.38C-150.185,553.293-148.846,553.66-147.71,553.66Z" transform="translate(0 -20.435)" fill="#424242" fill-rule="evenodd"/>
    <rect id="Rectangle_4" data-name="Rectangle 4" width="140.42" height="11.065" transform="translate(-163.58 41.953)" fill="#ff8f00"/>
    <rect id="Rectangle_5" data-name="Rectangle 5" width="30.618" height="6.346" transform="translate(-156.03 80.819)" fill="#26c6da"/>
    <path id="Path_5" data-name="Path 5" d="M-155.908,91.693c-.216.155-2.044-1.129-2.257-1.291s-1.9-1.545-1.894-1.857,1.761-1.779,1.973-1.943,1.961-1.407,2.161-1.243a15.9,15.9,0,0,1,.284,3.234,14.6,14.6,0,0,1-.268,3.1Z" transform="translate(0 -4.551)" fill="#26c6da"/>
    <path id="Path_6" data-name="Path 6" d="M-125.468,91.693c.216.155,2.044-1.129,2.257-1.291s1.9-1.545,1.894-1.857-1.761-1.779-1.973-1.943-1.961-1.407-2.161-1.243a15.9,15.9,0,0,0-.284,3.234,14.6,14.6,0,0,0,.268,3.1Z" transform="translate(0 -4.551)" fill="#26c6da"/>
    <rect id="Rectangle_6" data-name="Rectangle 6" width="30.618" height="6.346" transform="translate(-139.04 92.717)" fill="#26c6da"/>
    <path id="Path_7" data-name="Path 7" d="M-138.918,103.963c-.216.155-2.044-1.129-2.257-1.291s-1.9-1.545-1.894-1.857,1.761-1.779,1.973-1.943,1.961-1.407,2.161-1.243a15.9,15.9,0,0,1,.284,3.234,14.6,14.6,0,0,1-.268,3.1Z" transform="translate(0 -4.923)" fill="#26c6da"/>
    <path id="Path_8" data-name="Path 8" d="M-108.478,103.963c.216.155,2.044-1.129,2.257-1.291s1.9-1.545,1.894-1.857-1.761-1.779-1.973-1.943-1.961-1.407-2.161-1.243a15.9,15.9,0,0,0-.284,3.234,14.6,14.6,0,0,0,.268,3.1Z" transform="translate(0 -4.923)" fill="#26c6da"/>
    <rect id="Rectangle_7" data-name="Rectangle 7" width="30.618" height="6.346" transform="translate(-125.83 104.004)" fill="#26c6da"/>
    <path id="Path_9" data-name="Path 9" d="M-125.7,115.6c-.216.155-2.044-1.129-2.257-1.291s-1.9-1.545-1.894-1.857,1.761-1.779,1.973-1.943,1.961-1.407,2.161-1.243a15.9,15.9,0,0,1,.284,3.234,14.6,14.6,0,0,1-.268,3.1Z" transform="translate(0 -5.276)" fill="#26c6da"/>
    <path id="Path_10" data-name="Path 10" d="M-95.268,115.6c.216.155,2.044-1.129,2.257-1.291s1.9-1.545,1.894-1.857-1.761-1.779-1.973-1.943-1.961-1.407-2.161-1.243a15.9,15.9,0,0,0-.284,3.234,14.6,14.6,0,0,0,.268,3.1Z" transform="translate(-1.359 -5.276)" fill="#26c6da"/>
    <rect id="Rectangle_8" data-name="Rectangle 8" width="30.618" height="6.346" transform="translate(-125.51 115.601)" fill="#26c6da"/>
    <path id="Path_11" data-name="Path 11" d="M-125.389,127.559c-.216.155-2.044-1.129-2.257-1.291s-1.9-1.545-1.894-1.857,1.761-1.779,1.973-1.943,1.961-1.407,2.161-1.243a15.9,15.9,0,0,1,.284,3.234,14.6,14.6,0,0,1-.268,3.1Z" transform="translate(0 -5.638)" fill="#26c6da"/>
    <path id="Path_12" data-name="Path 12" d="M-94.958,127.559c.216.155,2.044-1.129,2.257-1.291s1.9-1.545,1.894-1.857-1.761-1.779-1.973-1.943-1.961-1.407-2.161-1.243a15.9,15.9,0,0,0-.284,3.234,14.6,14.6,0,0,0,.268,3.1Z" transform="translate(-1.361 -5.638)" fill="#26c6da"/>
    <rect id="Rectangle_9" data-name="Rectangle 9" width="30.618" height="6.346" transform="translate(-125.2 126.889)" fill="#26c6da"/>
    <path id="Path_13" data-name="Path 13" d="M-125.075,139.2c-.216.155-2.044-1.129-2.257-1.291s-1.9-1.545-1.894-1.857,1.761-1.779,1.973-1.943,1.961-1.407,2.161-1.243a15.9,15.9,0,0,1,.284,3.234,14.6,14.6,0,0,1-.268,3.1Z" transform="translate(0 -5.99)" fill="#26c6da"/>
    <path id="Path_14" data-name="Path 14" d="M-94.638,139.2c.216.155,2.044-1.129,2.257-1.291s1.9-1.545,1.894-1.857-1.761-1.779-1.973-1.943-1.961-1.407-2.161-1.243a15.9,15.9,0,0,0-.284,3.234,14.6,14.6,0,0,0,.268,3.1Z" transform="translate(-1.363 -5.99)" fill="#26c6da"/>
    <rect id="Rectangle_10" data-name="Rectangle 10" width="30.618" height="6.346" transform="translate(-125.2 138.477)" fill="#26c6da"/>
    <path id="Path_15" data-name="Path 15" d="M-125.075,151.159c-.216.155-2.044-1.129-2.257-1.291s-1.9-1.545-1.894-1.857,1.761-1.779,1.973-1.943,1.961-1.407,2.161-1.243a15.9,15.9,0,0,1,.284,3.234,14.6,14.6,0,0,1-.268,3.1Z" transform="translate(0 -6.353)" fill="#26c6da"/>
    <path id="Path_16" data-name="Path 16" d="M-94.638,151.159c.216.155,2.044-1.129,2.257-1.291s1.9-1.545,1.894-1.857-1.761-1.779-1.973-1.943-1.961-1.407-2.161-1.243a15.9,15.9,0,0,0-.284,3.234,14.6,14.6,0,0,0,.268,3.1Z" transform="translate(-1.363 -6.353)" fill="#26c6da"/>
    <rect id="Rectangle_11" data-name="Rectangle 11" width="30.618" height="6.346" transform="translate(-125.2 179.359)" fill="#26c6da"/>
    <path id="Path_17" data-name="Path 17" d="M-125.075,193.319c-.216.155-2.044-1.129-2.257-1.291s-1.9-1.545-1.894-1.857,1.761-1.779,1.973-1.943,1.961-1.407,2.161-1.243a15.9,15.9,0,0,1,.284,3.234,14.6,14.6,0,0,1-.268,3.1Z" transform="translate(0 -7.63)" fill="#26c6da"/>
    <path id="Path_18" data-name="Path 18" d="M-94.638,193.319c.216.155,2.044-1.129,2.257-1.291s1.9-1.545,1.894-1.857-1.761-1.779-1.973-1.943-1.961-1.407-2.161-1.243a15.9,15.9,0,0,0-.284,3.234,14.6,14.6,0,0,0,.268,3.1Z" transform="translate(-1.363 -7.63)" fill="#26c6da"/>
    <rect id="Rectangle_12" data-name="Rectangle 12" width="30.618" height="6.346" transform="translate(-123.94 190.957)" fill="#26c6da"/>
    <path id="Path_19" data-name="Path 19" d="M-123.816,205.269c-.216.155-2.044-1.129-2.257-1.291s-1.9-1.545-1.894-1.857,1.761-1.779,1.973-1.943,1.961-1.407,2.161-1.243a15.9,15.9,0,0,1,.284,3.234,14.6,14.6,0,0,1-.268,3.1Z" transform="translate(0 -7.992)" fill="#26c6da"/>
    <path id="Path_20" data-name="Path 20" d="M-93.378,205.269c.216.155,2.044-1.129,2.257-1.291s1.9-1.545,1.894-1.857-1.761-1.779-1.973-1.943-1.961-1.407-2.161-1.243a15.9,15.9,0,0,0-.284,3.234,14.6,14.6,0,0,0,.268,3.1Z" transform="translate(-1.371 -7.992)" fill="#26c6da"/>
    <rect id="Rectangle_13" data-name="Rectangle 13" width="30.618" height="6.346" transform="translate(-139.04 203.767)" fill="#26c6da"/>
    <path id="Path_21" data-name="Path 21" d="M-138.918,218.489c-.216.155-2.044-1.129-2.257-1.291s-1.9-1.545-1.894-1.857,1.761-1.779,1.973-1.943,1.961-1.407,2.161-1.243a15.9,15.9,0,0,1,.284,3.234,14.6,14.6,0,0,1-.268,3.1Z" transform="translate(0 -8.393)" fill="#26c6da"/>
    <path id="Path_22" data-name="Path 22" d="M-108.478,218.489c.216.155,2.044-1.129,2.257-1.291s1.9-1.545,1.894-1.857-1.761-1.779-1.973-1.943-1.961-1.407-2.161-1.243a15.9,15.9,0,0,0-.284,3.234,14.6,14.6,0,0,0,.268,3.1Z" transform="translate(0 -8.393)" fill="#26c6da"/>
    <rect id="Rectangle_14" data-name="Rectangle 14" width="30.618" height="6.346" transform="translate(-139.04 219.03)" fill="#26c6da"/>
    <path id="Path_23" data-name="Path 23" d="M-138.918,234.219c-.216.155-2.044-1.129-2.257-1.291s-1.9-1.545-1.894-1.857,1.761-1.779,1.973-1.943,1.961-1.407,2.161-1.243a15.9,15.9,0,0,1,.284,3.234,14.6,14.6,0,0,1-.268,3.1Z" transform="translate(0 -8.869)" fill="#26c6da"/>
    <path id="Path_24" data-name="Path 24" d="M-108.478,234.219c.216.155,2.044-1.129,2.257-1.291s1.9-1.545,1.894-1.857-1.761-1.779-1.973-1.943-1.961-1.407-2.161-1.243a15.9,15.9,0,0,0-.284,3.234,14.6,14.6,0,0,0,.268,3.1Z" transform="translate(0 -8.869)" fill="#26c6da"/>
    <rect id="Rectangle_15" data-name="Rectangle 15" width="146.66" height="6.346" transform="translate(-84.164 138.477)" fill="#ccc"/>
    <path id="Path_25" data-name="Path 25" d="M-82.36,151.159c-.216.155-2.044-1.129-2.257-1.291s-1.9-1.545-1.894-1.857,1.761-1.779,1.973-1.943,1.961-1.407,2.161-1.243a15.9,15.9,0,0,1,.284,3.234,14.6,14.6,0,0,1-.268,3.1Z" transform="translate(-1.42 -6.353)" fill="#ccc"/>
    <path id="Path_26" data-name="Path 26" d="M63.856,151.159c.216.155,2.044-1.129,2.257-1.291s1.9-1.545,1.894-1.857-1.761-1.779-1.973-1.943-1.961-1.407-2.161-1.243a15.9,15.9,0,0,0-.284,3.234,14.6,14.6,0,0,0,.268,3.1Z" transform="translate(-2.432 -6.353)" fill="#ccc"/>
    <rect id="Rectangle_16" data-name="Rectangle 16" width="188.36" height="6.346" transform="translate(-125.87 149.463)" fill="#ccc"/>
    <path id="Path_27" data-name="Path 27" d="M-124.289,162.479c-.277.155-2.623-1.129-2.9-1.291s-2.438-1.545-2.43-1.857,2.259-1.779,2.532-1.943,2.516-1.407,2.773-1.243.364,2.909.365,3.234-.077,2.952-.343,3.1Z" transform="translate(0 -6.696)" fill="#ccc"/>
    <path id="Path_28" data-name="Path 28" d="M63.31,162.479c.277.155,2.623-1.129,2.9-1.291s2.438-1.545,2.43-1.857-2.259-1.779-2.532-1.943-2.516-1.407-2.773-1.243-.364,2.909-.365,3.234.077,2.952.343,3.1Z" transform="translate(-2.431 -6.696)" fill="#ccc"/>
    <rect id="Rectangle_17" data-name="Rectangle 17" width="188.36" height="6.346" transform="translate(-125.87 159.839)" fill="#ccc"/>
    <path id="Path_29" data-name="Path 29" d="M-124.289,173.179c-.277.155-2.623-1.129-2.9-1.291s-2.438-1.545-2.43-1.857,2.259-1.779,2.532-1.943,2.516-1.407,2.773-1.243.364,2.909.365,3.234-.077,2.952-.343,3.1Z" transform="translate(0 -7.02)" fill="#ccc"/>
    <path id="Path_30" data-name="Path 30" d="M63.31,173.179c.277.155,2.623-1.129,2.9-1.291s2.438-1.545,2.43-1.857-2.259-1.779-2.532-1.943-2.516-1.407-2.773-1.243-.364,2.909-.365,3.234.077,2.952.343,3.1Z" transform="translate(-2.431 -7.02)" fill="#ccc"/>
    <rect id="Rectangle_18" data-name="Rectangle 18" width="166.84" height="6.346" transform="translate(-126.42 169.294)" fill="#ccc"/>
    <path id="Path_31" data-name="Path 31" d="M-124.9,182.929c-.246.155-2.323-1.129-2.565-1.291s-2.16-1.545-2.152-1.857,2-1.779,2.242-1.943,2.228-1.407,2.456-1.243a14.046,14.046,0,0,1,.323,3.234,12.9,12.9,0,0,1-.3,3.1Z" transform="translate(0 -7.315)" fill="#ccc"/>
    <path id="Path_32" data-name="Path 32" d="M41.264,182.929c.246.155,2.323-1.129,2.565-1.291s2.16-1.545,2.152-1.857-2-1.779-2.242-1.943-2.228-1.407-2.456-1.243a14.046,14.046,0,0,0-.323,3.234,12.9,12.9,0,0,0,.3,3.1Z" transform="translate(-2.281 -7.315)" fill="#ccc"/>
    <rect id="Rectangle_19" data-name="Rectangle 19" width="30.618" height="6.346" transform="translate(-83.268 115.291)" fill="#ff7043"/>
    <path id="Path_33" data-name="Path 33" d="M-81.657,127.249c-.216.155-2.044-1.129-2.257-1.291s-1.9-1.545-1.894-1.857,1.761-1.779,1.973-1.943,1.961-1.407,2.161-1.243a15.9,15.9,0,0,1,.284,3.234,14.6,14.6,0,0,1-.268,3.1Z" transform="translate(-1.424 -5.628)" fill="#ff7043"/>
    <path id="Path_34" data-name="Path 34" d="M-51.218,127.249c.216.155,2.044-1.129,2.257-1.291s1.9-1.545,1.894-1.857-1.761-1.779-1.973-1.943S-51,120.751-51.2,120.914a15.9,15.9,0,0,0-.284,3.234,14.6,14.6,0,0,0,.268,3.1Z" transform="translate(-1.656 -5.628)" fill="#ff7043"/>
    <rect id="Rectangle_20" data-name="Rectangle 20" width="30.618" height="6.346" transform="translate(-7.344 115.291)" fill="#ff7043"/>
    <path id="Path_35" data-name="Path 35" d="M-5.2,127.249c-.216.155-2.044-1.129-2.257-1.291s-1.9-1.545-1.894-1.857,1.761-1.779,1.973-1.943,1.961-1.407,2.161-1.243a15.9,15.9,0,0,1,.284,3.234,14.6,14.6,0,0,1-.268,3.1Z" transform="translate(-1.94 -5.628)" fill="#ff7043"/>
    <path id="Path_36" data-name="Path 36" d="M25.232,127.249c.216.155,2.044-1.129,2.257-1.291s1.9-1.545,1.894-1.857-1.761-1.779-1.973-1.943-1.961-1.407-2.161-1.243a15.9,15.9,0,0,0-.284,3.234,14.6,14.6,0,0,0,.268,3.1Z" transform="translate(-2.172 -5.628)" fill="#ff7043"/>
    <rect id="Rectangle_21" data-name="Rectangle 21" width="30.618" height="6.346" transform="translate(33.274 115.291)" fill="#26c6da"/>
    <path id="Path_37" data-name="Path 37" d="M35.7,127.249c-.216.155-2.044-1.129-2.257-1.291s-1.9-1.545-1.894-1.857,1.761-1.779,1.973-1.943,1.961-1.407,2.161-1.243a15.9,15.9,0,0,1,.284,3.234,14.6,14.6,0,0,1-.268,3.1Z" transform="translate(-2.216 -5.628)" fill="#26c6da"/>
    <path id="Path_38" data-name="Path 38" d="M66.132,127.249c.216.155,2.044-1.129,2.257-1.291s1.9-1.545,1.894-1.857-1.761-1.779-1.973-1.943-1.961-1.407-2.161-1.243a15.9,15.9,0,0,0-.284,3.234,14.6,14.6,0,0,0,.268,3.1Z" transform="translate(-2.447 -5.628)" fill="#26c6da"/>
    <rect id="Rectangle_22" data-name="Rectangle 22" width="25.644" height="6.346" transform="translate(-42.354 115.291)" fill="#ccc"/>
    <path id="Path_39" data-name="Path 39" d="M-40.486,127.249c-.181.155-1.712-1.129-1.891-1.291s-1.592-1.545-1.586-1.857,1.475-1.779,1.653-1.943,1.642-1.407,1.81-1.243a18.9,18.9,0,0,1,.238,3.234,17.361,17.361,0,0,1-.224,3.1Z" transform="translate(-1.705 -5.628)" fill="#ccc"/>
    <path id="Path_40" data-name="Path 40" d="M-15,127.249c.181.155,1.712-1.129,1.891-1.291s1.592-1.545,1.586-1.857-1.475-1.779-1.653-1.943-1.642-1.407-1.81-1.243a18.9,18.9,0,0,0-.238,3.234,17.361,17.361,0,0,0,.224,3.1Z" transform="translate(-1.899 -5.628)" fill="#ccc"/>
    <rect id="Rectangle_23" data-name="Rectangle 23" width="50.282" height="6.346" transform="translate(-97.356 203.767)" fill="#ff7043"/>
    <path id="Path_41" data-name="Path 41" d="M-95.815,218.489c-.216.155-2.044-1.129-2.257-1.291s-1.9-1.545-1.894-1.857,1.761-1.779,1.973-1.943,1.961-1.407,2.161-1.243a15.9,15.9,0,0,1,.284,3.234,14.6,14.6,0,0,1-.268,3.1Z" transform="translate(0 -8.393)" fill="#ff7043"/>
    <path id="Path_42" data-name="Path 42" d="M-45.878,218.489c.216.155,2.044-1.129,2.257-1.291s1.9-1.545,1.894-1.857-1.761-1.779-1.973-1.943-1.961-1.407-2.161-1.243a15.9,15.9,0,0,0-.284,3.234,14.6,14.6,0,0,0,.268,3.1Z" transform="translate(-1.692 -8.393)" fill="#ff7043"/>
    <rect id="Rectangle_24" data-name="Rectangle 24" width="50.282" height="6.346" transform="translate(-96.887 218.419)" fill="#ff7043"/>
    <path id="Path_43" data-name="Path 43" d="M-95.343,233.589c-.216.155-2.044-1.129-2.257-1.291s-1.9-1.545-1.894-1.857,1.761-1.779,1.973-1.943,1.961-1.407,2.161-1.243a15.9,15.9,0,0,1,.284,3.234,14.6,14.6,0,0,1-.268,3.1Z" transform="translate(0 -8.85)" fill="#ff7043"/>
    <path id="Path_44" data-name="Path 44" d="M-45.4,233.589c.216.155,2.044-1.129,2.257-1.291s1.9-1.545,1.894-1.857-1.761-1.779-1.973-1.943-1.961-1.407-2.161-1.243a15.9,15.9,0,0,0-.284,3.234,14.6,14.6,0,0,0,.268,3.1Z" transform="translate(-1.695 -8.85)" fill="#ff7043"/>
    <rect id="Rectangle_25" data-name="Rectangle 25" width="30.618" height="6.346" transform="translate(-123.94 232.751)" fill="#26c6da"/>
    <path id="Path_45" data-name="Path 45" d="M-123.816,248.379c-.216.155-2.044-1.129-2.257-1.291s-1.9-1.545-1.894-1.857,1.761-1.779,1.973-1.943,1.961-1.407,2.161-1.243a15.9,15.9,0,0,1,.284,3.234,14.6,14.6,0,0,1-.268,3.1Z" transform="translate(0 -9.298)" fill="#26c6da"/>
    <path id="Path_46" data-name="Path 46" d="M-93.378,248.379c.216.155,2.044-1.129,2.257-1.291s1.9-1.545,1.894-1.857-1.761-1.779-1.973-1.943-1.961-1.407-2.161-1.243a15.9,15.9,0,0,0-.284,3.234,14.6,14.6,0,0,0,.268,3.1Z" transform="translate(-1.371 -9.298)" fill="#26c6da"/>
    <rect id="Rectangle_26" data-name="Rectangle 26" width="80.316" height="6.346" transform="translate(-81.942 232.14)" fill="#ff7043"/>
    <path id="Path_47" data-name="Path 47" d="M-80.241,247.749c-.216.155-2.044-1.129-2.257-1.291s-1.9-1.545-1.894-1.857,1.761-1.779,1.973-1.943,1.961-1.407,2.161-1.243a15.9,15.9,0,0,1,.284,3.234,14.6,14.6,0,0,1-.268,3.1Z" transform="translate(-1.434 -9.279)" fill="#ff7043"/>
    <path id="Path_48" data-name="Path 48" d="M-.708,247.749c.216.155,2.044-1.129,2.257-1.291s1.9-1.545,1.894-1.857-1.761-1.779-1.973-1.943-1.961-1.407-2.161-1.243a15.9,15.9,0,0,0-.284,3.234,14.6,14.6,0,0,0,.268,3.1Z" transform="translate(-1.997 -9.279)" fill="#ff7043"/>
    <rect id="Rectangle_27" data-name="Rectangle 27" width="30.618" height="6.346" transform="translate(-123.94 244.349)" fill="#26c6da"/>
    <path id="Path_49" data-name="Path 49" d="M-123.816,260.329c-.216.155-2.044-1.129-2.257-1.291s-1.9-1.545-1.894-1.857,1.761-1.779,1.973-1.943,1.961-1.407,2.161-1.243a15.9,15.9,0,0,1,.284,3.234,14.6,14.6,0,0,1-.268,3.1Z" transform="translate(0 -9.66)" fill="#26c6da"/>
    <path id="Path_50" data-name="Path 50" d="M-93.378,260.329c.216.155,2.044-1.129,2.257-1.291s1.9-1.545,1.894-1.857-1.761-1.779-1.973-1.943-1.961-1.407-2.161-1.243a15.9,15.9,0,0,0-.284,3.234,14.6,14.6,0,0,0,.268,3.1Z" transform="translate(-1.371 -9.66)" fill="#26c6da"/>
    <rect id="Rectangle_28" data-name="Rectangle 28" width="115.06" height="3.501" transform="translate(-163.58 57.971)" fill="#ff8f00"/>
    <rect id="Rectangle_29" data-name="Rectangle 29" width="2.326" height="273.66" transform="translate(-180.01 67.913) rotate(-90)" fill="#2196f3"/>
    <rect id="Rectangle_30" data-name="Rectangle 30" width="80.316" height="6.346" transform="translate(-35.716 203.466)" fill="#ccc"/>
    <path id="Path_51" data-name="Path 51" d="M-33.677,218.169c-.216.155-2.044-1.129-2.257-1.291s-1.9-1.545-1.894-1.857,1.761-1.779,1.973-1.943,1.961-1.407,2.161-1.243a15.9,15.9,0,0,1,.284,3.234,14.6,14.6,0,0,1-.268,3.1Z" transform="translate(-1.748 -8.383)" fill="#ccc"/>
    <path id="Path_52" data-name="Path 52" d="M45.854,218.169c.216.155,2.044-1.129,2.257-1.291s1.9-1.545,1.894-1.857-1.761-1.779-1.973-1.943-1.961-1.407-2.161-1.243a15.9,15.9,0,0,0-.284,3.234,14.6,14.6,0,0,0,.268,3.1Z" transform="translate(-2.311 -8.383)" fill="#ccc"/>
    <rect id="Rectangle_31" data-name="Rectangle 31" width="80.316" height="6.346" transform="translate(-34.467 217.498)" fill="#ccc"/>
    <path id="Path_53" data-name="Path 53" d="M-32.419,232.639c-.216.155-2.044-1.129-2.257-1.291s-1.9-1.545-1.894-1.857,1.761-1.779,1.973-1.943,1.961-1.407,2.161-1.243a15.9,15.9,0,0,1,.284,3.234,14.6,14.6,0,0,1-.268,3.1Z" transform="translate(-1.756 -8.821)" fill="#ccc"/>
    <path id="Path_54" data-name="Path 54" d="M47.112,232.639c.216.155,2.044-1.129,2.257-1.291s1.9-1.545,1.894-1.857-1.761-1.779-1.973-1.943-1.961-1.407-2.161-1.243a15.9,15.9,0,0,0-.284,3.234,14.6,14.6,0,0,0,.268,3.1Z" transform="translate(-2.319 -8.821)" fill="#ccc"/>
    <rect id="Rectangle_32" data-name="Rectangle 32" width="30.618" height="6.346" transform="translate(9.84 232.751)" fill="#ccc"/>
    <path id="Path_55" data-name="Path 55" d="M12.1,248.379c-.216.155-2.044-1.129-2.257-1.291s-1.9-1.545-1.894-1.857,1.761-1.779,1.973-1.943,1.961-1.407,2.161-1.243a15.9,15.9,0,0,1,.284,3.234,14.6,14.6,0,0,1-.268,3.1Z" transform="translate(-2.057 -9.298)" fill="#ccc"/>
    <path id="Path_56" data-name="Path 56" d="M42.536,248.379c.216.155,2.044-1.129,2.257-1.291s1.9-1.545,1.894-1.857-1.761-1.779-1.973-1.943-1.961-1.407-2.161-1.243a15.9,15.9,0,0,0-.284,3.234,14.6,14.6,0,0,0,.268,3.1Z" transform="translate(-2.288 -9.298)" fill="#ccc"/>
    <rect id="Rectangle_33" data-name="Rectangle 33" width="142.48" height="6.346" transform="translate(-81.147 244.65)" fill="#ccc"/>
    <path id="Path_57" data-name="Path 57" d="M-79.331,260.649c-.21.155-1.986-1.129-2.193-1.291s-1.846-1.545-1.84-1.857,1.711-1.779,1.917-1.943,1.9-1.407,2.1-1.243a16.348,16.348,0,0,1,.276,3.234,15.019,15.019,0,0,1-.26,3.1Z" transform="translate(-1.441 -9.67)" fill="#ccc"/>
    <path id="Path_58" data-name="Path 58" d="M62.715,260.649c.21.155,1.986-1.129,2.193-1.291s1.846-1.545,1.84-1.857-1.711-1.779-1.917-1.943-1.9-1.407-2.1-1.243a16.348,16.348,0,0,0-.276,3.234,15.019,15.019,0,0,0,.26,3.1Z" transform="translate(-2.424 -9.67)" fill="#ccc"/>
    <rect id="Rectangle_34" data-name="Rectangle 34" width="30.618" height="6.346" transform="translate(-123.787 257.702)" fill="#26c6da"/>
    <path id="Path_59" data-name="Path 59" d="M-122.455,274.1c-.216.155-2.044-1.129-2.257-1.291s-1.9-1.545-1.894-1.857,1.761-1.779,1.973-1.943,1.961-1.407,2.161-1.243a15.9,15.9,0,0,1,.284,3.234,14.6,14.6,0,0,1-.268,3.1Z" transform="translate(0 -10.078)" fill="#26c6da"/>
    <path id="Path_60" data-name="Path 60" d="M-92.018,274.1c.216.155,2.044-1.129,2.257-1.291s1.9-1.545,1.894-1.857-1.761-1.779-1.973-1.943S-91.8,267.6-92,267.764A15.9,15.9,0,0,0-92.286,271a14.6,14.6,0,0,0,.268,3.1Z" transform="translate(-1.381 -10.078)" fill="#26c6da"/>
    <rect id="Rectangle_35" data-name="Rectangle 35" width="30.618" height="6.346" transform="translate(-123.787 272.955)" fill="#26c6da"/>
    <path id="Path_61" data-name="Path 61" d="M-122.455,289.839c-.216.155-2.044-1.129-2.257-1.291s-1.9-1.545-1.894-1.857,1.761-1.779,1.973-1.943,1.961-1.407,2.161-1.243a15.9,15.9,0,0,1,.284,3.234,14.6,14.6,0,0,1-.268,3.1Z" transform="translate(0 -10.555)" fill="#26c6da"/>
    <path id="Path_62" data-name="Path 62" d="M-92.018,289.839c.216.155,2.044-1.129,2.257-1.291s1.9-1.545,1.894-1.857-1.761-1.779-1.973-1.943S-91.8,283.341-92,283.5a15.9,15.9,0,0,0-.284,3.234,14.6,14.6,0,0,0,.268,3.1Z" transform="translate(-1.381 -10.555)" fill="#26c6da"/>
    <rect id="Rectangle_36" data-name="Rectangle 36" width="50.282" height="6.346" transform="translate(-81.01 257.702)" fill="#ff7043"/>
    <path id="Path_63" data-name="Path 63" d="M-79.352,274.1c-.216.155-2.044-1.129-2.257-1.291s-1.9-1.545-1.894-1.857,1.761-1.779,1.973-1.943,1.961-1.407,2.161-1.243A15.9,15.9,0,0,1-79.084,271a14.6,14.6,0,0,1-.268,3.1Z" transform="translate(-1.44 -10.078)" fill="#ff7043"/>
    <path id="Path_64" data-name="Path 64" d="M-29.408,274.1c.216.155,2.044-1.129,2.257-1.291s1.9-1.545,1.894-1.857-1.761-1.779-1.973-1.943-1.961-1.407-2.161-1.243A15.9,15.9,0,0,0-29.676,271a14.6,14.6,0,0,0,.268,3.1Z" transform="translate(-1.803 -10.078)" fill="#ff7043"/>
    <rect id="Rectangle_37" data-name="Rectangle 37" width="50.282" height="6.346" transform="translate(-80.542 272.344)" fill="#ff7043"/>
    <path id="Path_65" data-name="Path 65" d="M-78.88,289.209c-.216.155-2.044-1.129-2.257-1.291s-1.9-1.545-1.894-1.857,1.761-1.779,1.973-1.943,1.961-1.407,2.161-1.243a15.9,15.9,0,0,1,.284,3.234,14.6,14.6,0,0,1-.268,3.1Z" transform="translate(-1.443 -10.535)" fill="#ff7043"/>
    <path id="Path_66" data-name="Path 66" d="M-28.938,289.209c.216.155,2.044-1.129,2.257-1.291s1.9-1.545,1.894-1.857-1.761-1.779-1.973-1.943-1.961-1.407-2.161-1.243a15.9,15.9,0,0,0-.284,3.234,14.6,14.6,0,0,0,.268,3.1Z" transform="translate(-1.806 -10.535)" fill="#ff7043"/>
    <rect id="Rectangle_38" data-name="Rectangle 38" width="80.316" height="6.346" transform="translate(-19.374 257.401)" fill="#ccc"/>
    <path id="Path_67" data-name="Path 67" d="M-17.212,273.789c-.216.155-2.044-1.129-2.257-1.291s-1.9-1.545-1.894-1.857,1.761-1.779,1.973-1.943,1.961-1.407,2.161-1.243a15.9,15.9,0,0,1,.284,3.234,14.6,14.6,0,0,1-.268,3.1Z" transform="translate(-1.859 -10.068)" fill="#ccc"/>
    <path id="Path_68" data-name="Path 68" d="M62.316,273.789c.216.155,2.044-1.129,2.257-1.291s1.9-1.545,1.894-1.857-1.761-1.779-1.973-1.943-1.961-1.407-2.161-1.243a15.9,15.9,0,0,0-.284,3.234,14.6,14.6,0,0,0,.268,3.1Z" transform="translate(-2.422 -10.068)" fill="#ccc"/>
    <rect id="Rectangle_39" data-name="Rectangle 39" width="80.316" height="6.346" transform="translate(-18.124 271.433)" fill="#ccc"/>
    <path id="Path_69" data-name="Path 69" d="M-15.952,288.259c-.216.155-2.044-1.129-2.257-1.291s-1.9-1.545-1.894-1.857,1.761-1.779,1.973-1.943,1.961-1.407,2.161-1.243a15.9,15.9,0,0,1,.284,3.234,14.6,14.6,0,0,1-.268,3.1Z" transform="translate(-1.868 -10.507)" fill="#ccc"/>
    <path id="Path_70" data-name="Path 70" d="M63.575,288.259c.216.155,2.044-1.129,2.257-1.291s1.9-1.545,1.894-1.857-1.761-1.779-1.973-1.943-1.961-1.407-2.161-1.243a15.9,15.9,0,0,0-.284,3.234,14.6,14.6,0,0,0,.268,3.1Z" transform="translate(-2.43 -10.507)" fill="#ccc"/>
    <rect id="Rectangle_40" data-name="Rectangle 40" width="30.618" height="6.346" transform="translate(-123.787 284.456)" fill="#26c6da"/>
    <path id="Path_71" data-name="Path 71" d="M-122.455,301.689c-.216.155-2.044-1.129-2.257-1.291s-1.9-1.545-1.894-1.857,1.761-1.779,1.973-1.943,1.961-1.407,2.161-1.243a15.9,15.9,0,0,1,.284,3.234,14.6,14.6,0,0,1-.268,3.1Z" transform="translate(0 -10.914)" fill="#26c6da"/>
    <path id="Path_72" data-name="Path 72" d="M-92.018,301.689c.216.155,2.044-1.129,2.257-1.291s1.9-1.545,1.894-1.857-1.761-1.779-1.973-1.943S-91.8,295.191-92,295.354a15.9,15.9,0,0,0-.284,3.234,14.6,14.6,0,0,0,.268,3.1Z" transform="translate(-1.381 -10.914)" fill="#26c6da"/>
    <rect id="Rectangle_41" data-name="Rectangle 41" width="30.618" height="6.346" transform="translate(-123.787 299.709)" fill="#26c6da"/>
    <path id="Path_73" data-name="Path 73" d="M-122.455,317.419c-.216.155-2.044-1.129-2.257-1.291s-1.9-1.545-1.894-1.857,1.761-1.779,1.973-1.943,1.961-1.407,2.161-1.243a15.9,15.9,0,0,1,.284,3.234,14.6,14.6,0,0,1-.268,3.1Z" transform="translate(0 -11.39)" fill="#26c6da"/>
    <path id="Path_74" data-name="Path 74" d="M-92.018,317.419c.216.155,2.044-1.129,2.257-1.291s1.9-1.545,1.894-1.857-1.761-1.779-1.973-1.943S-91.8,310.921-92,311.084a15.9,15.9,0,0,0-.284,3.234,14.6,14.6,0,0,0,.268,3.1Z" transform="translate(-1.381 -11.39)" fill="#26c6da"/>
    <rect id="Rectangle_42" data-name="Rectangle 42" width="50.282" height="6.346" transform="translate(-81.01 284.456)" fill="#ff7043"/>
    <path id="Path_75" data-name="Path 75" d="M-79.352,301.689c-.216.155-2.044-1.129-2.257-1.291s-1.9-1.545-1.894-1.857,1.761-1.779,1.973-1.943,1.961-1.407,2.161-1.243a15.9,15.9,0,0,1,.284,3.234,14.6,14.6,0,0,1-.268,3.1Z" transform="translate(-1.44 -10.914)" fill="#ff7043"/>
    <path id="Path_76" data-name="Path 76" d="M-29.408,301.689c.216.155,2.044-1.129,2.257-1.291s1.9-1.545,1.894-1.857-1.761-1.779-1.973-1.943-1.961-1.407-2.161-1.243a15.9,15.9,0,0,0-.284,3.234,14.6,14.6,0,0,0,.268,3.1Z" transform="translate(-1.803 -10.914)" fill="#ff7043"/>
    <rect id="Rectangle_43" data-name="Rectangle 43" width="50.282" height="6.346" transform="translate(-80.542 299.098)" fill="#ff7043"/>
    <path id="Path_77" data-name="Path 77" d="M-78.88,316.789c-.216.155-2.044-1.129-2.257-1.291s-1.9-1.545-1.894-1.857,1.761-1.779,1.973-1.943,1.961-1.407,2.161-1.243a15.9,15.9,0,0,1,.284,3.234,14.6,14.6,0,0,1-.268,3.1Z" transform="translate(-1.443 -11.371)" fill="#ff7043"/>
    <path id="Path_78" data-name="Path 78" d="M-28.938,316.789c.216.155,2.044-1.129,2.257-1.291s1.9-1.545,1.894-1.857-1.761-1.779-1.973-1.943-1.961-1.407-2.161-1.243a15.9,15.9,0,0,0-.284,3.234,14.6,14.6,0,0,0,.268,3.1Z" transform="translate(-1.806 -11.371)" fill="#ff7043"/>
    <rect id="Rectangle_44" data-name="Rectangle 44" width="80.316" height="6.346" transform="translate(-19.374 284.145)" fill="#ccc"/>
    <path id="Path_79" data-name="Path 79" d="M-17.212,301.379c-.216.155-2.044-1.129-2.257-1.291s-1.9-1.545-1.894-1.857,1.761-1.779,1.973-1.943,1.961-1.407,2.161-1.243a15.9,15.9,0,0,1,.284,3.234,14.6,14.6,0,0,1-.268,3.1Z" transform="translate(-1.859 -10.904)" fill="#ccc"/>
    <path id="Path_80" data-name="Path 80" d="M62.316,301.379c.216.155,2.044-1.129,2.257-1.291s1.9-1.545,1.894-1.857-1.761-1.779-1.973-1.943-1.961-1.407-2.161-1.243a15.9,15.9,0,0,0-.284,3.234,14.6,14.6,0,0,0,.268,3.1Z" transform="translate(-2.422 -10.904)" fill="#ccc"/>
    <rect id="Rectangle_45" data-name="Rectangle 45" width="80.316" height="6.346" transform="translate(-18.124 298.187)" fill="#ccc"/>
    <path id="Path_81" data-name="Path 81" d="M-15.952,315.849c-.216.155-2.044-1.129-2.257-1.291s-1.9-1.545-1.894-1.857,1.761-1.779,1.973-1.943,1.961-1.407,2.161-1.243a15.9,15.9,0,0,1,.284,3.234,14.6,14.6,0,0,1-.268,3.1Z" transform="translate(-1.868 -11.343)" fill="#ccc"/>
    <path id="Path_82" data-name="Path 82" d="M63.575,315.849c.216.155,2.044-1.129,2.257-1.291s1.9-1.545,1.894-1.857-1.761-1.779-1.973-1.943-1.961-1.407-2.161-1.243a15.9,15.9,0,0,0-.284,3.234,14.6,14.6,0,0,0,.268,3.1Z" transform="translate(-2.43 -11.343)" fill="#ccc"/>
    <rect id="Rectangle_46" data-name="Rectangle 46" width="30.618" height="6.346" transform="translate(-139.04 316.815)" fill="#26c6da"/>
    <path id="Path_83" data-name="Path 83" d="M-138.918,335.059c-.216.155-2.044-1.129-2.257-1.291s-1.9-1.545-1.894-1.857,1.761-1.779,1.973-1.943,1.961-1.407,2.161-1.243a15.9,15.9,0,0,1,.284,3.234,14.6,14.6,0,0,1-.268,3.1Z" transform="translate(0 -11.925)" fill="#26c6da"/>
    <path id="Path_84" data-name="Path 84" d="M-108.478,335.059c.216.155,2.044-1.129,2.257-1.291s1.9-1.545,1.894-1.857-1.761-1.779-1.973-1.943-1.961-1.407-2.161-1.243a15.9,15.9,0,0,0-.284,3.234,14.6,14.6,0,0,0,.268,3.1Z" transform="translate(0 -11.925)" fill="#26c6da"/>
    <rect id="Rectangle_47" data-name="Rectangle 47" width="30.618" height="6.346" transform="translate(-139.04 332.068)" fill="#26c6da"/>
    <path id="Path_85" data-name="Path 85" d="M-138.918,350.789c-.216.155-2.044-1.129-2.257-1.291s-1.9-1.545-1.894-1.857,1.761-1.779,1.973-1.943,1.961-1.407,2.161-1.243a15.9,15.9,0,0,1,.284,3.234,14.6,14.6,0,0,1-.268,3.1Z" transform="translate(0 -12.401)" fill="#26c6da"/>
    <path id="Path_86" data-name="Path 86" d="M-108.478,350.789c.216.155,2.044-1.129,2.257-1.291s1.9-1.545,1.894-1.857-1.761-1.779-1.973-1.943-1.961-1.407-2.161-1.243a15.9,15.9,0,0,0-.284,3.234,14.6,14.6,0,0,0,.268,3.1Z" transform="translate(0 -12.401)" fill="#26c6da"/>
    <rect id="Rectangle_48" data-name="Rectangle 48" width="50.282" height="6.346" transform="translate(-97.356 316.815)" fill="#ff7043"/>
    <path id="Path_87" data-name="Path 87" d="M-95.815,335.059c-.216.155-2.044-1.129-2.257-1.291s-1.9-1.545-1.894-1.857,1.761-1.779,1.973-1.943,1.961-1.407,2.161-1.243a15.9,15.9,0,0,1,.284,3.234,14.6,14.6,0,0,1-.268,3.1Z" transform="translate(0 -11.925)" fill="#ff7043"/>
    <path id="Path_88" data-name="Path 88" d="M-45.878,335.059c.216.155,2.044-1.129,2.257-1.291s1.9-1.545,1.894-1.857-1.761-1.779-1.973-1.943-1.961-1.407-2.161-1.243a15.9,15.9,0,0,0-.284,3.234,14.6,14.6,0,0,0,.268,3.1Z" transform="translate(-1.692 -11.925)" fill="#ff7043"/>
    <rect id="Rectangle_49" data-name="Rectangle 49" width="50.282" height="6.346" transform="translate(-96.887 331.457)" fill="#ff7043"/>
    <path id="Path_89" data-name="Path 89" d="M-95.343,350.159c-.216.155-2.044-1.129-2.257-1.291s-1.9-1.545-1.894-1.857,1.761-1.779,1.973-1.943,1.961-1.407,2.161-1.243a15.9,15.9,0,0,1,.284,3.234,14.6,14.6,0,0,1-.268,3.1Z" transform="translate(0 -12.382)" fill="#ff7043"/>
    <path id="Path_90" data-name="Path 90" d="M-45.4,350.159c.216.155,2.044-1.129,2.257-1.291s1.9-1.545,1.894-1.857-1.761-1.779-1.973-1.943-1.961-1.407-2.161-1.243a15.9,15.9,0,0,0-.284,3.234,14.6,14.6,0,0,0,.268,3.1Z" transform="translate(-1.695 -12.382)" fill="#ff7043"/>
    <rect id="Rectangle_50" data-name="Rectangle 50" width="80.316" height="6.346" transform="translate(-35.716 316.504)" fill="#ccc"/>
    <path id="Path_91" data-name="Path 91" d="M-33.677,334.749c-.216.155-2.044-1.129-2.257-1.291s-1.9-1.545-1.894-1.857,1.761-1.779,1.973-1.943,1.961-1.407,2.161-1.243a15.9,15.9,0,0,1,.284,3.234,14.6,14.6,0,0,1-.268,3.1Z" transform="translate(-1.748 -11.915)" fill="#ccc"/>
    <path id="Path_92" data-name="Path 92" d="M45.854,334.749c.216.155,2.044-1.129,2.257-1.291s1.9-1.545,1.894-1.857-1.761-1.779-1.973-1.943-1.961-1.407-2.161-1.243a15.9,15.9,0,0,0-.284,3.234,14.6,14.6,0,0,0,.268,3.1Z" transform="translate(-2.311 -11.915)" fill="#ccc"/>
    <rect id="Rectangle_51" data-name="Rectangle 51" width="80.316" height="6.346" transform="translate(-34.467 330.546)" fill="#ccc"/>
    <path id="Path_93" data-name="Path 93" d="M-32.419,349.219c-.216.155-2.044-1.129-2.257-1.291s-1.9-1.545-1.894-1.857,1.761-1.779,1.973-1.943,1.961-1.407,2.161-1.243a15.9,15.9,0,0,1,.284,3.234,14.6,14.6,0,0,1-.268,3.1Z" transform="translate(-1.756 -12.354)" fill="#ccc"/>
    <path id="Path_94" data-name="Path 94" d="M47.112,349.219c.216.155,2.044-1.129,2.257-1.291s1.9-1.545,1.894-1.857-1.761-1.779-1.973-1.943-1.961-1.407-2.161-1.243a15.9,15.9,0,0,0-.284,3.234,14.6,14.6,0,0,0,.268,3.1Z" transform="translate(-2.319 -12.354)" fill="#ccc"/>
    <rect id="Rectangle_52" data-name="Rectangle 52" width="30.618" height="6.346" transform="translate(-123.94 345.799)" fill="#26c6da"/>
    <path id="Path_95" data-name="Path 95" d="M-123.816,364.949c-.216.155-2.044-1.129-2.257-1.291s-1.9-1.545-1.894-1.857,1.761-1.779,1.973-1.943,1.961-1.407,2.161-1.243a15.9,15.9,0,0,1,.284,3.234,14.6,14.6,0,0,1-.268,3.1Z" transform="translate(0 -12.83)" fill="#26c6da"/>
    <path id="Path_96" data-name="Path 96" d="M-93.378,364.949c.216.155,2.044-1.129,2.257-1.291s1.9-1.545,1.894-1.857-1.761-1.779-1.973-1.943-1.961-1.407-2.161-1.243a15.9,15.9,0,0,0-.284,3.234,14.6,14.6,0,0,0,.268,3.1Z" transform="translate(-1.371 -12.83)" fill="#26c6da"/>
    <rect id="Rectangle_53" data-name="Rectangle 53" width="80.316" height="6.346" transform="translate(-81.942 345.188)" fill="#ff7043"/>
    <path id="Path_97" data-name="Path 97" d="M-80.241,364.319c-.216.155-2.044-1.129-2.257-1.291s-1.9-1.545-1.894-1.857,1.761-1.779,1.973-1.943,1.961-1.407,2.161-1.243a15.9,15.9,0,0,1,.284,3.234,14.6,14.6,0,0,1-.268,3.1Z" transform="translate(-1.434 -12.811)" fill="#ff7043"/>
    <path id="Path_98" data-name="Path 98" d="M-.708,364.319c.216.155,2.044-1.129,2.257-1.291s1.9-1.545,1.894-1.857-1.761-1.779-1.973-1.943-1.961-1.407-2.161-1.243a15.9,15.9,0,0,0-.284,3.234,14.6,14.6,0,0,0,.268,3.1Z" transform="translate(-1.997 -12.811)" fill="#ff7043"/>
    <rect id="Rectangle_54" data-name="Rectangle 54" width="30.618" height="6.346" transform="translate(-123.94 357.387)" fill="#26c6da"/>
    <path id="Path_99" data-name="Path 99" d="M-123.816,376.909c-.216.155-2.044-1.129-2.257-1.291s-1.9-1.545-1.894-1.857,1.761-1.779,1.973-1.943,1.961-1.407,2.161-1.243a15.9,15.9,0,0,1,.284,3.234,14.6,14.6,0,0,1-.268,3.1Z" transform="translate(0 -13.193)" fill="#26c6da"/>
    <path id="Path_100" data-name="Path 100" d="M-93.378,376.909c.216.155,2.044-1.129,2.257-1.291s1.9-1.545,1.894-1.857-1.761-1.779-1.973-1.943-1.961-1.407-2.161-1.243a15.9,15.9,0,0,0-.284,3.234,14.6,14.6,0,0,0,.268,3.1Z" transform="translate(-1.371 -13.193)" fill="#26c6da"/>
    <rect id="Rectangle_55" data-name="Rectangle 55" width="30.618" height="6.346" transform="translate(9.84 345.799)" fill="#ccc"/>
    <path id="Path_101" data-name="Path 101" d="M12.1,364.949c-.216.155-2.044-1.129-2.257-1.291s-1.9-1.545-1.894-1.857,1.761-1.779,1.973-1.943,1.961-1.407,2.161-1.243a15.9,15.9,0,0,1,.284,3.234,14.6,14.6,0,0,1-.268,3.1Z" transform="translate(-2.057 -12.83)" fill="#ccc"/>
    <path id="Path_102" data-name="Path 102" d="M42.536,364.949c.216.155,2.044-1.129,2.257-1.291s1.9-1.545,1.894-1.857-1.761-1.779-1.973-1.943-1.961-1.407-2.161-1.243a15.9,15.9,0,0,0-.284,3.234,14.6,14.6,0,0,0,.268,3.1Z" transform="translate(-2.288 -12.83)" fill="#ccc"/>
    <rect id="Rectangle_56" data-name="Rectangle 56" width="142.48" height="6.346" transform="translate(-81.147 357.697)" fill="#ccc"/>
    <path id="Path_103" data-name="Path 103" d="M-79.331,377.219c-.21.155-1.986-1.129-2.193-1.291s-1.846-1.545-1.84-1.857,1.711-1.779,1.917-1.943,1.9-1.407,2.1-1.243a16.348,16.348,0,0,1,.276,3.234,15.019,15.019,0,0,1-.26,3.1Z" transform="translate(-1.441 -13.202)" fill="#ccc"/>
    <path id="Path_104" data-name="Path 104" d="M62.715,377.219c.21.155,1.986-1.129,2.193-1.291s1.846-1.545,1.84-1.857-1.711-1.779-1.917-1.943-1.9-1.407-2.1-1.243a16.348,16.348,0,0,0-.276,3.234,15.019,15.019,0,0,0,.26,3.1Z" transform="translate(-2.424 -13.202)" fill="#ccc"/>
    <rect id="Rectangle_57" data-name="Rectangle 57" width="30.618" height="6.346" transform="translate(-123.94 370.818)" fill="#26c6da"/>
    <path id="Path_105" data-name="Path 105" d="M-123.816,390.749c-.216.155-2.044-1.129-2.257-1.291s-1.9-1.545-1.894-1.857,1.761-1.779,1.973-1.943,1.961-1.407,2.161-1.243a15.9,15.9,0,0,1,.284,3.234,14.6,14.6,0,0,1-.268,3.1Z" transform="translate(0 -13.612)" fill="#26c6da"/>
    <path id="Path_106" data-name="Path 106" d="M-93.378,390.749c.216.155,2.044-1.129,2.257-1.291s1.9-1.545,1.894-1.857-1.761-1.779-1.973-1.943-1.961-1.407-2.161-1.243a15.9,15.9,0,0,0-.284,3.234,14.6,14.6,0,0,0,.268,3.1Z" transform="translate(-1.371 -13.612)" fill="#26c6da"/>
    <rect id="Rectangle_58" data-name="Rectangle 58" width="80.316" height="6.346" transform="translate(-81.942 370.207)" fill="#ff7043"/>
    <path id="Path_107" data-name="Path 107" d="M-80.241,390.119c-.216.155-2.044-1.129-2.257-1.291s-1.9-1.545-1.894-1.857,1.761-1.779,1.973-1.943,1.961-1.407,2.161-1.243a15.9,15.9,0,0,1,.284,3.234,14.6,14.6,0,0,1-.268,3.1Z" transform="translate(-1.434 -13.593)" fill="#ff7043"/>
    <path id="Path_108" data-name="Path 108" d="M-.708,390.119c.216.155,2.044-1.129,2.257-1.291s1.9-1.545,1.894-1.857-1.761-1.779-1.973-1.943-1.961-1.407-2.161-1.243a15.9,15.9,0,0,0-.284,3.234,14.6,14.6,0,0,0,.268,3.1Z" transform="translate(-1.997 -13.593)" fill="#ff7043"/>
    <rect id="Rectangle_59" data-name="Rectangle 59" width="30.618" height="6.346" transform="translate(9.84 370.818)" fill="#ccc"/>
    <path id="Path_109" data-name="Path 109" d="M12.1,390.749c-.216.155-2.044-1.129-2.257-1.291s-1.9-1.545-1.894-1.857,1.761-1.779,1.973-1.943,1.961-1.407,2.161-1.243a15.9,15.9,0,0,1,.284,3.234,14.6,14.6,0,0,1-.268,3.1Z" transform="translate(-2.057 -13.612)" fill="#ccc"/>
    <path id="Path_110" data-name="Path 110" d="M42.536,390.749c.216.155,2.044-1.129,2.257-1.291s1.9-1.545,1.894-1.857-1.761-1.779-1.973-1.943-1.961-1.407-2.161-1.243a15.9,15.9,0,0,0-.284,3.234,14.6,14.6,0,0,0,.268,3.1Z" transform="translate(-2.288 -13.612)" fill="#ccc"/>
    <rect id="Rectangle_60" data-name="Rectangle 60" width="30.618" height="6.346" transform="translate(-125.2 383.55)" fill="#26c6da"/>
    <path id="Path_111" data-name="Path 111" d="M-125.075,403.879c-.216.155-2.044-1.129-2.257-1.291s-1.9-1.545-1.894-1.857,1.761-1.779,1.973-1.943,1.961-1.407,2.161-1.243a15.9,15.9,0,0,1,.284,3.234,14.6,14.6,0,0,1-.268,3.1Z" transform="translate(0 -14.01)" fill="#26c6da"/>
    <path id="Path_112" data-name="Path 112" d="M-94.638,403.879c.216.155,2.044-1.129,2.257-1.291s1.9-1.545,1.894-1.857-1.761-1.779-1.973-1.943-1.961-1.407-2.161-1.243a15.9,15.9,0,0,0-.284,3.234,14.6,14.6,0,0,0,.268,3.1Z" transform="translate(-1.363 -14.01)" fill="#26c6da"/>
    <rect id="Rectangle_61" data-name="Rectangle 61" width="86.592" height="6.346" transform="translate(-24.429 383.55)" fill="#ccc"/>
    <path id="Path_113" data-name="Path 113" d="M-22.293,403.879c-.216.155-2.044-1.129-2.257-1.291s-1.9-1.545-1.894-1.857,1.761-1.779,1.973-1.943,1.961-1.407,2.161-1.243a15.9,15.9,0,0,1,.284,3.234,14.6,14.6,0,0,1-.268,3.1Z" transform="translate(-1.825 -14.01)" fill="#ccc"/>
    <path id="Path_114" data-name="Path 114" d="M63.856,403.879c.216.155,2.044-1.129,2.257-1.291s1.9-1.545,1.894-1.857-1.761-1.779-1.973-1.943-1.961-1.407-2.161-1.243a15.9,15.9,0,0,0-.284,3.234,14.6,14.6,0,0,0,.268,3.1Z" transform="translate(-2.432 -14.01)" fill="#ccc"/>
    <rect id="Rectangle_62" data-name="Rectangle 62" width="188.36" height="6.346" transform="translate(-125.87 394.536)" fill="#ccc"/>
    <path id="Path_115" data-name="Path 115" d="M-124.289,415.209c-.277.155-2.623-1.129-2.9-1.291s-2.438-1.545-2.43-1.857,2.259-1.779,2.532-1.943,2.516-1.407,2.773-1.243.364,2.909.365,3.234-.077,2.952-.343,3.1Z" transform="translate(0 -14.353)" fill="#ccc"/>
    <path id="Path_116" data-name="Path 116" d="M63.31,415.209c.277.155,2.623-1.129,2.9-1.291s2.438-1.545,2.43-1.857-2.259-1.779-2.532-1.943-2.516-1.407-2.773-1.243-.364,2.909-.365,3.234.077,2.952.343,3.1Z" transform="translate(-2.431 -14.353)" fill="#ccc"/>
    <rect id="Rectangle_63" data-name="Rectangle 63" width="188.36" height="6.346" transform="translate(-125.87 404.912)" fill="#ccc"/>
    <path id="Path_117" data-name="Path 117" d="M-124.289,425.909c-.277.155-2.623-1.129-2.9-1.291s-2.438-1.545-2.43-1.857,2.259-1.779,2.532-1.943,2.516-1.407,2.773-1.243.364,2.909.365,3.234-.077,2.952-.343,3.1Z" transform="translate(0 -14.677)" fill="#ccc"/>
    <path id="Path_118" data-name="Path 118" d="M63.31,425.909c.277.155,2.623-1.129,2.9-1.291s2.438-1.545,2.43-1.857-2.259-1.779-2.532-1.943-2.516-1.407-2.773-1.243-.364,2.909-.365,3.234.077,2.952.343,3.1Z" transform="translate(-2.431 -14.677)" fill="#ccc"/>
    <rect id="Rectangle_64" data-name="Rectangle 64" width="44.687" height="6.346" transform="translate(-81.708 383.55)" fill="#ff7043"/>
    <path id="Path_119" data-name="Path 119" d="M-80.008,403.879c-.316.155-2.983-1.129-3.295-1.291s-2.774-1.545-2.764-1.857,2.57-1.779,2.88-1.943,2.862-1.407,3.155-1.243.414,2.909.415,3.234-.088,2.952-.391,3.1Z" transform="translate(-1.425 -14.01)" fill="#ff7043"/>
    <path id="Path_120" data-name="Path 120" d="M-35.592,403.879c.316.155,2.983-1.129,3.295-1.291s2.774-1.545,2.764-1.857-2.57-1.779-2.88-1.943-2.862-1.407-3.155-1.243-.414,2.909-.415,3.234.088,2.952.391,3.1Z" transform="translate(-1.764 -14.01)" fill="#ff7043"/>
    <rect id="Rectangle_65" data-name="Rectangle 65" width="30.618" height="6.346" transform="translate(-35.173 421.625) rotate(180)" fill="#26c6da"/>
    <path id="Path_121" data-name="Path 121" d="M-33.678,436.609c.216.155,2.044-1.129,2.257-1.291s1.9-1.545,1.894-1.857-1.761-1.779-1.973-1.943-1.961-1.407-2.161-1.243a15.9,15.9,0,0,0-.284,3.234,14.6,14.6,0,0,0,.268,3.1Z" transform="translate(-1.774 -15.001)" fill="#26c6da"/>
    <path id="Path_122" data-name="Path 122" d="M-64.118,436.609c-.216.155-2.044-1.129-2.257-1.291s-1.9-1.545-1.894-1.857,1.761-1.779,1.973-1.943,1.961-1.407,2.161-1.243a15.9,15.9,0,0,1,.284,3.234,14.6,14.6,0,0,1-.268,3.1Z" transform="translate(-1.543 -15.001)" fill="#26c6da"/>
    <rect id="Rectangle_66" data-name="Rectangle 66" width="44.687" height="6.346" transform="translate(-79.791 421.625) rotate(180)" fill="#ff7043"/>
    <path id="Path_123" data-name="Path 123" d="M-78.752,436.609c.316.155,2.983-1.129,3.295-1.291s2.774-1.545,2.764-1.857-2.57-1.779-2.88-1.943-2.862-1.407-3.155-1.243-.414,2.909-.415,3.234.088,2.952.391,3.1Z" transform="translate(-1.472 -15.001)" fill="#ff7043"/>
    <path id="Path_124" data-name="Path 124" d="M-123.167,436.609c-.316.155-2.983-1.129-3.295-1.291s-2.774-1.545-2.764-1.857,2.57-1.779,2.88-1.943,2.862-1.407,3.155-1.243.414,2.909.415,3.234-.088,2.952-.391,3.1Z" transform="translate(0 -15.001)" fill="#ff7043"/>
    <g id="Group_2" data-name="Group 2" transform="translate(154.064 100.285)">
      <path id="Path_125" data-name="Path 125" d="M1066.5,462.1l112.42,2.542,9.243,87.974H1056.8Z" transform="translate(-868.2 -120.72)" fill="#f2f2f2" stroke="#707070" stroke-width="1"/>
      <path id="Path_126" data-name="Path 126" d="M1066.5,462.1l-2.937,27.39h117.96l-2.611-24.848L1066.5,462.1Z" transform="translate(-868.2 -120.72)" fill="#ccc"/>
      <rect id="Rectangle_67" data-name="Rectangle 67" width="508.48" height="333.86" rx="23.152" transform="translate(0.07 28.61)" fill="#fff" stroke="#707070" stroke-width="1"/>
      <path id="Path_127" data-name="Path 127" d="M868.2,142.27V436.63h508.63V142.27Zm11.989,15.212h482.44l-64.7,242.45-361.54-24.181Z" transform="translate(-868.2 -120.72)" fill="#333" fill-rule="evenodd"/>
      <rect id="Rectangle_68" data-name="Rectangle 68" width="508.59" height="140.16" rx="26.319" transform="translate(0.01)" fill="#333"/>
      <rect id="Rectangle_69" data-name="Rectangle 69" width="467.48" height="269.36" transform="translate(20.57 22.36)" fill="#ececec"/>
      <rect id="Rectangle_70" data-name="Rectangle 70" width="207.17" height="13.328" rx="3.852" transform="translate(150.7 418.57)" fill="#fff" stroke="#707070" stroke-width="1"/>
      <circle id="Ellipse_4" data-name="Ellipse 4" cx="13.071" cy="13.071" r="13.071" transform="translate(241.229 326.709)" fill="#333"/>
      <rect id="Rectangle_71" data-name="Rectangle 71" width="399.85" height="269.36" transform="translate(54.38 22.36)" fill="#fff"/>
      <rect id="Rectangle_72" data-name="Rectangle 72" width="387.1" height="64.962" transform="translate(60.84 30.19)" fill="#66bb6a"/>
      <rect id="Rectangle_73" data-name="Rectangle 73" width="387.1" height="16.51" transform="translate(60.84 101.29)" fill="#64b5f6"/>
      <rect id="Rectangle_74" data-name="Rectangle 74" width="39.957" height="12.27" transform="translate(64.18 103.4)" fill="#1e88e5"/>
      <rect id="Rectangle_75" data-name="Rectangle 75" width="39.957" height="12.27" transform="translate(107.29 103.4)" fill="#1e88e5"/>
      <rect id="Rectangle_76" data-name="Rectangle 76" width="51.283" height="12.27" transform="translate(151 103.4)" fill="#1e88e5"/>
      <rect id="Rectangle_77" data-name="Rectangle 77" width="37.755" height="12.27" transform="translate(206.2 103.4)" fill="#1e88e5"/>
      <rect id="Rectangle_78" data-name="Rectangle 78" width="51.283" height="12.27" transform="translate(246.7 103.4)" fill="#1e88e5"/>
      <rect id="Rectangle_79" data-name="Rectangle 79" width="144.01" height="126.63" transform="translate(60.84 123.32)" fill="#64b5f6"/>
      <rect id="Rectangle_80" data-name="Rectangle 80" width="93.873" height="162.49" transform="translate(354.1 123.32)" fill="#f06292"/>
      <path id="Path_128" data-name="Path 128" d="M1260.4,249.45l-10.7,10.7-13.213,67.33-14.2,23.314v55.742h13.734l64.644-31.863s12.586-48.452,12.586-50.969-52.857-74.252-52.857-74.252Z" transform="translate(-868.2 -120.72)" fill="#d81b60" fill-rule="evenodd"/>
      <rect id="Rectangle_81" data-name="Rectangle 81" width="31.889" height="30.461" transform="translate(60.84 255.46)" fill="#64b5f6"/>
      <rect id="Rectangle_82" data-name="Rectangle 82" width="31.889" height="30.461" transform="translate(98.22 255.46)" fill="#64b5f6"/>
      <rect id="Rectangle_83" data-name="Rectangle 83" width="31.889" height="30.461" transform="translate(135.6 255.46)" fill="#64b5f6"/>
      <rect id="Rectangle_84" data-name="Rectangle 84" width="31.889" height="30.461" transform="translate(173 255.46)" fill="#64b5f6"/>
      <rect id="Rectangle_85" data-name="Rectangle 85" width="84.948" height="8.18" transform="translate(212.8 123.69)" fill="#999"/>
      <rect id="Rectangle_86" data-name="Rectangle 86" width="72.363" height="2.517" transform="translate(213.5 135.65)" fill="#999"/>
      <rect id="Rectangle_87" data-name="Rectangle 87" width="44.676" height="6.292" transform="translate(214.4 155.47)" fill="#aed581"/>
      <rect id="Rectangle_88" data-name="Rectangle 88" width="37.125" height="6.292" transform="translate(214.4 166.17)" fill="#aed581"/>
      <rect id="Rectangle_89" data-name="Rectangle 89" width="37.125" height="6.292" transform="translate(214.4 176.23)" fill="#aed581"/>
      <rect id="Rectangle_90" data-name="Rectangle 90" width="32.091" height="6.292" transform="translate(214.4 186.3)" fill="#aed581"/>
      <rect id="Rectangle_91" data-name="Rectangle 91" width="32.091" height="6.292" transform="translate(214.4 196.37)" fill="#aed581"/>
      <rect id="Rectangle_92" data-name="Rectangle 92" width="37.125" height="6.292" transform="translate(214.4 207.07)" fill="#aed581"/>
      <rect id="Rectangle_93" data-name="Rectangle 93" width="43.733" height="6.292" transform="translate(214.4 218.08)" fill="#aed581"/>
      <rect id="Rectangle_94" data-name="Rectangle 94" width="43.733" height="6.292" transform="translate(214.4 227.52)" fill="#aed581"/>
      <rect id="Rectangle_95" data-name="Rectangle 95" width="2.184" height="6.292" transform="translate(264.5 155.47)" fill="#aed581"/>
      <rect id="Rectangle_96" data-name="Rectangle 96" width="2.184" height="6.292" transform="translate(264.5 165.48)" fill="#aed581"/>
      <rect id="Rectangle_97" data-name="Rectangle 97" width="2.184" height="6.292" transform="translate(264.5 175.71)" fill="#aed581"/>
      <rect id="Rectangle_98" data-name="Rectangle 98" width="2.184" height="6.292" transform="translate(264.5 185.28)" fill="#aed581"/>
      <rect id="Rectangle_99" data-name="Rectangle 99" width="2.184" height="6.292" transform="translate(264.5 195.74)" fill="#aed581"/>
      <rect id="Rectangle_100" data-name="Rectangle 100" width="2.184" height="6.292" transform="translate(264.5 206.64)" fill="#aed581"/>
      <rect id="Rectangle_101" data-name="Rectangle 101" width="2.184" height="6.292" transform="translate(264.5 217.98)" fill="#aed581"/>
      <rect id="Rectangle_102" data-name="Rectangle 102" width="2.184" height="6.292" transform="translate(264.5 227.33)" fill="#aed581"/>
      <rect id="Rectangle_103" data-name="Rectangle 103" width="59.36" height="6.292" transform="translate(276.5 155.47)" fill="#aed581"/>
      <rect id="Rectangle_104" data-name="Rectangle 104" width="37.125" height="6.292" transform="translate(276.3 166.17)" fill="#aed581"/>
      <rect id="Rectangle_105" data-name="Rectangle 105" width="66.492" height="6.292" transform="translate(276.5 176.23)" fill="#aed581"/>
      <rect id="Rectangle_106" data-name="Rectangle 106" width="12.736" height="6.292" transform="translate(276.3 186.3)" fill="#aed581"/>
      <rect id="Rectangle_107" data-name="Rectangle 107" width="12.514" height="6.292" transform="translate(276.7 196.37)" fill="#aed581"/>
      <rect id="Rectangle_108" data-name="Rectangle 108" width="20.44" height="6.292" transform="translate(276 207.07)" fill="#aed581"/>
      <rect id="Rectangle_109" data-name="Rectangle 109" width="43.733" height="6.292" transform="translate(276.3 218.08)" fill="#aed581"/>
      <rect id="Rectangle_110" data-name="Rectangle 110" width="16.146" height="6.292" transform="translate(276.5 227.52)" fill="#aed581"/>
      <rect id="Rectangle_111" data-name="Rectangle 111" width="111.69" height="6.292" transform="translate(232 255.83)" fill="#aed581"/>
      <rect id="Rectangle_112" data-name="Rectangle 112" width="129.31" height="6.292" transform="translate(214.4 267.16)" fill="#aed581"/>
      <rect id="Rectangle_113" data-name="Rectangle 113" width="106.34" height="6.292" transform="translate(214.4 277.23)" fill="#aed581"/>
      <path id="Path_129" data-name="Path 129" d="M1068.5,270.21l-20.764,4.4-50.969,32.092-23.912-8.18-43.771,21.164v50.973H1073.1v-100.1l-4.6-.354Z" transform="translate(-868.2 -120.72)" fill="#42a5f5" fill-rule="evenodd"/>
      <path id="Path_130" data-name="Path 130" d="M1293.7,266.44l-38.383,96.9,36.869,43.189h23.93V282.313L1293.7,266.436Z" transform="translate(-868.2 -120.72)" fill="#e91e63" fill-rule="evenodd"/>
      <path id="Path_131" data-name="Path 131" d="M1231.4,289.72l-9.162,10.426v106.39h85.008L1231.4,289.726Z" transform="translate(-868.2 -120.72)" fill="#ec407a" fill-rule="evenodd"/>
      <path id="Path_132" data-name="Path 132" d="M959.43,384.55l-4.479.95-10.995,6.923-5.158-1.764-9.442,4.565v11h31.066V384.627l-.992-.076Z" transform="translate(-868.2 -120.72)" fill="#42a5f5" fill-rule="evenodd"/>
      <path id="Path_133" data-name="Path 133" d="M981.78,383.95l-15.363,10.326v12.365h31.891V391.95l-16.527-8Z" transform="translate(-868.2 -120.72)" fill="#42a5f5" fill-rule="evenodd"/>
      <path id="Path_134" data-name="Path 134" d="M1035.7,379.29l-16.148,10.475h-4.719s-5.865,3.028-11.022,5.617v11.254H1035.7V379.29Z" transform="translate(-868.2 -120.72)" fill="#42a5f5" fill-rule="evenodd"/>
      <path id="Path_135" data-name="Path 135" d="M1316.1,164.58l-29.967,9.99-85.576,7.551-73.623-9.439-66.7,13.844-46.564-15.1L929,189.829v26.043h387.1V164.579Z" transform="translate(-868.2 -120.72)" fill="#4caf50" fill-rule="evenodd"/>
    </g>
  </g>
</svg>
