<svg xmlns="http://www.w3.org/2000/svg" xmlns:xlink="http://www.w3.org/1999/xlink" width="421.39" height="445.132" viewBox="0 0 421.39 445.132">
  <defs>
    <linearGradient id="linear-gradient" x1="-0.663" y1="-1.361" x2="-0.06" y2="-0.742" gradientUnits="objectBoundingBox">
      <stop offset="0" stop-color="#ffefef" stop-opacity="0.58"/>
      <stop offset="1" stop-color="#ffefef" stop-opacity="0.141"/>
    </linearGradient>
    <linearGradient id="linear-gradient-2" x1="-1.572" y1="-4.784" x2="-0.91" y2="-4.525" gradientUnits="objectBoundingBox">
      <stop offset="0" stop-color="#fff" stop-opacity="0.114"/>
      <stop offset="1" stop-color="#fff" stop-opacity="0.898"/>
    </linearGradient>
  </defs>
  <g id="Group_30" data-name="Group 30" transform="translate(0.473 0.37)">
    <path id="Path_85" data-name="Path 85" d="M205.078,0,58.594,30.424,0,194.936l219.726,60.847L286.207,96.9Z" transform="translate(420.183 361.595) rotate(180)" fill="#1a1a1a" stroke="#000" stroke-width="1.127" fill-rule="evenodd"/>
    <path id="Path_86" data-name="Path 86" d="M622.77,545.38l-10.262,5.628-20.03-13.245,10.052-5.3,20.24,12.918Z" transform="translate(-305.659 -237.411)" fill="none" stroke="#000" stroke-width="1.182"/>
    <path id="Path_87" data-name="Path 87" d="M562.59,506.51l-9.932,4.877-17.97-11.726,9.95-4.707,17.952,11.557Z" transform="translate(-302.105 -237.411)" fill="none" stroke="#000" stroke-width="1.182"/>
    <path id="Path_88" data-name="Path 88" d="M544.57,494.91l-9.809,4.642-17.33-11.5,9.7-4.427L544.57,494.91Z" transform="translate(-301.05 -237.411)" fill="none" stroke="#000" stroke-width="1.182"/>
    <path id="Path_89" data-name="Path 89" d="M527.3,483.63l-9.95,4.539-14.814-9.8,9.743-4.307,15.02,9.568Z" transform="translate(-300.09 -237.411)" fill="none" stroke="#000" stroke-width="1.182"/>
    <path id="Path_90" data-name="Path 90" d="M512.27,474.04l-9.79,4.327-13.414-9.027,9.451-4.058,13.753,8.758Z" transform="translate(-299.248 -237.411)" fill="none" stroke="#000" stroke-width="1.182"/>
    <path id="Path_91" data-name="Path 91" d="M498.46,465.3l-9.251,3.973-13.461-8.561,8.87-4.352,13.842,8.94Z" transform="translate(-298.449 -237.411)" fill="none" stroke="#000" stroke-width="1.182"/>
    <path id="Path_92" data-name="Path 92" stroke="#333" d="M647.739,551.55,465.2,663.01,288.51,483.29l158.16-61.771,201.079,130.03Z" transform="translate(-287.343 -237.411)" stroke-linecap="round" stroke-linejoin="round" stroke-width="0.946" fill-rule="evenodd"/>
    <path id="Path_93" data-name="Path 93" d="M421.91,433.52c116.07,68.116,44.042,52.531,203.45,139.97L523.9,633.38c-96.857-29.587-204.54-86.019-191.44-166.65l68.794-25.556,20.655-7.649Z" transform="translate(-287.343 -237.411)" fill-rule="evenodd" fill="url(#linear-gradient)"/>
    <path id="Path_94" data-name="Path 94" stroke="#333" d="M664.14,551.52l-.152,15.28L474.078,681.7c-3.76-2.027-5.381-13.973-1.218-18.706l191.28-111.48Z" transform="translate(-305.477 -237.411)" stroke-linecap="round" stroke-linejoin="round" stroke-width="0.946" fill-rule="evenodd"/>
    <path id="Path_95" data-name="Path 95" stroke="#333" d="M288.53,483.37c-1.137,3.507-2.347,11.141.967,14.276L473.777,681.4c-4.878-5.582-3.376-12.076-.914-18.706L288.533,483.37Z" transform="translate(-287.343 -237.411)" stroke-linecap="round" stroke-linejoin="round" stroke-width="0.946" fill-rule="evenodd"/>
    <path id="Path_96" data-name="Path 96" stroke="#333" d="M702.51,318.61s-32.9,234.36-35.332,231.87-212.6-130.68-212.6-130.68l-.609-180.16,248.54,78.969Z" fill="#1a1a1a" transform="translate(-312.241 -237.411)" stroke-linecap="round" stroke-linejoin="round" stroke-width="0.946" fill-rule="evenodd"/>
    <path id="Path_97" data-name="Path 97" stroke="#333" d="M461.3,237.99c-5.8-1.629-5.666.585-7.294,1.658L702.516,318c2.235-1.993,3.17-1.179,8.18-1.025L461.306,237.99Z" fill="#1a1a1a" transform="translate(-312.241 -237.411)" stroke-linecap="round" stroke-linejoin="round" stroke-width="0.946" fill-rule="evenodd"/>
    <path id="Path_98" data-name="Path 98" d="M430.47,430.51l206.06,136.4,10.4-5.821-207.48-134.13-8.974,3.556Z" transform="translate(-302.93 -237.411)" fill="none" stroke="#999" stroke-width="1.182"/>
    <path id="Path_99" data-name="Path 99" d="M611.29,550.1l-22.584-14.772Z" transform="translate(-305.102 -237.411)" fill="none" stroke="#000" stroke-width="1.182" opacity="0.3"/>
    <path id="Path_100" data-name="Path 100" stroke="#000" d="M441.73,555.67l-44.835-37.5c-2.569-2.149-7.985-2.414-12.188-.6l-22.56,10.058c-4.48,1.931-6.192,5.375-3.791,7.732l41.458,40.1c2.868,2.815,9.069,3.226,13.844.908l25.586-12.188c4.45-2.16,5.533-5.959,2.487-8.507" fill="#999" transform="translate(-292.194 -237.411)" stroke-linecap="round" stroke-linejoin="round" stroke-width="1.127" opacity="0.89"/>
    <path id="Path_101" data-name="Path 101" stroke-linecap="round" d="M562.24,506.48c-2.933-2.248-10.336,2.061-9.909,4.772Z" fill="#666" stroke="#000" transform="translate(-302.504 -237.411)" stroke-linejoin="round" stroke-width="0.236" fill-rule="evenodd" opacity="0.997"/>
    <path id="Path_102" data-name="Path 102" d="M612.83,551.17l-20.255-13.48a9.4,9.4,0,0,1,9.946-5.512l20.138,13.228c-3.511-2.4-10.333,2.921-9.829,5.764Z" transform="translate(-305.655 -237.411)" fill="gray" stroke="#000" stroke-linejoin="round" stroke-width="0.236" fill-rule="evenodd"/>
    <path id="Path_103" data-name="Path 103" stroke="#000" d="M622.68,545.42c-4.008-2.591-10.869,3.833-9.816,5.854Z" fill="none" transform="translate(-305.962 -237.411)" stroke-linecap="round" stroke-linejoin="round" stroke-width="0.236" opacity="0.69"/>
    <path id="Path_104" data-name="Path 104" d="M552.38,511.27l-17.108-11.307c.861-3.258,3.434-5.368,9.5-4.84L562.282,506.5c-3.093-2.451-10.75,2.463-9.9,4.767Z" transform="translate(-302.108 -237.411)" fill="#4d4d4d" stroke="#000" stroke-linejoin="round" stroke-width="0.236" fill-rule="evenodd"/>
    <path id="Path_105" data-name="Path 105" d="M535.39,499.98,518.1,488.71c1.194-3.369,4.081-5.552,9.866-4.563l17.477,11.344c-3.505-1.529-9.486.4-10.05,4.489Z" transform="translate(-301.096 -237.411)" fill="#4d4d4d" stroke="#000" stroke-linejoin="round" stroke-width="0.236" fill-rule="evenodd"/>
    <path id="Path_106" data-name="Path 106" d="M518.17,488.69l-15.334-10.2c2.007-3.11,4.506-4.407,9.533-4.249l15.667,9.921c-3.69-.864-8.932.4-9.866,4.526Z" transform="translate(-300.121 -237.411)" fill="#4d4d4d" stroke="#000" stroke-linejoin="round" stroke-width="0.236" fill-rule="evenodd"/>
    <path id="Path_107" data-name="Path 107" d="M502.78,478.47l-13.394-8.923c2.3-2.888,4.949-4.111,9.311-4.1l13.727,8.813c-3.856-.347-7.4.754-9.644,4.212Z" transform="translate(-299.262 -237.411)" fill="#4d4d4d" stroke="#000" stroke-linejoin="round" stroke-width="0.236" fill-rule="evenodd"/>
    <path id="Path_108" data-name="Path 108" d="M489.42,469.59l-13.561-8.942c1.711-4,5.1-4.7,8.942-4.36l14.17,9.33c-3.431-.384-6.511.181-9.552,3.972Z" transform="translate(-298.466 -237.411)" fill="#4d4d4d" stroke="#000" stroke-linejoin="round" stroke-width="0.236" fill-rule="evenodd"/>
    <path id="Path_109" data-name="Path 109" d="M486.67,560.89,428.757,514.3a3.348,3.348,0,0,0-3.227-.026l-8.845,4.35c-1.109.547-1.451,1.445-.764,2.013l57.03,47.929a3.527,3.527,0,0,0,3.678.079l9.509-5.337c1.161-.652,1.4-1.731.532-2.419" transform="translate(-295.892 -237.411)" fill="gray"/>
    <path id="Path_110" data-name="Path 110" d="M489.73,562.76,476.6,570.222l9.671,8.148,13.355-7.529Z" transform="translate(-298.507 -237.411)" fill="#f0f" stroke="#000" stroke-width="1.182" fill-rule="evenodd"/>
    <path id="Path_111" data-name="Path 111" d="M500.85,571.76l-13.481,7.487L497.42,587.7l13.135-8.109-9.706-7.829Z" transform="translate(-299.147 -237.411)" fill="#f0f" stroke="#000" stroke-width="1.182" fill-rule="evenodd"/>
    <path id="Path_112" data-name="Path 112" d="M511.59,580.39l-13.139,8.094,10.345,8.609,13.8-7.88L511.59,580.39Z" transform="translate(-299.83 -237.411)" fill="#f0f" stroke="#000" stroke-width="1.182" fill-rule="evenodd"/>
    <path id="Path_113" data-name="Path 113" d="M523.63,590.11,509.776,598l12.7,10.707,14.079-8.055L523.629,590.11Z" transform="translate(-300.582 -237.411)" fill="#f0f" stroke="#000" stroke-width="1.182" fill-rule="evenodd"/>
    <path id="Path_114" data-name="Path 114" d="M426.55,512.04l-12.15,6.014-9.214-7.634,12.211-5.686,9.153,7.305Z" transform="translate(-294.268 -237.411)" fill="#f0f" stroke="#000" stroke-width="1.182" fill-rule="evenodd"/>
    <path id="Path_115" data-name="Path 115" d="M416.26,503.87l-8.731-7.043-12.49,5.346,9.079,7.364,12.142-5.667Z" transform="translate(-293.669 -237.411)" fill="#f0f" stroke="#000" stroke-width="1.182" fill-rule="evenodd"/>
    <path id="Path_116" data-name="Path 116" d="M406.35,495.93l-12.382,5.349-8.664-7.215,11.956-5.531,9.09,7.4Z" transform="translate(-293.095 -237.411)" fill="#f0f" stroke="#000" stroke-width="1.182" fill-rule="evenodd"/>
    <path id="Path_117" data-name="Path 117" d="M407.77,495.38l10.4-5.155-9.361-7.28-10.315,5,9.277,7.431Z" transform="translate(-293.849 -237.411)" fill="#f0f" stroke="#000" stroke-width="1.182" fill-rule="evenodd"/>
    <path id="Path_118" data-name="Path 118" d="M537.84,599.89l12.642-7.117-25.709-19.681-11.916,6.554L537.84,599.89Z" transform="translate(-301.123 -237.411)" fill="#f0f" stroke="#000" stroke-width="1.182" fill-rule="evenodd"/>
    <path id="Path_119" data-name="Path 119" d="M407.6,482l-10.146,4.975-24.3-19.632,10.513-4.118L407.6,482Z" transform="translate(-292.546 -237.411)" fill="#f0f" stroke="#000" stroke-width="1.182" fill-rule="evenodd"/>
    <path id="Path_120" data-name="Path 120" d="M398.35,473.13l-13.341-10.482,24.954-9.685,16.649,12.3-11.361,4.551-3.148-2.407-13.752,5.723Z" transform="translate(-293.37 -237.411)" fill="#f0f" stroke="#000" stroke-width="1.182" fill-rule="evenodd"/>
    <path id="Path_121" data-name="Path 121" d="M411.6,452.31l22.788,16.918,10.775-4.6-23.3-16.282L411.6,452.309Z" transform="translate(-294.861 -237.411)" fill="#f0f" stroke="#000" stroke-width="1.182" fill-rule="evenodd"/>
    <path id="Path_122" data-name="Path 122" d="M551.78,592.06l-22.091-16.94,14.032-7.388L565.849,584.2,551.78,592.06Z" transform="translate(-302.099 -237.411)" fill="#f0f" stroke="#000" stroke-width="1.182" fill-rule="evenodd"/>
    <path id="Path_123" data-name="Path 123" d="M567.28,583.5l-17.495-13.066,12.707-6.844,17.58,12.6-12.793,7.31Z" transform="translate(-303.096 -237.411)" fill="#f0f" stroke="#000" stroke-width="1.182" fill-rule="evenodd"/>
    <path id="Path_124" data-name="Path 124" d="M581.39,575.52l-12.846-9.245,12.145-6.7,12.7,9.125-12,6.822Z" transform="translate(-304.003 -237.411)" fill="#f0f" stroke="#000" stroke-width="1.182" fill-rule="evenodd"/>
    <path id="Path_125" data-name="Path 125" d="M579.42,558.77l-10.447-7.419L556.9,557.693l10.561,7.724,11.961-6.647Z" transform="translate(-303.226 -237.411)" fill="#f0f" stroke="#000" stroke-width="1.182" fill-rule="evenodd"/>
    <path id="Path_126" data-name="Path 126" d="M511.66,578.7l-9.531-7.615,12.335-6.288,9.207,7.377L511.66,578.7Z" transform="translate(-299.969 -237.411)" fill="#f0f" stroke="#000" stroke-width="1.182" fill-rule="evenodd"/>
    <path id="Path_127" data-name="Path 127" d="M528.56,574.2l-9.734-7.633,13.76-7.332,9.813,7.373L528.56,574.2Z" transform="translate(-301.016 -237.411)" fill="#f0f" stroke="#000" stroke-width="1.182" fill-rule="evenodd"/>
    <path id="Path_128" data-name="Path 128" d="M548.44,569.56l-9.769-7.408,12.783-6.763,9.759,7.265L548.44,569.56Z" transform="translate(-302.152 -237.411)" fill="#f0f" stroke="#000" stroke-width="1.182" fill-rule="evenodd"/>
    <path id="Path_129" data-name="Path 129" d="M567.74,550.53l-10.178-7.042-11.788,6.226,9.95,7.141,12.015-6.324Z" transform="translate(-302.55 -237.411)" fill="#f0f" stroke="#000" stroke-width="1.182" fill-rule="evenodd"/>
    <path id="Path_130" data-name="Path 130" d="M537.45,561.27l-9.807-7.561,12.364-6.389,10.292,7.265L537.45,561.27Z" transform="translate(-301.506 -237.411)" fill="#f0f" stroke="#000" stroke-width="1.182" fill-rule="evenodd"/>
    <path id="Path_131" data-name="Path 131" d="M556.3,542.64l-9.935-7.016-11.734,6.064,9.843,7.141L556.3,542.64Z" transform="translate(-301.884 -237.411)" fill="#f0f" stroke="#000" stroke-width="1.182" fill-rule="evenodd"/>
    <path id="Path_132" data-name="Path 132" d="M517.83,565.77l-9.962-7.785,13.684-7.027,9.813,7.373-13.534,7.44Z" transform="translate(-300.367 -237.411)" fill="#f0f" stroke="#000" stroke-width="1.182" fill-rule="evenodd"/>
    <path id="Path_133" data-name="Path 133" d="M500.82,570.21l-9.893-8.091,12.143-6.128,10.179,7.768-12.43,6.45Z" transform="translate(-299.333 -237.411)" fill="#f0f" stroke="#000" stroke-width="1.182" fill-rule="evenodd"/>
    <path id="Path_134" data-name="Path 134" d="M489.74,561.26l-10.312-8.281L491.419,547l10.446,8.035Z" transform="translate(-298.659 -237.411)" fill="#f0f" stroke="#000" stroke-width="1.182" fill-rule="evenodd"/>
    <path id="Path_135" data-name="Path 135" d="M478.2,552.08l-8.816-6.906,12.077-5.855,8.789,6.768L478.2,552.08Z" transform="translate(-298.027 -237.411)" fill="#f0f" stroke="#000" stroke-width="1.182" fill-rule="evenodd"/>
    <path id="Path_136" data-name="Path 136" d="M468.26,544.21l-9.839-7.821,11.915-5.756,9.91,7.724L468.26,544.21Z" transform="translate(-297.407 -237.411)" fill="#f0f" stroke="#000" stroke-width="1.182" fill-rule="evenodd"/>
    <path id="Path_137" data-name="Path 137" d="M457.49,535.49l-9.7-7.71,11.687-5.595,9.723,7.54-11.706,5.765Z" transform="translate(-296.772 -237.411)" fill="#f0f" stroke="#000" stroke-width="1.182" fill-rule="evenodd"/>
    <path id="Path_138" data-name="Path 138" d="M446.71,526.93l-8.962-7.123,11.659-5.374,8.871,6.909L446.71,526.93Z" transform="translate(-296.164 -237.411)" fill="#f0f" stroke="#000" stroke-width="1.182" fill-rule="evenodd"/>
    <path id="Path_139" data-name="Path 139" d="M436.66,518.93l-7.918-6.718,11.156-5.2,8.395,6.567L436.66,518.93Z" transform="translate(-295.616 -237.411)" fill="#f0f" stroke="#000" stroke-width="1.182" fill-rule="evenodd"/>
    <path id="Path_140" data-name="Path 140" d="M427.71,511.32l-8.984-7.137,11.042-4.973,8.928,6.91-10.986,5.2Z" transform="translate(-295.038 -237.411)" fill="#f0f" stroke="#000" stroke-width="1.182" fill-rule="evenodd"/>
    <path id="Path_141" data-name="Path 141" d="M417.62,503.28l-8.68-6.947,10.471-5.125,9.042,6.986L417.62,503.28Z" transform="translate(-294.457 -237.411)" fill="#f0f" stroke="#000" stroke-width="1.182" fill-rule="evenodd"/>
    <path id="Path_142" data-name="Path 142" d="M545.04,534.73l-10.8-7.554-11.25,5.849,10.327,7.841,11.719-6.135Z" transform="translate(-301.212 -237.411)" fill="#f0f" stroke="#000" stroke-width="1.182" fill-rule="evenodd"/>
    <path id="Path_143" data-name="Path 143" d="M533.05,526.29l-9.935-7.016-10.926,5.956,9.681,6.818,11.181-5.759Z" transform="translate(-300.539 -237.411)" fill="#f0f" stroke="#000" stroke-width="1.182" fill-rule="evenodd"/>
    <path id="Path_144" data-name="Path 144" d="M521.98,518.45l-10.393-7.285-10.928,5.889,10.408,7.356,10.913-5.961Z" transform="translate(-299.876 -237.411)" fill="#f0f" stroke="#000" stroke-width="1.182" fill-rule="evenodd"/>
    <path id="Path_145" data-name="Path 145" d="M510.42,510.34l-9.048-6.289-11.33,5.208,9.418,7,10.959-5.92Z" transform="translate(-299.226 -237.411)" fill="#f0f" stroke="#000" stroke-width="1.182" fill-rule="evenodd"/>
    <path id="Path_146" data-name="Path 146" d="M500.25,503.12l-9.881-6.854-11.2,5.095,9.681,7.087,11.4-5.328Z" transform="translate(-298.607 -237.411)" fill="#f0f" stroke="#000" stroke-width="1.182" fill-rule="evenodd"/>
    <path id="Path_147" data-name="Path 147" d="M489.21,495.47l-9.771-6.818-11.2,4.853,9.752,7.028,11.215-5.063Z" transform="translate(-297.963 -237.411)" fill="#f0f" stroke="#000" stroke-width="1.182" fill-rule="evenodd"/>
    <path id="Path_148" data-name="Path 148" d="M478.15,487.68l-9.935-7.016-11.034,4.879,9.842,7.141,11.127-5Z" transform="translate(-297.314 -237.411)" fill="#f0f" stroke="#000" stroke-width="1.182" fill-rule="evenodd"/>
    <path id="Path_149" data-name="Path 149" d="M466.93,479.78l-8.912-6.342-11.061,4.772,8.954,6.468,11.019-4.9Z" transform="translate(-296.691 -237.411)" fill="#f0f" stroke="#000" stroke-width="1.182" fill-rule="evenodd"/>
    <path id="Path_150" data-name="Path 150" d="M456.8,472.59l-10.406-7.123-10.9,4.637,10.071,7.329L456.8,472.59Z" transform="translate(-296.047 -237.411)" fill="#f0f" stroke="#000" stroke-width="1.182" fill-rule="evenodd"/>
    <path id="Path_151" data-name="Path 151" d="M520.49,550.14l-9.96-7.455-13.612,6.948,9.9,7.538,13.674-7.03Z" transform="translate(-299.722 -237.411)" fill="#f0f" stroke="#000" stroke-width="1.182" fill-rule="evenodd"/>
    <path id="Path_152" data-name="Path 152" d="M509.41,541.75l-9.477-6.965L486.4,541.523l9.448,7.257,13.563-7.03Z" transform="translate(-299.085 -237.411)" fill="#f0f" stroke="#000" stroke-width="1.182" fill-rule="evenodd"/>
    <path id="Path_153" data-name="Path 153" d="M498.76,533.92l-9.6-7.185-13.34,6.552,9.485,7.4,13.452-6.772Z" transform="translate(-298.46 -237.411)" fill="#f0f" stroke="#000" stroke-width="1.182" fill-rule="evenodd"/>
    <path id="Path_154" data-name="Path 154" d="M488.05,525.9l-13.3,6.522-8.695-6.7,13.221-6.4S488.013,525.937,488.05,525.9Z" transform="translate(-297.86 -237.411)" fill="#f0f" stroke="#000" stroke-width="1.182" fill-rule="evenodd"/>
    <path id="Path_155" data-name="Path 155" d="M478.23,518.37l-13.3,6.522-8.695-6.7,13.221-6.395s8.739,6.614,8.776,6.577Z" transform="translate(-297.282 -237.411)" fill="#f0f" stroke="#000" stroke-width="1.182" fill-rule="evenodd"/>
    <path id="Path_156" data-name="Path 156" d="M468.31,510.91l-13.191,6.411-9.358-7.415,12.776-6.017,9.773,7.021Z" transform="translate(-296.678 -237.411)" fill="#f0f" stroke="#000" stroke-width="1.182" fill-rule="evenodd"/>
    <path id="Path_157" data-name="Path 157" d="M457.33,502.96l-12.727,6.1-9.138-7.11,13.025-5.635,8.84,6.642Z" transform="translate(-296.057 -237.411)" fill="#f0f" stroke="#000" stroke-width="1.182" fill-rule="evenodd"/>
    <path id="Path_158" data-name="Path 158" d="M447.12,495.35l-12.779,5.686-8.59-6.6,12.8-5.507,8.567,6.42Z" transform="translate(-295.476 -237.411)" fill="#f0f" stroke="#000" stroke-width="1.182" fill-rule="evenodd"/>
    <path id="Path_159" data-name="Path 159" d="M437.38,488.06l-12.7,5.513-8.768-6.778,12.7-5.313,8.776,6.577Z" transform="translate(-294.9 -237.411)" fill="#f0f" stroke="#000" stroke-width="1.182" fill-rule="evenodd"/>
    <path id="Path_160" data-name="Path 160" d="M427.43,480.6l-12.649,5.32-7.44-5.711,12.542-5.324,7.548,5.715Z" transform="translate(-294.373 -237.411)" fill="#f0f" stroke="#000" stroke-width="1.182" fill-rule="evenodd"/>
    <path id="Path_161" data-name="Path 161" d="M418.66,473.96,406.3,479.384l-6.866-5.345,12.437-5.193,6.79,5.114Z" transform="translate(-293.897 -237.411)" fill="#f0f" stroke="#000" stroke-width="1.182" fill-rule="evenodd"/>
    <path id="Path_162" data-name="Path 162" d="M526.52,552.77l-9.807-7.561,12.364-6.389,10.292,7.265L526.52,552.77Z" transform="translate(-300.862 -237.411)" fill="#f0f" stroke="#000" stroke-width="1.182" fill-rule="evenodd"/>
    <path id="Path_163" data-name="Path 163" d="M515.28,544.19l-10.121-7.456,12.678-6.494,10.292,7.265L515.28,544.19Z" transform="translate(-300.191 -237.411)" fill="#f0f" stroke="#000" stroke-width="1.182" fill-rule="evenodd"/>
    <path id="Path_164" data-name="Path 164" d="M503.92,535.87l-10.225-7.4,12.364-6.024,10.03,7.056L503.92,535.87Z" transform="translate(-299.498 -237.411)" fill="#f0f" stroke="#000" stroke-width="1.182" fill-rule="evenodd"/>
    <path id="Path_165" data-name="Path 165" d="M492.6,527.49,482,519.781l12.05-5.946,10.809,7.708L492.6,527.49Z" transform="translate(-298.822 -237.411)" fill="#f0f" stroke="#000" stroke-width="1.182" fill-rule="evenodd"/>
    <path id="Path_166" data-name="Path 166" d="M480.96,518.82l-9.023-6.725,11.885-5.753,8.942,6.524-11.8,5.953Z" transform="translate(-298.176 -237.411)" fill="#f0f" stroke="#000" stroke-width="1.182" fill-rule="evenodd"/>
    <path id="Path_167" data-name="Path 167" d="M470.9,511.16l-8.788-6.307,11.606-5.762,8.881,6.429-11.7,5.64Z" transform="translate(-297.591 -237.411)" fill="#f0f" stroke="#000" stroke-width="1.182" fill-rule="evenodd"/>
    <path id="Path_168" data-name="Path 168" d="M460.82,503.93l-8.589-6.595,11.258-5.7,8.926,6.447-11.6,5.849Z" transform="translate(-297.005 -237.411)" fill="#f0f" stroke="#000" stroke-width="1.182" fill-rule="evenodd"/>
    <path id="Path_169" data-name="Path 169" d="M450.87,496.65l-8.846-6.748,11.234-5.357,8.888,6.3-11.276,5.8Z" transform="translate(-296.406 -237.411)" fill="#f0f" stroke="#000" stroke-width="1.182" fill-rule="evenodd"/>
    <path id="Path_170" data-name="Path 170" d="M440.94,488.92l-8.345-6.025,11.16-5.059,8.187,5.729-11,5.355Z" transform="translate(-295.838 -237.411)" fill="#f0f" stroke="#000" stroke-width="1.182" fill-rule="evenodd"/>
    <path id="Path_171" data-name="Path 171" d="M431.36,482l-7.3-5.575,10.953-4.978,7.574,5.541L431.36,482Z" transform="translate(-295.323 -237.411)" fill="#f0f" stroke="#000" stroke-width="1.182" fill-rule="evenodd"/>
    <path id="Path_172" data-name="Path 172" d="M422.95,475.57l-6.306-4.9,11.11-4.4,6.059,4.391L422.95,475.57Z" transform="translate(-294.867 -237.411)" fill="#f0f" stroke="#000" stroke-width="1.182" fill-rule="evenodd"/>
    <path id="Path_173" data-name="Path 173" d="M392.806,500.313l-6.363-5.3c-.632-.526-.453-1.267.4-1.663l8.78-4.062a2.936,2.936,0,0,1,2.829.217l6.676,5.433c.675.549.462,1.318-.473,1.722l-9.093,3.928a2.9,2.9,0,0,1-2.758-.277" transform="translate(-293.118 -237.411)" fill="gray" opacity="0.997"/>
    <path id="Path_174" data-name="Path 174" d="M470.844,544.471l9.19-4.456a2.583,2.583,0,0,1,2.469.112l6.688,5.15c.585.451.423,1.129-.365,1.522l-9.169,4.561a2.59,2.59,0,0,1-2.518-.106L470.43,546c-.58-.454-.394-1.136.414-1.528" transform="translate(-298.033 -237.411)" fill="gray" opacity="0.997"/>
    <path id="Path_175" data-name="Path 175" d="M456.9,473.915l-8.8,3.794c-.635.274-.741.788-.236,1.153l7.12,5.143a2.3,2.3,0,0,0,2.066.159l8.762-3.894c.618-.275.7-.787.2-1.149l-7.087-5.043a2.293,2.293,0,0,0-2.026-.163" transform="translate(-296.7 -237.411)" fill="gray" opacity="0.997"/>
    <path id="Path_176" data-name="Path 176" d="M498.572,535.465l-10.761,5.358c-.783.39-.991,1.03-.463,1.435l7.512,5.77a2.47,2.47,0,0,0,2.4.02l10.784-5.59c.754-.391.92-1.029.374-1.43l-7.535-5.538a2.46,2.46,0,0,0-2.313-.026" transform="translate(-299.087 -237.411)" fill="gray" opacity="0.997"/>
    <path id="Path_177" data-name="Path 177" d="M522.371,519.684l-9.475,5.165a.455.455,0,0,0-.063.839l8.4,5.913a1.444,1.444,0,0,0,1.365.079l9.7-4.994c.422-.217.468-.6.1-.857l-8.616-6.084a1.451,1.451,0,0,0-1.4-.061" transform="translate(-300.538 -237.411)" fill="gray" opacity="0.997"/>
    <path id="Path_178" data-name="Path 178" d="M510.73,598.81l10.759,9.073a1.934,1.934,0,0,0,2.06.215l11.932-6.826a.809.809,0,0,0,.07-1.431l-10.95-8.936a1.928,1.928,0,0,0-2.024-.19l-11.74,6.689a.8.8,0,0,0-.106,1.406" transform="translate(-300.58 -237.411)" fill="gray" opacity="0.997"/>
    <path id="Path_179" data-name="Path 179" d="M480.485,552.451l9.894-4.931a1.989,1.989,0,0,1,1.931.172l8.619,6.63a.687.687,0,0,1-.115,1.254l-10,5.134a1.994,1.994,0,0,1-1.994-.188l-8.508-6.833a.685.685,0,0,1,.178-1.238" transform="translate(-298.661 -237.411)" fill="gray" opacity="0.997"/>
    <path id="Path_180" data-name="Path 180" d="M510.722,511.636l-9.187,4.951a.571.571,0,0,0-.05,1.055l8.75,6.184a1.761,1.761,0,0,0,1.707.111l9.174-5.011a.571.571,0,0,0,.033-1.055l-8.737-6.124a1.76,1.76,0,0,0-1.69-.111" transform="translate(-299.876 -237.411)" fill="gray" opacity="0.997"/>
    <path id="Path_181" data-name="Path 181" d="M547.6,590.57l-20.279-15.524c-1.416-1.084-3.106-1.644-3.8-1.263l-9.4,5.172c-.7.384-.161,1.585,1.214,2.7l19.706,15.969c1.547,1.253,3.4,1.934,4.14,1.516l9.976-5.617c.735-.414.036-1.735-1.555-2.953" transform="translate(-301.114 -237.411)" fill="gray" opacity="0.997"/>
    <path id="Path_182" data-name="Path 182" d="M520.4,565.74l10.677-5.689a2.666,2.666,0,0,1,2.6,0l7.614,5.721c.618.464.436,1.212-.41,1.677l-10.738,5.891a2.666,2.666,0,0,1-2.682-.006l-7.553-5.923c-.6-.467-.375-1.214.492-1.675" transform="translate(-301.012 -237.411)" fill="gray" opacity="0.997"/>
    <path id="Path_183" data-name="Path 183" d="M528.92,553.05l9.831-5.081a2.41,2.41,0,0,1,2.278.065l8.182,5.776c.6.427.509,1.076-.218,1.455l-10.217,5.316a2.4,2.4,0,0,1-2.362-.117l-7.8-6.011c-.537-.414-.4-1.039.3-1.4" transform="translate(-301.5 -237.411)" fill="gray" opacity="0.997"/>
    <path id="Path_184" data-name="Path 184" d="M556.681,543.953l-10.027,5.3c-.487.257-.553.7-.148.989l8.464,6.074a1.719,1.719,0,0,0,1.651.07L566.842,551c.5-.262.554-.712.126-1.008L558.311,544a1.722,1.722,0,0,0-1.63-.052" transform="translate(-302.543 -237.411)" fill="gray" opacity="0.997"/>
    <path id="Path_185" data-name="Path 185" d="M488.28,580.01l8.2,6.9a2.03,2.03,0,0,0,2.214,0l10.717-6.617c.635-.392.739-1.032.237-1.437l-7.921-6.39a1.99,1.99,0,0,0-2.053-.056l-11,6.109c-.722.4-.9,1.066-.4,1.49" transform="translate(-299.15 -237.411)" fill="gray" opacity="0.997"/>
    <path id="Path_186" data-name="Path 186" d="M453.72,496.58l8.268-4.187a2.806,2.806,0,0,1,2.654.077L471.2,497.2c.671.485.526,1.224-.328,1.655l-8.516,4.3a2.787,2.787,0,0,1-2.7-.122l-6.308-4.843c-.618-.474-.448-1.192.379-1.61" transform="translate(-297.013 -237.411)" fill="gray" opacity="0.997"/>
    <path id="Path_187" data-name="Path 187" d="M463.48,504.17l8.832-4.385a2.637,2.637,0,0,1,2.471.073l6.759,4.893c.586.424.425,1.071-.36,1.449l-8.9,4.292a2.626,2.626,0,0,1-2.425-.086l-6.688-4.8c-.584-.419-.444-1.059.314-1.435" transform="translate(-297.598 -237.411)" fill="gray" opacity="0.997"/>
    <path id="Path_188" data-name="Path 188" d="M406.457,497.291l-10.25,4.387c-.643.275-.8.792-.352,1.156l7.451,6.044a2.019,2.019,0,0,0,1.947.134l9.964-4.651c.581-.271.7-.771.262-1.121l-7.166-5.781a1.991,1.991,0,0,0-1.857-.169" transform="translate(-293.686 -237.411)" fill="gray" opacity="0.997"/>
    <path id="Path_189" data-name="Path 189" d="M494.79,527.94l10.252-4.995a2.022,2.022,0,0,1,1.866.1l8.318,5.851c.48.338.42.844-.138,1.136L505,535.313a2.037,2.037,0,0,1-1.958-.078l-8.48-6.14c-.477-.346-.374-.861.229-1.155" transform="translate(-299.5 -237.411)" fill="gray" opacity="0.997"/>
    <path id="Path_190" data-name="Path 190" d="M467.1,481.158l-8.774,3.88c-.63.279-.694.825-.143,1.225l7.826,5.678a2.4,2.4,0,0,0,2.169.225l8.848-3.98c.627-.282.672-.834.1-1.237l-7.9-5.578a2.394,2.394,0,0,0-2.127-.212" transform="translate(-297.321 -237.411)" fill="gray" opacity="0.997"/>
    <path id="Path_191" data-name="Path 191" d="M478.307,489.137,469.4,493c-.645.28-.727.821-.182,1.214l7.754,5.588a2.414,2.414,0,0,0,2.182.2l8.917-4.026c.627-.283.676-.827.114-1.219l-7.769-5.421a2.41,2.41,0,0,0-2.114-.2" transform="translate(-297.968 -237.411)" fill="gray" opacity="0.997"/>
    <path id="Path_192" data-name="Path 192" d="M445.669,465.775l-9.452,4.021c-.4.171-.439.519-.08.78l8.734,6.356a1.62,1.62,0,0,0,1.441.18l9.743-4.2c.411-.177.423-.538.028-.809l-9.024-6.177a1.613,1.613,0,0,0-1.388-.151" transform="translate(-296.054 -237.411)" fill="gray" opacity="0.997"/>
    <path id="Path_193" data-name="Path 193" d="M509.6,543.164l-11.735,5.99c-.522.266-.64.711-.264,1l8.533,6.5a1.683,1.683,0,0,0,1.633.037l11.789-6.061c.52-.268.631-.714.248-1l-8.587-6.427a1.683,1.683,0,0,0-1.617-.033" transform="translate(-299.722 -237.411)" fill="gray" opacity="0.997"/>
    <path id="Path_194" data-name="Path 194" d="M489.521,496.651l-9.488,4.318c-.478.218-.543.627-.144.919l8.2,6.006a1.773,1.773,0,0,0,1.637.144l9.658-4.515c.476-.223.514-.641.086-.938l-8.374-5.808a1.77,1.77,0,0,0-1.579-.125" transform="translate(-298.609 -237.411)" fill="gray" opacity="0.997"/>
    <path id="Path_195" data-name="Path 195" d="M550.91,569.83l10.485-5.647a2.8,2.8,0,0,1,2.586.481l14.505,10.4c.876.628,1.093,1.414.483,1.762l-10.555,6.032a2.836,2.836,0,0,1-2.714-.526l-14.435-10.78c-.824-.615-.981-1.38-.355-1.717" transform="translate(-303.084 -237.411)" fill="gray" opacity="0.997"/>
    <path id="Path_196" data-name="Path 196" d="M568.366,551.67l-10.82,5.683c-.357.187-.4.515-.1.734l9.464,6.921a1.2,1.2,0,0,0,1.195.052l10.718-5.956a.4.4,0,0,0,.055-.727l-9.361-6.648a1.2,1.2,0,0,0-1.147-.059" transform="translate(-303.22 -237.411)" fill="gray" opacity="0.997"/>
    <path id="Path_197" data-name="Path 197" d="M540.03,561.43l10.087-5.337a2.414,2.414,0,0,1,2.355.055l7.7,5.733c.574.427.443,1.093-.3,1.492L549.8,568.823a2.419,2.419,0,0,1-2.4-.051l-7.709-5.846c-.567-.43-.414-1.1.34-1.5" transform="translate(-302.145 -237.411)" fill="gray" opacity="0.997"/>
    <path id="Path_198" data-name="Path 198" d="M509.46,557.17l10.616-5.452a2.656,2.656,0,0,1,2.565.053l7.614,5.721c.617.464.464,1.2-.349,1.643l-10.5,5.772a2.685,2.685,0,0,1-2.7-.023l-7.73-6.041c-.609-.476-.39-1.223.486-1.673" transform="translate(-300.366 -237.411)" fill="gray" opacity="0.997"/>
    <path id="Path_199" data-name="Path 199" d="M531.15,574.35l11.157-5.875c.786-.414,2.4-.013,3.628.9l17.594,13.092c1.285.956,1.69,2.082.9,2.522l-11.186,6.252c-.809.452-2.5.022-3.781-.962L531.9,576.809c-1.224-.939-1.556-2.035-.75-2.46" transform="translate(-302.087 -237.411)" fill="gray" opacity="0.997"/>
    <path id="Path_200" data-name="Path 200" d="M533.41,527.608l-9.569,4.975a.548.548,0,0,0-.1,1l8.784,6.669a1.712,1.712,0,0,0,1.681.15l9.969-5.219c.483-.253.5-.719.033-1.044l-9.183-6.425a1.7,1.7,0,0,0-1.612-.106" transform="translate(-301.208 -237.411)" fill="gray" opacity="0.997"/>
    <path id="Path_201" data-name="Path 201" d="M503.3,570.485l10.067-5.132a1.955,1.955,0,0,1,1.948.118l7.515,6.021c.468.375.368.936-.226,1.259l-9.8,5.326a1.976,1.976,0,0,1-2.012-.081l-7.779-6.215c-.486-.388-.355-.967.291-1.3" transform="translate(-299.97 -237.411)" fill="gray" opacity="0.997"/>
    <path id="Path_202" data-name="Path 202" d="M499.81,589.61l7.6,6.323a2.983,2.983,0,0,0,3.163.15l10.136-5.786c1.049-.6,1.235-1.615.414-2.273l-8.085-6.48a3.025,3.025,0,0,0-3.245-.041l-9.648,5.943c-.936.576-1.082,1.539-.331,2.164" transform="translate(-299.827 -237.411)" fill="gray" opacity="0.997"/>
    <path id="Path_203" data-name="Path 203" d="M477.74,571.18l7.359,6.2a2.612,2.612,0,0,0,2.759.089l10.164-5.73c.887-.5,1.068-1.339.406-1.88L490.9,563.71a2.625,2.625,0,0,0-2.743-.059l-10,5.679c-.867.492-1.055,1.317-.422,1.85" transform="translate(-298.512 -237.411)" fill="gray" opacity="0.997"/>
    <path id="Path_204" data-name="Path 204" d="M492.023,561.561l9.967-5.03a2.016,2.016,0,0,1,1.96.132l8.354,6.375c.521.4.451.973-.159,1.289l-10.2,5.294a2.018,2.018,0,0,1-2.043-.163l-8.119-6.64c-.477-.39-.368-.951.242-1.258" transform="translate(-299.333 -237.411)" fill="gray" opacity="0.997"/>
    <path id="Path_205" data-name="Path 205" d="M545.367,536.141l-9.731,5.029c-.558.288-.637.789-.177,1.123l8.162,5.922a1.937,1.937,0,0,0,1.866.086l9.808-5.133c.556-.291.621-.8.145-1.131l-8.239-5.818a1.936,1.936,0,0,0-1.834-.077" transform="translate(-301.879 -237.411)" fill="gray" opacity="0.997"/>
    <path id="Path_206" data-name="Path 206" d="M506.47,536.07l10.081-5.164a2.468,2.468,0,0,1,2.325.071l8.183,5.777c.594.419.491,1.06-.233,1.437l-10.217,5.316a2.465,2.465,0,0,1-2.381-.088l-8.047-5.929c-.565-.416-.435-1.049.29-1.42" transform="translate(-300.189 -237.411)" fill="gray" opacity="0.997"/>
    <path id="Path_207" data-name="Path 207" d="M517.98,544.55l9.831-5.081a2.41,2.41,0,0,1,2.278.065l8.182,5.776c.6.427.509,1.076-.218,1.455l-10.217,5.316a2.4,2.4,0,0,1-2.363-.117l-7.8-6.011c-.537-.414-.4-1.039.3-1.4" transform="translate(-300.857 -237.411)" fill="gray" opacity="0.997"/>
    <path id="Path_208" data-name="Path 208" d="M413.783,517.544l-7.99-6.62c-.333-.276-.229-.672.232-.886l10.589-4.931a1.444,1.444,0,0,1,1.386.11l7.938,6.335c.342.273.268.666-.166.881l-10.536,5.216a1.454,1.454,0,0,1-1.452-.1" transform="translate(-294.279 -237.411)" fill="gray" opacity="0.997"/>
    <path id="Path_209" data-name="Path 209" d="M435.14,468.9l9.289-3.965c.405-.173-.046-.855-1-1.525l-20.074-14.031a3.274,3.274,0,0,0-2.182-.769l-8.853,3.416c-.4.154-.073.756.732,1.354l19.637,14.579c.939.7,2.037,1.118,2.455.94" transform="translate(-294.873 -237.411)" fill="gray" opacity="0.997"/>
    <path id="Path_210" data-name="Path 210" d="M569.48,565.75l10.293-5.679a1.935,1.935,0,0,1,1.884.19l10.766,7.733c.537.386.566.926.065,1.211l-10.171,5.781a1.932,1.932,0,0,1-1.907-.18l-10.887-7.835c-.542-.39-.561-.935-.042-1.221" transform="translate(-303.993 -237.411)" fill="gray" opacity="0.997"/>
    <path id="Path_211" data-name="Path 211" d="M386.86,461.93l20.539-7.972a4.8,4.8,0,0,1,3.981.056l13.737,10.149c.825.61.993,1.134-.606,1.579l-7.81,3.192c-1.263.516-1.261.543-2.358-.256l-1.462-1.065a2.755,2.755,0,0,0-2.3.119l-10.581,4.559c-1.167.325-2.181.424-2.839-.094l-11.008-8.649c-.634-.5-.322-1.217.712-1.618" transform="translate(-293.395 -237.411)" fill="gray"/>
    <path id="Path_212" data-name="Path 212" d="M438.906,519.581l9.8-4.518a1.7,1.7,0,0,1,1.61.126L457.775,521c.395.308.311.749-.189.991l-9.725,4.7a1.712,1.712,0,0,1-1.662-.118l-7.534-5.988c-.392-.312-.284-.757.241-1" transform="translate(-296.184 -237.411)" fill="gray" opacity="0.997"/>
    <path id="Path_213" data-name="Path 213" d="M483.26,519.16l9.509-4.692a2.58,2.58,0,0,1,2.409.174l8.53,6.083c.637.454.569,1.1-.151,1.451l-9.673,4.692a2.579,2.579,0,0,1-2.411-.2l-8.366-6.083c-.614-.446-.545-1.083.154-1.428" transform="translate(-298.824 -237.411)" fill="gray" opacity="0.997"/>
    <path id="Path_214" data-name="Path 214" d="M487.69,527.46l-10.351,5.084c-.837.411-1.047,1.106-.467,1.559l7.359,5.745a2.68,2.68,0,0,0,2.605.075l10.438-5.254c.825-.415,1-1.115.4-1.567l-7.446-5.575a2.68,2.68,0,0,0-2.535-.067" transform="translate(-298.464 -237.411)" fill="gray" opacity="0.997"/>
    <path id="Path_215" data-name="Path 215" d="M500.288,504.543l-9,4.139c-.687.316-.828.882-.309,1.268l7.488,5.567a2.237,2.237,0,0,0,2.2.088l8.709-4.7a.662.662,0,0,0,.09-1.226l-7.194-5a2.208,2.208,0,0,0-1.982-.129" transform="translate(-299.229 -237.411)" fill="gray" opacity="0.997"/>
    <path id="Path_216" data-name="Path 216" d="M395.56,485.44l-20.668-16.7c-.966-.78-1.379-1.548-.931-1.723l8.942-3.5c.422-.165,1.526.3,2.478,1.048l20.357,15.969c1.029.807,1.534,1.62,1.127,1.819l-8.63,4.231c-.433.212-1.628-.3-2.674-1.145" transform="translate(-292.569 -237.411)" fill="gray" opacity="0.997"/>
    <path id="Path_217" data-name="Path 217" d="M443.56,489.17l8.25-3.934a2.82,2.82,0,0,1,2.589.125l6.527,4.63c.672.476.571,1.193-.232,1.606l-8.28,4.259a2.83,2.83,0,0,1-2.759-.127l-6.5-4.955c-.633-.482-.45-1.2.4-1.6" transform="translate(-296.417 -237.411)" fill="gray" opacity="0.997"/>
    <path id="Path_218" data-name="Path 218" d="M459.679,535.779l9.4-4.543a2.371,2.371,0,0,1,2.286.2l7.82,6.1c.584.455.493,1.1-.2,1.436l-9.459,4.62a2.372,2.372,0,0,1-2.316-.212l-7.764-6.172c-.57-.453-.465-1.089.234-1.427" transform="translate(-297.414 -237.411)" fill="gray" opacity="0.997"/>
    <path id="Path_219" data-name="Path 219" d="M463.94,524.14l-6.747-5.2c-.534-.412-.3-1.065.527-1.465l10.259-4.962a2.622,2.622,0,0,1,2.444.018l6.809,5.1c.55.412.333,1.068-.486,1.47l-10.322,5.06a2.619,2.619,0,0,1-2.485-.023" transform="translate(-297.29 -237.411)" fill="gray" opacity="0.997"/>
    <path id="Path_220" data-name="Path 220" d="M453.82,516.3l-6.871-5.445c-.664-.526-.427-1.309.525-1.757l9.383-4.419a3.191,3.191,0,0,1,2.922.11l7.177,5.155c.745.535.579,1.342-.378,1.807l-9.688,4.708a3.171,3.171,0,0,1-3.069-.159" transform="translate(-296.688 -237.411)" fill="gray" opacity="0.997"/>
    <path id="Path_221" data-name="Path 221" d="M429.91,511.666l8.8-4.1a2.15,2.15,0,0,1,2.039.118l6.624,5.182c.506.4.364.969-.319,1.284l-9.18,4.224a2.126,2.126,0,0,1-2.082-.171l-6.248-5.3c-.448-.38-.286-.928.362-1.23" transform="translate(-295.626 -237.411)" fill="gray" opacity="0.997"/>
    <path id="Path_222" data-name="Path 222" d="M419.99,503.61l8.568-3.858a2.354,2.354,0,0,1,2.2.219l6.928,5.362c.56.434.475,1.037-.194,1.354l-8.524,4.035a2.361,2.361,0,0,1-2.274-.215l-6.971-5.538c-.551-.438-.431-1.044.268-1.358" transform="translate(-295.053 -237.411)" fill="gray" opacity="0.997"/>
    <path id="Path_223" data-name="Path 223" d="M443.37,508.105l-6.711-5.222c-.664-.516-.385-1.282.616-1.716l9.563-4.137a3.109,3.109,0,0,1,2.808.157l6.493,4.878c.658.494.474,1.236-.421,1.665l-9.344,4.481a3.16,3.16,0,0,1-3-.107" transform="translate(-296.073 -237.411)" fill="gray" opacity="0.997"/>
    <path id="Path_224" data-name="Path 224" d="M473.82,531.71l-6.861-5.29c-.5-.388-.281-1,.5-1.379l10.433-5.047a2.467,2.467,0,0,1,2.3.017l6.925,5.19c.518.388.314,1-.458,1.383l-10.5,5.146a2.465,2.465,0,0,1-2.339-.021" transform="translate(-297.865 -237.411)" fill="gray" opacity="0.997"/>
    <path id="Path_225" data-name="Path 225" d="M449.11,527.14l9.068-4.341a2.474,2.474,0,0,1,2.371.216l7.544,5.851a.816.816,0,0,1-.2,1.492l-9.083,4.473a2.478,2.478,0,0,1-2.426-.22l-7.529-5.982c-.6-.473-.484-1.137.249-1.488" transform="translate(-296.782 -237.411)" fill="gray" opacity="0.997"/>
    <path id="Path_226" data-name="Path 226" d="M473.54,511.31l8.728-4.225a2.921,2.921,0,0,1,2.726.109l6.568,4.792c.663.484.512,1.219-.341,1.649l-8.669,4.372a2.934,2.934,0,0,1-2.805-.095l-6.627-4.939c-.659-.491-.47-1.233.42-1.664" transform="translate(-298.182 -237.411)" fill="gray" opacity="0.997"/>
    <path id="Path_227" data-name="Path 227" d="M416.906,489.249l-6.875-5.347a2.683,2.683,0,0,0-2.584-.294l-7.576,3.675a.9.9,0,0,0-.166,1.642l6.813,5.457a2.687,2.687,0,0,0,2.641.311l7.638-3.786c.759-.376.807-1.117.109-1.659" transform="translate(-293.869 -237.411)" fill="gray" opacity="0.997"/>
    <path id="Path_228" data-name="Path 228" d="M425.51,475.77l8.045-3.656a2.725,2.725,0,0,1,2.457.057l5.563,4.069c.565.414.35,1.047-.482,1.419l-8.247,3.682a2.692,2.692,0,0,1-2.462-.092l-5.361-4.095c-.529-.4-.311-1.021.488-1.384" transform="translate(-295.337 -237.411)" fill="gray" opacity="0.997"/>
    <path id="Path_229" data-name="Path 229" d="M405.376,478.664l-5.043-3.926c-.5-.389-.143-1.019.8-1.411l9.134-3.814a2.9,2.9,0,0,1,2.5,0l4.987,3.756c.5.38.2,1-.685,1.386l-9.078,3.983a2.939,2.939,0,0,1-2.609.024" transform="translate(-293.915 -237.411)" fill="gray" opacity="0.997"/>
    <path id="Path_230" data-name="Path 230" d="M413.79,485.16l-5.465-4.194c-.545-.418-.245-1.068.674-1.458l9.211-3.91a3.034,3.034,0,0,1,2.671.045l5.543,4.2c.557.422.254,1.079-.681,1.472l-9.29,3.907a3.015,3.015,0,0,1-2.664-.059" transform="translate(-294.391 -237.411)" fill="gray" opacity="0.997"/>
    <path id="Path_231" data-name="Path 231" d="M418.437,470.151l8.153-3.232a2.584,2.584,0,0,1,2.16.027l4.45,3.225c.454.329.227.863-.518,1.2l-7.972,3.6a2.689,2.689,0,0,1-2.408.036l-4.631-3.6c-.454-.353-.108-.917.766-1.264" transform="translate(-294.893 -237.411)" fill="gray" opacity="0.997"/>
    <path id="Path_232" data-name="Path 232" d="M434.13,482.2l8.2-3.715a2.816,2.816,0,0,1,2.508.1l6.013,4.208c.609.426.471,1.076-.313,1.457l-8.079,3.932a2.84,2.84,0,0,1-2.631-.075l-6.129-4.425c-.607-.438-.41-1.1.436-1.484" transform="translate(-295.852 -237.411)" fill="gray" opacity="0.997"/>
    <path id="Path_233" data-name="Path 233" d="M410.31,495.67l7.69-3.764a2.688,2.688,0,0,1,2.594.221l6.641,5.131c.675.522.567,1.249-.243,1.629l-7.957,3.735a2.681,2.681,0,0,1-2.585-.273l-6.375-5.1c-.629-.5-.525-1.206.233-1.577" transform="translate(-294.475 -237.411)" fill="gray" opacity="0.997"/>
    <path id="Path_234" data-name="Path 234" d="M433.19,500.15l-6.309-4.847c-.626-.481-.359-1.2.6-1.611l9.4-4.044a3.127,3.127,0,0,1,2.8.125l6.292,4.715c.635.476.4,1.191-.522,1.6l-9.386,4.176a3.14,3.14,0,0,1-2.875-.117" transform="translate(-295.492 -237.411)" fill="gray" opacity="0.997"/>
    <path id="Path_235" data-name="Path 235" d="M423.5,492.66l-6.44-4.978c-.638-.493-.385-1.209.563-1.606l9.324-3.9a3.16,3.16,0,0,1,2.81.169l6.445,4.831c.653.489.44,1.2-.48,1.6l-9.329,4.049a3.169,3.169,0,0,1-2.893-.167" transform="translate(-294.918 -237.411)" fill="gray" opacity="0.997"/>
    <g id="Group_29" data-name="Group 29" transform="translate(294.345 367.748) rotate(180)">
      <path id="Path_236" data-name="Path 236" d="M20.773,7.819,11.91.345a1.593,1.593,0,0,0-1.7-.177L.384,5.791A.667.667,0,0,0,.327,6.97l9.02,7.361a1.589,1.589,0,0,0,1.667.157l9.671-5.51a.661.661,0,0,0,.087-1.158" transform="translate(57.528)" fill="#4d4d4d" opacity="0.997"/>
      <path id="Path_237" data-name="Path 237" d="M1.682,7.913l18.457,14.13c1.289.987,2.827,1.5,3.459,1.149l8.559-4.707c.636-.35.147-1.443-1.105-2.458L13.114,1.492C11.707.351,10.021-.268,9.346.112L.266,5.224C-.4,5.6.233,6.8,1.681,7.912" transform="translate(43.381 8.195)" fill="#4d4d4d" opacity="0.997"/>
      <path id="Path_238" data-name="Path 238" d="M30.332,15.372l-10.047,5.29c-.707.373-2.163.012-3.267-.81L1.174,8.062C.017,7.2-.347,6.188.362,5.791L10.436.162c.729-.407,2.249-.02,3.4.866L29.657,13.157c1.1.845,1.4,1.832.675,2.215" transform="translate(28.093 16.048)" fill="#4d4d4d" opacity="0.997"/>
      <path id="Path_239" data-name="Path 239" d="M24.653,11.45l-9.1,4.9a2.433,2.433,0,0,1-2.244-.418L.72,6.911C-.04,6.366-.229,5.683.3,5.381L9.462.146A2.462,2.462,0,0,1,11.817.6L24.345,9.96c.715.534.851,1.2.308,1.491" transform="translate(13.801 24.652)" fill="#4d4d4d" opacity="0.997"/>
      <path id="Path_240" data-name="Path 240" d="M20.163,8.122l-8.882,4.9a1.669,1.669,0,0,1-1.626-.164L.365,6.185C-.1,5.852-.124,5.386.309,5.14L9.087.151a1.667,1.667,0,0,1,1.645.155l9.4,6.761c.468.337.484.807.036,1.054" transform="translate(0 32.088)" fill="#4d4d4d" opacity="0.997"/>
      <path id="Path_241" data-name="Path 241" d="M19.6,6.156,12.777.476A2.679,2.679,0,0,0,9.937.341l-9.1,5.2C-.11,6.077-.278,6.989.46,7.581L7.723,13.4a2.717,2.717,0,0,0,2.915.037L19.3,8.1c.84-.518.972-1.383.3-1.944" transform="translate(70.723 10.259)" fill="#4d4d4d" opacity="0.997"/>
      <path id="Path_242" data-name="Path 242" d="M19.284,6.426,11.99.292a1.8,1.8,0,0,0-1.969,0L.493,6.173c-.565.349-.657.918-.211,1.278l7.043,5.681a1.769,1.769,0,0,0,1.825.05L18.93,7.75c.642-.357.8-.948.354-1.324" transform="translate(82.472 19.603)" fill="#4d4d4d" opacity="0.997"/>
      <path id="Path_243" data-name="Path 243" d="M18.659,5.873,12.147.386A2.311,2.311,0,0,0,9.705.308L.712,5.378C-.073,5.82-.233,6.563.353,7.042l6.66,5.441a2.322,2.322,0,0,0,2.427.052L18.285,7.51c.767-.436.933-1.165.373-1.637" transform="translate(93.636 29.023)" fill="#4d4d4d" opacity="0.997"/>
      <path id="Path_244" data-name="Path 244" d="M17.305,6.832l-8.788,4.48a1.707,1.707,0,0,1-1.7-.1L.257,5.954c-.409-.328-.321-.818.2-1.1L9.012.2a1.725,1.725,0,0,1,1.757.071L17.559,5.7c.424.339.31.844-.254,1.132" transform="translate(69.399 28.525)" fill="#4d4d4d" opacity="0.997"/>
      <path id="Path_245" data-name="Path 245" d="M19.033,7.127l-9.56,5.094a2.385,2.385,0,0,1-2.328,0L.328,7.1C-.225,6.68-.063,6.01.7,5.594L10.31.32a2.389,2.389,0,0,1,2.4,0l6.762,5.3c.533.418.335,1.087-.44,1.5" transform="translate(50.724 32.931)" fill="#4d4d4d" opacity="0.997"/>
      <path id="Path_246" data-name="Path 246" d="M9.489,11.97l9.577-5.03c.316-.166.356-.455.091-.65L10.781.164A1.066,1.066,0,0,0,9.724.118L.238,5.39a.351.351,0,0,0-.049.644l8.285,5.884a1.061,1.061,0,0,0,1.015.052" transform="translate(13.39 41.538)" fill="#4d4d4d" opacity="0.997"/>
      <path id="Path_247" data-name="Path 247" d="M18.245,6.839l-8.978,4.75a2.149,2.149,0,0,1-2.1-.049L.318,6.438c-.511-.38-.394-.973.263-1.328L9.552.259A2.153,2.153,0,0,1,11.686.3l6.861,5.2c.5.382.369.976-.3,1.331" transform="translate(31.855 37.514)" fill="#4d4d4d" opacity="0.997"/>
      <path id="Path_248" data-name="Path 248" d="M18.382,6.916,9.647,11.43a2.141,2.141,0,0,1-2.024-.057L.353,6.241C-.184,5.862-.1,5.285.547,4.949L9.624.226a2.129,2.129,0,0,1,2.1.1L18.65,5.67c.477.368.356.923-.269,1.246" transform="translate(42.805 45.794)" fill="#4d4d4d" opacity="0.997"/>
      <path id="Path_249" data-name="Path 249" d="M9.537,11.37l9.044-4.776c.439-.232.5-.63.133-.892L11.08.223A1.55,1.55,0,0,0,9.591.16L.373,5.011c-.449.236-.5.642-.114.909l7.808,5.4a1.553,1.553,0,0,0,1.47.047" transform="translate(24.998 49.858)" fill="#4d4d4d" opacity="0.997"/>
      <path id="Path_250" data-name="Path 250" d="M9.266,11.019l8.678-4.484c.5-.257.568-.7.158-1L10.823.253A1.727,1.727,0,0,0,9.159.176L.413,4.754c-.5.26-.553.71-.13,1.009l7.347,5.188a1.727,1.727,0,0,0,1.635.069" transform="translate(36.579 58.025)" fill="#4d4d4d" opacity="0.997"/>
      <path id="Path_251" data-name="Path 251" d="M10.157,11.813l8.73-4.539a.5.5,0,0,0,.093-.912L10.967.278A1.561,1.561,0,0,0,9.434.141L.34,4.9c-.441.231-.454.656-.03.953l8.377,5.861a1.554,1.554,0,0,0,1.471.1" transform="translate(47.603 65.756)" fill="#4d4d4d" opacity="0.997"/>
      <path id="Path_252" data-name="Path 252" d="M18.876,7.1l-8.97,4.635a2.2,2.2,0,0,1-2.079-.059L.362,6.409c-.552-.389-.464-.982.2-1.327L9.883.232a2.187,2.187,0,0,1,2.156.106l7.114,5.484c.49.378.366.948-.276,1.28" transform="translate(53.487 53.979)" fill="#4d4d4d" opacity="0.997"/>
      <path id="Path_253" data-name="Path 253" d="M18.935,7.233,9.441,12.109a2.375,2.375,0,0,1-2.294-.047L.338,6.946c-.552-.415-.415-1.07.312-1.47L10.041.314a2.4,2.4,0,0,1,2.416.021l6.913,5.4c.545.426.349,1.094-.435,1.5" transform="translate(61.754 41.373)" fill="#4d4d4d" opacity="0.997"/>
      <path id="Path_254" data-name="Path 254" d="M18.391,7.367,9.506,11.851a1.8,1.8,0,0,1-1.747-.118L.311,6.049c-.464-.354-.4-.867.142-1.149L9.548.18a1.8,1.8,0,0,1,1.821.145l7.238,5.919c.425.348.328.848-.216,1.122" transform="translate(79.719 36.803)" fill="#4d4d4d" opacity="0.997"/>
      <path id="Path_255" data-name="Path 255" d="M.5,7.412,56.752,52.535a3.228,3.228,0,0,0,3.111.025l7.482-3.671c1.069-.528,1.4-1.393.737-1.94L12.683.534A3.4,3.4,0,0,0,9.137.457L1.015,5.08C-.1,5.709-.331,6.749.5,7.412" transform="translate(105.111 38.338)" fill="#4d4d4d"/>
      <path id="Path_256" data-name="Path 256" d="M18.553,7.53l-8.826,4.4a1.775,1.775,0,0,1-1.722-.153L.318,5.861a.613.613,0,0,1,.1-1.119L9.344.163a1.779,1.779,0,0,1,1.778.168l7.589,6.095a.611.611,0,0,1-.159,1.1" transform="translate(91.088 45.734)" fill="#4d4d4d" opacity="0.997"/>
      <path id="Path_257" data-name="Path 257" d="M9.306,10.995l8.589-4.682a.413.413,0,0,0,.058-.76L10.342.194A1.309,1.309,0,0,0,9.1.122L.316,4.648c-.382.2-.424.544-.093.777l7.81,5.515a1.315,1.315,0,0,0,1.273.055" transform="translate(59.524 74.5)" fill="#4d4d4d" opacity="0.997"/>
      <path id="Path_258" data-name="Path 258" d="M18.467,6.779,9.592,11.326a2.173,2.173,0,0,1-2.047-.062L.339,6.177c-.523-.369-.432-.934.205-1.265l9-4.68a2.171,2.171,0,0,1,2.1.077l7.086,5.22c.5.366.383.924-.255,1.25" transform="translate(65.069 62.964)" fill="#4d4d4d" opacity="0.997"/>
      <path id="Path_259" data-name="Path 259" d="M9.255,12.167,19.667,6.853c.463-.236.568-.631.235-.884L12.331.2A1.493,1.493,0,0,0,10.881.17L.422,5.548c-.462.237-.56.633-.22.888l7.618,5.7a1.493,1.493,0,0,0,1.434.029" transform="translate(72.471 49.854)" fill="#4d4d4d" opacity="0.997"/>
      <path id="Path_260" data-name="Path 260" d="M9.039,11.451,18.6,6.689c.7-.347.881-.916.412-1.276L12.338.284A2.2,2.2,0,0,0,10.2.266L.618,5.234c-.67.348-.817.914-.332,1.271l6.7,4.922a2.187,2.187,0,0,0,2.055.023" transform="translate(83.687 58.279)" fill="#4d4d4d" opacity="0.997"/>
      <path id="Path_261" data-name="Path 261" d="M16.889,6.468l-8.3,4.024a2.333,2.333,0,0,1-2.23-.1L.317,5.74c-.529-.407-.382-1.02.33-1.374L8.929.246a2.34,2.34,0,0,1,2.274.1l6.06,4.747c.524.41.356,1.026-.374,1.38" transform="translate(102.621 54.681)" fill="#4d4d4d" opacity="0.997"/>
      <path id="Path_262" data-name="Path 262" d="M9.784,11.337l8.351-4.5a.519.519,0,0,0,.045-.959L10.227.255a1.6,1.6,0,0,0-1.552-.1L.336,4.71a.519.519,0,0,0-.03.959l7.942,5.567a1.6,1.6,0,0,0,1.536.1" transform="translate(70.661 82.206)" fill="#4d4d4d" opacity="0.997"/>
      <path id="Path_263" data-name="Path 263" d="M18.551,6.778,9.39,11.241a1.807,1.807,0,0,1-1.668-.087L.289,5.926c-.429-.3-.375-.754.123-1.015L9.429.19a1.82,1.82,0,0,1,1.749.07l7.577,5.486c.427.309.334.769-.2,1.032" transform="translate(76.807 70.998)" fill="#4d4d4d" opacity="0.997"/>
      <path id="Path_264" data-name="Path 264" d="M9.263,11.432l9.273-4.554c.75-.368.938-.991.418-1.4L12.362.334A2.4,2.4,0,0,0,10.028.267L.677,4.974c-.739.372-.9,1-.355,1.4l6.67,4.994a2.4,2.4,0,0,0,2.271.06" transform="translate(94.309 66.3)" fill="#4d4d4d" opacity="0.997"/>
      <path id="Path_265" data-name="Path 265" d="M17.939,7.23l-8.479,4.1A2.138,2.138,0,0,1,7.4,11.143L.347,5.647c-.526-.41-.445-.988.184-1.295L9.06.186a2.139,2.139,0,0,1,2.089.191l7,5.565c.514.408.419.982-.211,1.287" transform="translate(112.657 62.622)" fill="#4d4d4d" opacity="0.997"/>
      <path id="Path_266" data-name="Path 266" d="M12.078.27l6.1,4.705c.447.345.25.892-.442,1.226L8.46,10.69a2.195,2.195,0,0,1-2.046-.015L.254,6.058c-.46-.345-.279-.894.407-1.23L10,.25a2.193,2.193,0,0,1,2.08.019" transform="translate(104.962 74.514)" fill="#4d4d4d" opacity="0.997"/>
      <path id="Path_267" data-name="Path 267" d="M19.013,7.209l-8.657,4.272a2.349,2.349,0,0,1-2.193-.158L.4,5.785c-.58-.413-.518-1,.138-1.321L9.341.192a2.347,2.347,0,0,1,2.2.18l7.616,5.538c.559.406.5.986-.14,1.3" transform="translate(88.043 79.232)" fill="#4d4d4d" opacity="0.997"/>
      <path id="Path_268" data-name="Path 268" d="M8.678,10.278l8.184-3.762c.624-.287.753-.8.281-1.152L10.337.3a2.034,2.034,0,0,0-2-.08L.42,4.5A.6.6,0,0,0,.338,5.615L6.877,10.16a2.007,2.007,0,0,0,1.8.117" transform="translate(82.26 90.358)" fill="#4d4d4d" opacity="0.997"/>
      <path id="Path_269" data-name="Path 269" d="M16.762,6.37,8.825,10.212a2.656,2.656,0,0,1-2.479-.1L.375,5.755c-.6-.44-.466-1.108.31-1.5L8.567.28a2.668,2.668,0,0,1,2.551.086l6.026,4.491c.6.446.427,1.121-.382,1.513" transform="translate(100.116 87.891)" fill="#4d4d4d" opacity="0.997"/>
      <path id="Path_270" data-name="Path 270" d="M9.147,10.283,17.614,6.43c.427-.194.485-.56.129-.82L10.421.25A1.582,1.582,0,0,0,8.96.122L.342,4.151c-.425.2-.459.572-.076.837l7.472,5.183a1.58,1.58,0,0,0,1.409.112" transform="translate(92.535 98.244)" fill="#4d4d4d" opacity="0.997"/>
      <path id="Path_271" data-name="Path 271" d="M17.763,7.245,9.456,11.222a2.266,2.266,0,0,1-2.172-.2L.372,5.665A.748.748,0,0,1,.551,4.3L8.872.2a2.27,2.27,0,0,1,2.222.2l6.9,5.48c.546.434.443,1.042-.228,1.363" transform="translate(123.563 71.16)" fill="#4d4d4d" opacity="0.997"/>
      <path id="Path_272" data-name="Path 272" d="M12.32.292,18.433,5c.484.373.271.965-.478,1.327l-9.3,4.5a2.376,2.376,0,0,1-2.214-.016L.275,6.188c-.5-.373-.3-.967.441-1.332L10.069.271A2.373,2.373,0,0,1,12.32.292" transform="translate(114.651 81.856)" fill="#4d4d4d" opacity="0.997"/>
      <path id="Path_273" data-name="Path 273" d="M17.107,6.5l-8.77,4.043A1.524,1.524,0,0,1,6.9,10.43L.223,5.233c-.353-.275-.278-.671.169-.887l8.7-4.2a1.532,1.532,0,0,1,1.487.105l6.742,5.358c.351.279.254.678-.216.894" transform="translate(134.229 79.572)" fill="#4d4d4d" opacity="0.997"/>
      <path id="Path_274" data-name="Path 274" d="M15.78,6.121,7.962,9.766a1.909,1.909,0,0,1-1.811-.1L.269,5.06C-.18,4.708-.054,4.2.552,3.92L8.7.169a1.888,1.888,0,0,1,1.849.152L16.1,5.029c.4.338.254.824-.321,1.093" transform="translate(144.571 87.858)" fill="#4d4d4d" opacity="0.997"/>
      <path id="Path_275" data-name="Path 275" d="M10.856.218l7.013,5.81c.293.242.2.589-.2.778L8.372,11.134a1.268,1.268,0,0,1-1.216-.1L.189,5.477c-.3-.24-.235-.584.146-.773L9.582.126a1.277,1.277,0,0,1,1.274.092" transform="translate(166.328 88.939)" fill="#4d4d4d" opacity="0.997"/>
      <path id="Path_276" data-name="Path 276" d="M8.4,10.772,17.673,6.8c.582-.249.725-.716.318-1.046L11.25.289A1.827,1.827,0,0,0,9.489.168L.475,4.375c-.525.245-.63.7-.237,1.014l6.483,5.23a1.8,1.8,0,0,0,1.68.153" transform="translate(176.44 97.116)" fill="#4d4d4d" opacity="0.997"/>
      <path id="Path_277" data-name="Path 277" d="M11.478.45l5.743,4.782c.57.475.409,1.143-.364,1.5L8.933,10.4a2.649,2.649,0,0,1-2.553-.2L.356,5.3c-.609-.5-.417-1.19.427-1.554L8.989.2a2.619,2.619,0,0,1,2.489.25" transform="translate(186.647 105.502)" fill="#4d4d4d" opacity="0.997"/>
      <path id="Path_278" data-name="Path 278" d="M8.931,9.593,16.67,6.239c.561-.243.632-.713.158-1.055L10.087.326a2.1,2.1,0,0,0-1.9-.177L.439,3.648c-.545.246-.588.719-.1,1.06L7.094,9.42a2.1,2.1,0,0,0,1.838.173" transform="translate(103.93 106.455)" fill="#4d4d4d" opacity="0.997"/>
      <path id="Path_279" data-name="Path 279" d="M16.186,5.779,8.423,9.633a2.317,2.317,0,0,1-2.172-.064L.31,5.269C-.205,4.9-.063,4.328.626,4L8.452.222A2.308,2.308,0,0,1,10.584.3l5.879,4.219c.513.368.391.931-.276,1.262" transform="translate(110.478 95.777)" fill="#4d4d4d" opacity="0.997"/>
      <path id="Path_280" data-name="Path 280" d="M12.109.424l6.118,4.848c.591.468.38,1.165-.467,1.565L9.406,10.77a2.841,2.841,0,0,1-2.6-.1L.414,6.083C-.249,5.606-.1,4.888.751,4.474L9.377.282a2.824,2.824,0,0,1,2.732.142" transform="translate(124.945 89.75)" fill="#4d4d4d" opacity="0.997"/>
      <path id="Path_281" data-name="Path 281" d="M11.525.377,17.4,4.949c.581.452.337,1.123-.539,1.5L8.488,10.074A2.723,2.723,0,0,1,6.03,9.937L.345,5.665C-.231,5.232-.07,4.583.714,4.207L8.9.283a2.767,2.767,0,0,1,2.629.094" transform="translate(135.949 98.092)" fill="#4d4d4d" opacity="0.997"/>
      <path id="Path_282" data-name="Path 282" d="M16.25,6.232l-7.507,3.8a2.548,2.548,0,0,1-2.409-.07L.383,5.665c-.61-.44-.478-1.111.3-1.5L8.412.263a2.53,2.53,0,0,1,2.456.111l5.727,4.4c.561.431.406,1.082-.344,1.462" transform="translate(120.457 102.766)" fill="#4d4d4d" opacity="0.997"/>
      <path id="Path_283" data-name="Path 283" d="M16.235,6.566l-7.7,3.467a2.115,2.115,0,0,1-1.978-.2L.332,5.018c-.5-.39-.427-.932.174-1.217L8.167.176A2.121,2.121,0,0,1,10.21.369l6.265,4.977c.5.394.387.938-.24,1.221" transform="translate(154.113 95.397)" fill="#4d4d4d" opacity="0.997"/>
      <path id="Path_284" data-name="Path 284" d="M15.743,6.494,8.772,9.905a2.437,2.437,0,0,1-2.352-.2L.4,5.055c-.612-.473-.514-1.132.22-1.476L7.833.193A2.43,2.43,0,0,1,10.176.44l5.778,4.624c.57.456.476,1.093-.211,1.43" transform="translate(164.386 103.38)" fill="#4d4d4d" opacity="0.997"/>
      <path id="Path_285" data-name="Path 285" d="M11.789.363l5.66,4.348c.562.432.322,1.076-.536,1.445L8.478,9.784a2.806,2.806,0,0,1-2.512-.112L.321,5.442C-.249,5.014-.041,4.373.79,4L9.21.258a2.817,2.817,0,0,1,2.579.105" transform="translate(145.912 105.758)" fill="#4d4d4d" opacity="0.997"/>
      <path id="Path_286" data-name="Path 286" d="M16.144,6.329,8.666,9.9a2.556,2.556,0,0,1-2.347-.113L.4,5.585C-.206,5.154-.115,4.5.613,4.13L8.118.269a2.565,2.565,0,0,1,2.5.115l5.889,4.492c.573.437.408,1.086-.364,1.454" transform="translate(130.718 110.058)" fill="#4d4d4d" opacity="0.997"/>
      <path id="Path_287" data-name="Path 287" d="M9.177,9.831,16.9,6.416c.554-.245.611-.726.126-1.078l-6.888-5a2.109,2.109,0,0,0-1.909-.2L.441,3.645c-.552.248-.591.734-.089,1.089L7.3,9.644a2.107,2.107,0,0,0,1.872.187" transform="translate(114.882 114.194)" fill="#4d4d4d" opacity="0.997"/>
      <path id="Path_288" data-name="Path 288" d="M8.418,9.289l7.84-3.382c.566-.244.66-.7.21-1.028L10.121.3A2.048,2.048,0,0,0,8.28.153L.47,3.624c-.551.245-.628.7-.174,1.024l6.317,4.5a2.044,2.044,0,0,0,1.806.145" transform="translate(125.902 121.977)" fill="#4d4d4d" opacity="0.997"/>
      <path id="Path_289" data-name="Path 289" d="M15.523,5.692,8.082,9.066A2.557,2.557,0,0,1,5.8,8.973L.345,5.152c-.553-.387-.428-.977.284-1.323L7.965.258a2.579,2.579,0,0,1,2.389.068L15.92,4.344c.551.4.372,1-.4,1.348" transform="translate(140.823 117.638)" fill="#4d4d4d" opacity="0.997"/>
      <path id="Path_290" data-name="Path 290" d="M11.611.384,17.327,4.8c.566.438.342,1.073-.5,1.426L8.551,9.692a2.805,2.805,0,0,1-2.494-.15L.336,5.254C-.244,4.82-.055,4.185.762,3.83L9.043.236a2.813,2.813,0,0,1,2.568.148" transform="translate(155.761 113.323)" fill="#4d4d4d" opacity="0.997"/>
      <path id="Path_291" data-name="Path 291" d="M.435,4.992,6.5,9.708a2.367,2.367,0,0,0,2.279.259l6.681-3.241a.793.793,0,0,0,.147-1.448L9.6.464A2.37,2.37,0,0,0,7.267.19L.531,3.529c-.67.332-.712.985-.1,1.463" transform="translate(174.895 111.614)" fill="#4d4d4d" opacity="0.997"/>
      <path id="Path_292" data-name="Path 292" d="M14.8,5.258,7.53,8.561a2.461,2.461,0,0,1-2.219-.052L.285,4.833c-.511-.374-.316-.946.436-1.282L8.171.225A2.432,2.432,0,0,1,10.4.308l4.843,3.7c.478.365.281.922-.441,1.25" transform="translate(150.166 124.518)" fill="#4d4d4d" opacity="0.997"/>
      <path id="Path_293" data-name="Path 293" d="M9.731,10.4l8.6-3.657c.366-.156.4-.472.073-.709L10.457.25A1.473,1.473,0,0,0,9.147.087L.288,3.906c-.374.161-.385.489-.026.735l8.206,5.617a1.467,1.467,0,0,0,1.263.138" transform="translate(135.781 129.002)" fill="#4d4d4d" opacity="0.997"/>
      <path id="Path_294" data-name="Path 294" d="M11.72.3,16.68,4.11c.495.38.222.97-.611,1.324L7.708,8.983a2.753,2.753,0,0,1-2.424-.041L.253,5.132C-.253,4.749.023,4.153.871,3.8L9.3.25A2.736,2.736,0,0,1,11.72.3" transform="translate(165.383 120.611)" fill="#4d4d4d" opacity="0.997"/>
      <path id="Path_295" data-name="Path 295" d="M10.619,1.106,29.794,16.6c.9.724,1.279,1.436.864,1.6l-8.3,3.249c-.392.153-1.415-.28-2.3-.973L1.176,5.658C.221,4.909-.247,4.155.131,3.97L8.138.045c.4-.2,1.51.278,2.481,1.062" transform="translate(185.413 120.199)" fill="#4d4d4d" opacity="0.997"/>
      <path id="Path_296" data-name="Path 296" d="M11.259.259l4.5,3.5c.446.348.128.91-.71,1.26L6.9,8.426a2.587,2.587,0,0,1-2.23,0L.217,5.073c-.45-.339-.179-.89.611-1.237L8.93.281A2.623,2.623,0,0,1,11.259.259" transform="translate(174.193 127.254)" fill="#4d4d4d" opacity="0.997"/>
      <path id="Path_297" data-name="Path 297" d="M13.352,4.562,6.093,7.439A2.3,2.3,0,0,1,4.17,7.415L.208,4.544c-.4-.293-.2-.769.461-1.069L7.767.268A2.394,2.394,0,0,1,9.911.236l4.123,3.2c.4.314.1.817-.682,1.125" transform="translate(158.663 130.83)" fill="#4d4d4d" opacity="0.997"/>
      <path id="Path_298" data-name="Path 298" d="M8.905.039.14,3.78c-.382.163.043.807.948,1.439L20.029,18.457a3.089,3.089,0,0,0,2.059.725l8.353-3.223c.375-.145.069-.713-.691-1.278L11.222.926C10.336.268,9.3-.13,8.905.039" transform="translate(147.56 137.368)" fill="#4d4d4d" opacity="0.997"/>
      <path id="Path_299" data-name="Path 299" d="M36.3,9.928,17.121,17.374a4.487,4.487,0,0,1-3.718-.053L.573,7.842C-.2,7.272-.355,6.783,1.14,6.367L8.434,3.386c1.18-.482,1.178-.507,2.2.239L12,4.62a2.573,2.573,0,0,0,2.153-.111L24.036.251a3.034,3.034,0,0,1,2.652.088L36.969,8.417c.592.465.3,1.136-.665,1.511" transform="translate(166.809 133.861)" fill="#4d4d4d"/>
    </g>
    <path id="Path_300" data-name="Path 300" d="M516.54,595c-2.513,1.552-2.18,2.66.665,5.21,2.868,2.57-.85-1.145-1.626-2.328C514.769,596.648,519.009,593.475,516.54,595Z" transform="translate(-300.168 -237.411)" fill="#fff" fill-rule="evenodd"/>
    <path id="Path_301" data-name="Path 301" d="M493.04,576.48c-2.513,1.552-3.03,2.328-.185,4.877,2.868,2.57-.554-1.109-1.478-2.365-.9-1.222,4.132-4.038,1.663-2.513Z" transform="translate(-298.81 -237.411)" fill="#fff" fill-rule="evenodd"/>
    <path id="Path_302" data-name="Path 302" d="M504.27,585.91c-2.513,1.552-3.178,2.106-.333,4.656,2.868,2.57-.7-1.4-1.256-2.143-.652-.869,4.058-4.038,1.589-2.513Z" transform="translate(-299.436 -237.411)" fill="#fff" fill-rule="evenodd"/>
    <path id="Path_303" data-name="Path 303" d="M482.25,567.58c-2.513,1.552-3.178,2.106-.333,4.656,2.868,2.57-1.4-1-1.145-2.4s3.947-3.779,1.478-2.254Z" transform="translate(-298.198 -237.411)" fill="#fff" fill-rule="evenodd"/>
    <path id="Path_304" data-name="Path 304" d="M507.69,568.61c-2.469,1.525-2.919,2.051.018,4.508s-1.218-1.726-1.515-2.291,3.966-3.742,1.5-2.217Z" transform="translate(-299.642 -237.411)" fill="#fff" fill-rule="evenodd"/>
    <path id="Path_305" data-name="Path 305" d="M524.45,563.92c-2.993,1.663-3.4,2.211-.333,4.656,3.09,2.459-1.256-1.293-1.256-2.439,0-1.182,4.566-3.871,1.589-2.217Z" transform="translate(-300.573 -237.411)" fill="#fff" fill-rule="evenodd"/>
    <path id="Path_306" data-name="Path 306" d="M545.07,559.45c-2.66,1.4-3.473,2.254-.333,4.656s-1.589-1.293-1.33-2.4c.275-1.179,4.3-3.644,1.663-2.254Z" transform="translate(-301.733 -237.411)" fill="#fff" fill-rule="evenodd"/>
    <path id="Path_307" data-name="Path 307" d="M562.65,554.9c-2.513,1.478-3.326,2.365-.333,4.656s-1.367-1-1.109-2.476S565.2,553.4,562.65,554.9Z" transform="translate(-302.726 -237.411)" fill="#fff" fill-rule="evenodd"/>
    <path id="Path_308" data-name="Path 308" d="M556.71,567.69c-2.513,1.552-3.316,2.23-.333,4.656s4.894,3.714.85.148c-4.065-3.584,1.952-6.329-.517-4.8Z" transform="translate(-302.458 -237.411)" fill="#fff" fill-rule="evenodd"/>
    <path id="Path_309" data-name="Path 309" d="M536.31,572.38c-4.175,2.217-3.547,1.958,3.03,7.205,6.559,5.233-3.05-3.195-4.028-4.286-.942-1.052,5.144-5.121,1-2.919Z" transform="translate(-301.373 -237.411)" fill="#fff" fill-rule="evenodd"/>
    <path id="Path_310" data-name="Path 310" d="M519.57,576.78c-2.513,1.552-2.623,3.4,4.434,9.09,7.08,5.708-6.555-5.078-4.767-7.39,1.739-2.248,2.8-3.225.333-1.7Z" transform="translate(-300.484 -237.411)" fill="#fff" fill-rule="evenodd"/>
    <path id="Path_311" data-name="Path 311" d="M575.11,563.22c-3.03,1.774-3.1,2.55,0,4.877,3.069,2.3-1.663-1.478-1.4-2.586C573.956,564.437,578.112,561.462,575.11,563.22Z" transform="translate(-303.434 -237.411)" fill="#fff" fill-rule="evenodd"/>
    <path id="Path_312" data-name="Path 312" d="M551.35,546.89c-2.513,1.552-3.326,2.328-.333,4.656,3.029,2.356-.887-1.552-1.367-2.143C549.205,548.855,553.819,545.365,551.35,546.89Z" transform="translate(-302.087 -237.411)" fill="#fff" fill-rule="evenodd"/>
    <path id="Path_313" data-name="Path 313" d="M533.39,551.02c-2.513,1.552-3.178,2.106-.333,4.656,2.868,2.57-1.182-.961-.924-2.439s3.726-3.742,1.256-2.217Z" transform="translate(-301.079 -237.411)" fill="#fff" fill-rule="evenodd"/>
    <path id="Path_314" data-name="Path 314" d="M513.74,555.35c-2.513,1.552-3.178,2.106-.333,4.656,2.868,2.57-1.182-.961-.924-2.439S516.209,553.825,513.74,555.35Z" transform="translate(-299.972 -237.411)" fill="#fff" fill-rule="evenodd"/>
    <path id="Path_315" data-name="Path 315" d="M496.6,559.61c-3.244,1.6-3.7,2.054-.333,4.656,3.318,2.563-1.553-1.542-1.446-2.543.1-.95,5.066-3.738,1.779-2.112Z" transform="translate(-298.999 -237.411)" fill="#fff" fill-rule="evenodd"/>
    <path id="Path_316" data-name="Path 316" d="M540.48,538.9c-2.513,1.552-3.311,2.278-.333,4.656,2.942,2.349-1.182-1.035-1.145-2.365s3.947-3.816,1.478-2.291Z" transform="translate(-301.475 -237.411)" fill="#fff" fill-rule="evenodd"/>
    <path id="Path_317" data-name="Path 317" d="M522.45,542.6c-2.586,1.4-3.326,2.18-.333,4.656,2.944,2.435-1.4-.887-1.145-2.365s4.073-3.7,1.478-2.291Z" transform="translate(-300.461 -237.411)" fill="#fff" fill-rule="evenodd"/>
    <path id="Path_318" data-name="Path 318" d="M503,547.02c-2.513,1.552-3.178,2.106-.333,4.656,2.868,2.57-1.182-.961-.924-2.439s3.726-3.742,1.256-2.217Z" transform="translate(-299.367 -237.411)" fill="#fff" fill-rule="evenodd"/>
    <path id="Path_319" data-name="Path 319" d="M484.91,550.43c-3.505,1.918-3.178,2.106-.333,4.656,2.868,2.57-1.455-1.647-1.342-2.6.1-.845,5.14-3.956,1.674-2.06Z" transform="translate(-298.345 -237.411)" fill="#fff" fill-rule="evenodd"/>
    <path id="Path_320" data-name="Path 320" d="M422.28,516.99c-5.282,2.963-4.746,1.655,7.506,11.815,12.148,10.074-3.99-4.9-7.207-7.836-3.191-2.913,5.063-6.986-.3-3.978Z" transform="translate(-294.974 -237.411)" fill="#fff" fill-rule="evenodd"/>
    <path id="Path_321" data-name="Path 321" d="M475.23,542.01c-2.513,1.552-3.178,2.106-.333,4.656,2.868,2.57-1.182-.961-.924-2.439S477.7,540.485,475.23,542.01Z" transform="translate(-297.803 -237.411)" fill="#fff" fill-rule="evenodd"/>
    <path id="Path_322" data-name="Path 322" d="M464,534.32c-2.513,1.552-3.178,2.106-.333,4.656,2.868,2.57-1.182-.961-.924-2.439S466.469,532.795,464,534.32Z" transform="translate(-297.171 -237.411)" fill="#fff" fill-rule="evenodd"/>
    <path id="Path_323" data-name="Path 323" d="M453.65,526.05c-2.513,1.552-3.178,2.106-.333,4.656,2.868,2.57-1.182-.961-.924-2.439S456.119,524.525,453.65,526.05Z" transform="translate(-296.588 -237.411)" fill="#fff" fill-rule="evenodd"/>
    <path id="Path_324" data-name="Path 324" d="M443.9,517.77c-2.513,1.552-3.178,2.106-.333,4.656,2.868,2.57-1.182-.961-.924-2.439S446.369,516.245,443.9,517.77Z" transform="translate(-296.038 -237.411)" fill="#fff" fill-rule="evenodd"/>
    <path id="Path_325" data-name="Path 325" d="M494.3,538.61c-2.513,1.552-3.178,2.106-.333,4.656,2.868,2.57-1.182-.961-.924-2.439S496.769,537.085,494.3,538.61Z" transform="translate(-298.877 -237.411)" fill="#fff" fill-rule="evenodd"/>
    <path id="Path_326" data-name="Path 326" d="M511.1,534.04c-4.36,2.291-3.621,2.254-.333,4.656,3.22,2.351-.5-.961-1.394-2.23-.858-1.222,6.057-4.7,1.727-2.426Z" transform="translate(-299.816 -237.411)" fill="#fff" fill-rule="evenodd"/>
    <path id="Path_327" data-name="Path 327" d="M528.51,530.63c-3.252,1.921-3.7,2.032-.333,4.656,3.317,2.588-1.478-.887-1.219-2.365s4.749-4.18,1.552-2.291Z" transform="translate(-300.8 -237.411)" fill="#fff" fill-rule="evenodd"/>
    <path id="Path_328" data-name="Path 328" d="M518.09,522.5c-2.513,1.552-3.178,2.106-.333,4.656,2.868,2.57-1.182-.961-.924-2.439S520.559,520.975,518.09,522.5Z" transform="translate(-300.217 -237.411)" fill="#fff" fill-rule="evenodd"/>
    <path id="Path_329" data-name="Path 329" d="M506.2,514.89c-2.513,1.552-3.178,2.106-.333,4.656,2.868,2.57-1.182-.961-.924-2.439s3.726-3.742,1.256-2.217Z" transform="translate(-299.548 -237.411)" fill="#fff" fill-rule="evenodd"/>
    <path id="Path_330" data-name="Path 330" d="M500.21,525.82c-2.513,1.552-3.178,2.106-.333,4.656,2.868,2.57-1.182-.961-.924-2.439s3.726-3.742,1.256-2.217Z" transform="translate(-299.21 -237.411)" fill="#fff" fill-rule="evenodd"/>
    <path id="Path_331" data-name="Path 331" d="M488.68,517.33c-2.513,1.552-3.178,2.106-.333,4.656,2.868,2.57-1.182-.961-.924-2.439S491.149,515.8,488.68,517.33Z" transform="translate(-298.561 -237.411)" fill="#fff" fill-rule="evenodd"/>
    <path id="Path_332" data-name="Path 332" d="M481.59,530.7c-2.513,1.552-3.178,2.106-.333,4.656,2.868,2.57-1.182-.961-.924-2.439S484.059,529.175,481.59,530.7Z" transform="translate(-298.161 -237.411)" fill="#fff" fill-rule="evenodd"/>
    <path id="Path_333" data-name="Path 333" d="M471.98,523.24c-2.513,1.552-3.178,2.106-.333,4.656,2.868,2.57-1.182-.961-.924-2.439s3.726-3.742,1.256-2.217Z" transform="translate(-297.62 -237.411)" fill="#fff" fill-rule="evenodd"/>
    <path id="Path_334" data-name="Path 334" d="M477.89,509.49c-2.513,1.552-3.178,2.106-.333,4.656,2.868,2.57-1.182-.961-.924-2.439S480.359,507.965,477.89,509.49Z" transform="translate(-297.953 -237.411)" fill="#fff" fill-rule="evenodd"/>
    <path id="Path_335" data-name="Path 335" d="M462.01,515.7c-2.752,1.379-3.282,2.106-.437,4.656,2.868,2.57-1.5-1.745-1.394-2.543S464.845,514.279,462.01,515.7Z" transform="translate(-297.055 -237.411)" fill="#fff" fill-rule="evenodd"/>
    <path id="Path_336" data-name="Path 336" d="M495.7,506.91c-2.513,1.552-3.178,2.106-.333,4.656,2.868,2.57-1.182-.961-.924-2.439S498.169,505.385,495.7,506.91Z" transform="translate(-298.956 -237.411)" fill="#fff" fill-rule="evenodd"/>
    <path id="Path_337" data-name="Path 337" d="M485.24,498.88c-2.774,1.343-3.491,2.263-.333,4.656s-1.653-1.9-1.551-2.648c.116-.849,4.637-3.341,1.883-2.008Z" transform="translate(-298.36 -237.411)" fill="#fff" fill-rule="evenodd"/>
    <path id="Path_338" data-name="Path 338" d="M457.81,494.78c-2.722,1.447-3.753,1.845-.333,4.656,3.395,2.79-1.653-1.065-1.394-2.543s4.427-3.548,1.727-2.112Z" transform="translate(-296.812 -237.411)" fill="#fff" fill-rule="evenodd"/>
    <path id="Path_339" data-name="Path 339" d="M468.14,502.12c-2.669,1.369-3.387,2.315-.333,4.656s-1.6-1.588-1.446-2.543c.172-1.066,4.438-3.476,1.779-2.112Z" transform="translate(-297.399 -237.411)" fill="#fff" fill-rule="evenodd"/>
    <path id="Path_340" data-name="Path 340" d="M414.19,494.02c-2.643,1.4-3.082,2.321-.333,4.656,2.764,2.347-.973-1.306-1.368-2.073-.384-.747,4.323-3.967,1.7-2.583Z" transform="translate(-294.363 -237.411)" fill="#fff" fill-rule="evenodd"/>
    <path id="Path_341" data-name="Path 341" d="M474.14,491.22c-2.617,1.291-3.335,2-.333,4.342,3.027,2.36-1.653-1.588-1.446-2.386s4.354-3.226,1.779-1.956Z" transform="translate(-297.737 -237.411)" fill="#fff" fill-rule="evenodd"/>
    <path id="Path_342" data-name="Path 342" d="M462.61,483.45c-3.9,2.118-2.6,1.793.347,4.185,2.918,2.367-1.806-1.7-1.551-2.543s5.1-3.761,1.2-1.642Z" transform="translate(-297.098 -237.411)" fill="#fff" fill-rule="evenodd"/>
    <path id="Path_343" data-name="Path 343" d="M447.82,487.61c-2.852,1.5-3.465,2.263-.333,4.656s-1.522-1.666-1.42-2.439c.106-.8,4.585-3.706,1.753-2.217Z" transform="translate(-296.252 -237.411)" fill="#fff" fill-rule="evenodd"/>
    <path id="Path_344" data-name="Path 344" d="M431.85,492.35c-2.513,1.552-3.178,2.106-.333,4.656,2.868,2.57-1.182-.961-.924-2.439s3.726-3.742,1.256-2.217Z" transform="translate(-295.36 -237.411)" fill="#fff" fill-rule="evenodd"/>
    <path id="Path_345" data-name="Path 345" d="M441.83,499.74c-2.513,1.552-3.178,2.106-.333,4.656,2.868,2.57-1.182-.961-.924-2.439S444.3,498.215,441.83,499.74Z" transform="translate(-295.922 -237.411)" fill="#fff" fill-rule="evenodd"/>
    <path id="Path_346" data-name="Path 346" d="M451.62,507.41c-3.192,1.656-3.335,2.158-.333,4.656s-1.5-1.692-1.394-2.648c.109-1.023,4.814-3.612,1.727-2.008Z" transform="translate(-296.466 -237.411)" fill="#fff" fill-rule="evenodd"/>
    <path id="Path_347" data-name="Path 347" d="M434.59,509.49c-2.513,1.552-3.178,2.106-.333,4.656,2.868,2.57-1.182-.961-.924-2.439S437.059,507.965,434.59,509.49Z" transform="translate(-295.514 -237.411)" fill="#fff" fill-rule="evenodd"/>
    <path id="Path_348" data-name="Path 348" d="M424.13,502.08c-2.9,1.4-3.361,2.028-.359,4.5,2.984,2.456-1.655-1.62-1.551-2.543C422.321,503.138,426.971,500.715,424.13,502.08Z" transform="translate(-294.917 -237.411)" fill="#fff" fill-rule="evenodd"/>
    <path id="Path_349" data-name="Path 349" d="M411.22,508.01c-3.1,1.663-3.436,2.088-.333,4.656,3.086,2.553-.235-.66-1.164-1.848-.906-1.158,4.578-4.459,1.5-2.808Z" transform="translate(-294.186 -237.411)" fill="#fff" fill-rule="evenodd"/>
    <path id="Path_350" data-name="Path 350" d="M401.02,500.09c-2.9,1.317-3.387,2.054-.333,4.656,3.029,2.58.018-.559-1.211-1.995-1.2-1.4,4.417-3.964,1.544-2.661Z" transform="translate(-293.615 -237.411)" fill="#fff" fill-rule="evenodd"/>
    <path id="Path_351" data-name="Path 351" d="M391.08,492.06c-2.852,1.5-3.178,2.106-.333,4.656,2.868,2.57-.087-.782-.819-2.151C389.141,493.092,393.9,490.577,391.08,492.06Z" transform="translate(-293.058 -237.411)" fill="#fff" fill-rule="evenodd"/>
    <path id="Path_352" data-name="Path 352" d="M404.08,485.59c-2.716,1.33-3.307,2.18-.333,4.656s-1.386-1.649-1.312-2.586c.073-.918,4.36-3.4,1.644-2.069Z" transform="translate(-293.791 -237.411)" fill="#fff" fill-rule="evenodd"/>
    <path id="Path_353" data-name="Path 353" d="M422.13,484.62c-3.3,1.865-3.335,2.315-.333,4.656,3.027,2.36,1.19.158-.871-1.446-2.094-1.629,4.377-5.005,1.2-3.21Z" transform="translate(-294.805 -237.411)" fill="#fff" fill-rule="evenodd"/>
    <path id="Path_354" data-name="Path 354" d="M438.65,480.82c-2.513,1.552-3.178,2.106-.333,4.656,2.868,2.57-1.182-.961-.924-2.439S441.119,479.295,438.65,480.82Z" transform="translate(-295.743 -237.411)" fill="#fff" fill-rule="evenodd"/>
    <path id="Path_355" data-name="Path 355" d="M452.6,476.08c-3.742,1.689-3.7,1.793-.228,4.238,3.5,2.462-1.75-1.3-1.446-2.386.31-1.106,5.373-3.521,1.674-1.851Z" transform="translate(-296.516 -237.411)" fill="#fff" fill-rule="evenodd"/>
    <path id="Path_356" data-name="Path 356" d="M441.38,467.74c-2.513,1.552-3.178,2.106-.333,4.656,2.868,2.57-1.182-.961-.924-2.439s3.726-3.742,1.256-2.217Z" transform="translate(-295.896 -237.411)" fill="#fff" fill-rule="evenodd"/>
    <path id="Path_357" data-name="Path 357" d="M429.63,474.24c-2.513,1.552-3.178,2.106-.333,4.656,2.868,2.57-1.182-.961-.924-2.439S432.1,472.715,429.63,474.24Z" transform="translate(-295.235 -237.411)" fill="#fff" fill-rule="evenodd"/>
    <path id="Path_358" data-name="Path 358" d="M413.48,478.02c-3.14,1.447-3.6,2.106-.333,4.656,3.2,2.5.281.084-1.237-2.021-1.4-1.939,4.624-4.043,1.57-2.635Z" transform="translate(-294.313 -237.411)" fill="#fff" fill-rule="evenodd"/>
    <path id="Path_359" data-name="Path 359" d="M422.84,468.55c-2.513,1.552-3.178,2.106-.333,4.656,2.868,2.57-1.182-.961-.924-2.439s3.726-3.742,1.256-2.217Z" transform="translate(-294.852 -237.411)" fill="#fff" fill-rule="evenodd"/>
    <path id="Path_360" data-name="Path 360" d="M405.17,471.88c-2.513,1.552-3.178,2.106-.333,4.656,2.868,2.57-1.182-.961-.924-2.439S407.639,470.355,405.17,471.88Z" transform="translate(-293.857 -237.411)" fill="#fff" fill-rule="evenodd"/>
    <path id="Path_361" data-name="Path 361" d="M379.16,465.6c-3.547,1.33-3.695,1.518,3.806,7.575,7.464,6.027-1.845-1.995-4.36-4.36-2.535-2.384,4.089-4.54.554-3.215Z" transform="translate(-292.451 -237.411)" fill="#fff" fill-rule="evenodd"/>
    <path id="Path_362" data-name="Path 362" d="M391.95,460.64c-2.513,1.552-3.178,2.106-.333,4.656,2.868,2.57-1.182-.961-.924-2.439S394.419,459.115,391.95,460.64Z" transform="translate(-293.112 -237.411)" fill="#fff" fill-rule="evenodd"/>
    <path id="Path_363" data-name="Path 363" d="M418.01,450.63c-4.5,1.813-4.327,1.636,2.75,7.06s-3.116-2.946-4.582-4.372,6.366-4.515,1.831-2.687Z" transform="translate(-294.618 -237.411)" fill="#fff" fill-rule="evenodd"/>
    <path id="Path_364" data-name="Path 364" stroke="#333" d="M710.71,317.04c-4.836-1.78-6.366-1.117-8.17,1.025L667.7,550.605l9.765-4.9,33.247-228.66Z" fill="#1a1a1a" transform="translate(-312.241 -237.411)" stroke-linecap="round" stroke-linejoin="round" stroke-width="0.946" fill-rule="evenodd"/>
    <path id="Path_365" data-name="Path 365" d="M635.63,529.3,476.01,431.456c-2.013,1.236-3.774,2.623-3.843,5.025L631.2,534.472c.281-2.273,1.788-3.984,4.434-5.173Z" transform="translate(-303.683 -237.411)" fill="gray" fill-rule="evenodd"/>
    <path id="Path_366" data-name="Path 366" d="M0,1.672l73.889,48.7.627-1.045L1.882,0,0,1.672Z" transform="translate(253.03 271.49) rotate(180)" fill="#fff" fill-rule="evenodd" opacity="0.67"/>
    <path id="Path_367" data-name="Path 367" d="M0,1.673,18.394,13.587l.627-1.045L1.881,0,0,1.672Z" transform="translate(309.232 310.783) rotate(180)" fill="#fff" fill-rule="evenodd" opacity="0.67"/>
    <path id="Path_368" data-name="Path 368" d="M0,1.673,18.394,13.587l.627-1.045L1.881,0,0,1.672Z" transform="translate(309.232 310.783) rotate(180)" fill="#fff" fill-rule="evenodd" opacity="0.67"/>
    <path id="Path_369" data-name="Path 369" d="M0,1.672l73.889,48.7.627-1.045L1.882,0,0,1.672Z" transform="translate(253.03 271.49) rotate(180)" fill="#fff" fill-rule="evenodd" opacity="0.67"/>
    <path id="Path_370" data-name="Path 370" stroke-linecap="round" d="M622.65,545.52c-2.933-2.718-10.493,2.375-9.753,5.765Z" fill="#666" stroke="#000" transform="translate(-305.962 -237.411)" stroke-linejoin="round" stroke-width="0.236" fill-rule="evenodd" opacity="0.997"/>
    <path id="Path_371" data-name="Path 371" d="M391.43,516.4a9.347,9.347,0,0,1,5.469,1.774l44.82,37.5c3.047,2.548,1.974,6.339-2.476,8.5l-11.528,5.506c-39.291-7.09-13.082-47.7-47.7-50.03,1.54-.687,4.693-2.069,4.693-2.069a15.486,15.486,0,0,1,6.725-1.182Z" transform="translate(-293.389 -237.411)" fill="url(#linear-gradient-2)"/>
  </g>
</svg>
