<svg xmlns="http://www.w3.org/2000/svg" xmlns:xlink="http://www.w3.org/1999/xlink" width="182.109" height="234.541" viewBox="0 0 182.109 234.541">
  <defs>
    <linearGradient id="linear-gradient" x1="-3.582" y1="-0.369" x2="-3.579" y2="-0.369" gradientUnits="objectBoundingBox">
      <stop offset="0" stop-color="#212121" stop-opacity="0.616"/>
      <stop offset="1" stop-color="#4d4d4d" stop-opacity="0"/>
    </linearGradient>
  </defs>
  <g id="Group_66" data-name="Group 66" transform="translate(-142.549 -47.898)">
    <path id="Path_81" data-name="Path 81" d="M142.552,206.4V65.036A17.136,17.136,0,0,1,159.689,47.9H254l70.657,70.657V220.733h-182.1V206.4Z" fill="#c12906" fill-rule="evenodd"/>
    <g id="Group_61" data-name="Group 61" transform="translate(0 36.348)">
      <path id="Path_82" data-name="Path 82" d="M324.649,184.384v47.8c0,7.681-7.671,13.907-17.135,13.907H159.685c-9.464,0-17.136-6.225-17.136-13.907v-47.8h182.1Z" fill="#9b0d0a" fill-rule="evenodd"/>
    </g>
    <g id="Group_62" data-name="Group 62" transform="translate(0.738)">
      <path id="Path_83" data-name="Path 83" d="M253.222,47.9h.032l70.666,70.666v59.087a.989.989,0,0,1-1.26-.1c-3.346-3.346-66.255-61.924-66.255-66.656,0-20.81-3.144-62.5-3.183-63Z" fill-rule="evenodd" fill="url(#linear-gradient)"/>
    </g>
    <g id="Group_63" data-name="Group 63" transform="translate(0.738)">
      <path id="Path_84" data-name="Path 84" d="M253.222,47.9h.032l70.666,70.666H271.062a17.842,17.842,0,0,1-17.84-17.84V47.9Z" fill="#9b0d0a" fill-rule="evenodd"/>
    </g>
    <g id="Group_64" data-name="Group 64" transform="translate(0 10.033)">
      <path id="Path_85" data-name="Path 85" d="M168.33,257.889V222.8h9.563v13.637h12.75V222.8h9.586v35.088h-9.586V243.6h-12.75v14.285Z" fill="#fff"/>
      <path id="Path_86" data-name="Path 86" d="M212.74,257.889V231.094h-7.861V222.8h25.286v8.293H222.3v26.795h-9.563Z" fill="#fff"/>
      <path id="Path_87" data-name="Path 87" d="M275.083,257.889h-8.939l-2.061-15.171q-.217-1.607-.4-3.572t-.324-4.288a42.428,42.428,0,0,1-1.318,5.559c-.143.464-.247.806-.31,1.031l-4.769,16.442h-6.377l-4.769-16.442c-.063-.224-.159-.566-.288-1.031a38.716,38.716,0,0,1-1.318-5.537q-.143,1.991-.335,3.944t-.455,3.894l-2.061,15.171h-8.892l5.416-35.088h9.467l5.3,18.1c.032.127.1.335.193.623a23.335,23.335,0,0,1,.936,4.146,17.075,17.075,0,0,1,.358-2.073q.265-1.138.72-2.746L260.2,222.8h9.49l5.394,35.088Z" fill="#fff"/>
      <path id="Path_88" data-name="Path 88" d="M280.225,257.889V222.8h9.564v26.89h11.886v8.2H280.225Z" fill="#fff"/>
    </g>
    <g id="Group_65" data-name="Group 65" transform="translate(-145.794 126.371)">
      <path id="Path_89" data-name="Path 89" d="M356.1,20.982v8.042L328.957,40.182,356.1,51.243v8.074L318.657,43.869V36.463L356.1,20.982Z" fill="#fff"/>
      <path id="Path_90" data-name="Path 90" d="M364.49,65.611l22.792-53.624h7.025L371.579,65.611Z" fill="#fff"/>
      <path id="Path_91" data-name="Path 91" d="M402.7,20.982l37.444,15.48v7.406L402.7,59.317V51.243l27.145-11.062L402.7,29.024V20.982Z" fill="#fff"/>
    </g>
  </g>
</svg>
