<svg xmlns="http://www.w3.org/2000/svg" xmlns:xlink="http://www.w3.org/1999/xlink" width="182.109" height="234.541" viewBox="0 0 182.109 234.541">
  <defs>
    <linearGradient id="linear-gradient" x1="-3.582" y1="-0.369" x2="-3.579" y2="-0.369" gradientUnits="objectBoundingBox">
      <stop offset="0" stop-color="#212121" stop-opacity="0.616"/>
      <stop offset="1" stop-color="#4d4d4d" stop-opacity="0"/>
    </linearGradient>
  </defs>
  <g id="Group_12" data-name="Group 12" transform="translate(-142.549 -47.898)">
    <path id="Path_9" data-name="Path 9" d="M142.552,206.4V65.036A17.136,17.136,0,0,1,159.689,47.9H254l70.657,70.657V220.733h-182.1V206.4Z" fill="#af00fa" fill-rule="evenodd"/>
    <g id="Group_7" data-name="Group 7" transform="translate(0 36.348)">
      <path id="Path_10" data-name="Path 10" d="M324.649,184.384v47.8c0,7.681-7.671,13.907-17.135,13.907H159.685c-9.464,0-17.136-6.225-17.136-13.907v-47.8h182.1Z" fill="#9700ff" fill-rule="evenodd"/>
    </g>
    <g id="Group_8" data-name="Group 8" transform="translate(0.738)">
      <path id="Path_11" data-name="Path 11" d="M253.222,47.9h.032l70.666,70.666v59.087a.989.989,0,0,1-1.26-.1c-3.346-3.346-66.255-61.924-66.255-66.656,0-20.81-3.144-62.5-3.183-63Z" fill-rule="evenodd" fill="url(#linear-gradient)"/>
    </g>
    <g id="Group_9" data-name="Group 9" transform="translate(0.738)">
      <path id="Path_12" data-name="Path 12" d="M253.222,47.9h.032l70.666,70.666H271.062a17.842,17.842,0,0,1-17.84-17.84V47.9Z" fill="#9700ff" fill-rule="evenodd"/>
    </g>
    <g id="Group_10" data-name="Group 10" transform="translate(0 10.033)">
      <path id="Path_13" data-name="Path 13" d="M218.227,222.794h9.539v22.769a25.86,25.86,0,0,1-.48,5.7,9.982,9.982,0,0,1-1.581,3.523,9.511,9.511,0,0,1-3.595,3.008,11.01,11.01,0,0,1-4.793,1.017,12.1,12.1,0,0,1-5.9-1.414,12.565,12.565,0,0,1-4.434-4.193l5.848-5.3a4.241,4.241,0,0,0,1.007,2.394,2.619,2.619,0,0,0,1.989.84,1.912,1.912,0,0,0,1.881-1.511q.515-1.509.515-7.548V222.794Z" fill="#fff"/>
      <path id="Path_14" data-name="Path 14" d="M236.39,246.539a17.319,17.319,0,0,0,4.2,3.62,8.2,8.2,0,0,0,4.134,1.2,4.753,4.753,0,0,0,3.151-1.031,3.253,3.253,0,0,0,1.235-2.612,3.412,3.412,0,0,0-1.067-2.7q-1.064-.948-4.827-1.955-5.155-1.39-7.285-3.618a8.472,8.472,0,0,1-2.134-6.112,10.772,10.772,0,0,1,3.366-8.208,12.22,12.22,0,0,1,8.737-3.176,19.085,19.085,0,0,1,5.5.779,17.831,17.831,0,0,1,4.925,2.36l-3,6.878a12.574,12.574,0,0,0-3.344-2.1,8.839,8.839,0,0,0-3.391-.707,4.494,4.494,0,0,0-2.8.827,2.566,2.566,0,0,0-1.078,2.123,2.614,2.614,0,0,0,.947,2.109,10.275,10.275,0,0,0,3.656,1.509l.43.12q5.848,1.583,7.693,3.475a8.561,8.561,0,0,1,1.894,3.1,11.88,11.88,0,0,1,.648,4.014,11.644,11.644,0,0,1-3.668,8.975q-3.666,3.391-9.777,3.391a17.266,17.266,0,0,1-6.676-1.246,18.933,18.933,0,0,1-5.788-3.905l4.316-7.12Z" fill="#fff"/>
    </g>
    <g id="Group_11" data-name="Group 11" transform="translate(155.386 -39.762)">
      <path id="Path_15" data-name="Path 15" d="M51.856,165.113H72.837v50.079a56.849,56.849,0,0,1-1.054,12.546,21.927,21.927,0,0,1-3.479,7.749A20.882,20.882,0,0,1,60.4,242.1a24.157,24.157,0,0,1-10.543,2.24,26.608,26.608,0,0,1-12.968-3.11,27.645,27.645,0,0,1-9.752-9.225L40,220.358a9.349,9.349,0,0,0,2.214,5.272,5.76,5.76,0,0,0,4.375,1.845q3,0,4.138-3.321t1.133-16.605V165.112Z" fill="#fff"/>
      <path id="Path_16" data-name="Path 16" d="M82.117,237.859l3.9-14.339a30.631,30.631,0,0,0,9.041,5.509A27.132,27.132,0,0,0,105,230.953a10.381,10.381,0,0,0,5.377-1.133,3.64,3.64,0,0,0,1.845-3.295q0-3.532-7.433-5.271-2.425-.58-3.9-1-8.435-2.32-12.256-6.089a13.131,13.131,0,0,1-3.822-9.779A15.03,15.03,0,0,1,90.63,192q5.825-4.639,15.788-4.639a47.564,47.564,0,0,1,10.411,1.186,57.083,57.083,0,0,1,10.833,3.664l-3.9,12.915a32.194,32.194,0,0,0-7.591-3.848,23.624,23.624,0,0,0-7.7-1.318,9.422,9.422,0,0,0-4.85,1,3.2,3.2,0,0,0-1.634,2.9q0,2.847,7.38,4.8,1.687.474,2.53.685,9.752,2.794,13.574,6.563t3.822,10.2a16.116,16.116,0,0,1-6.273,13.205q-6.273,5.034-16.605,5.034A50.257,50.257,0,0,1,93.4,242.735a41.792,41.792,0,0,1-11.281-4.876Z" fill="#fff"/>
    </g>
  </g>
</svg>
